{"glyphs":{"0":{"ha":797,"x_min":0,"x_max":0,"o":"m 399 1006 b 245 961 339 1006 288 991 b 147 840 202 931 169 891 b 97 676 124 788 107 734 b 82 490 87 619 82 557 b 97 305 82 424 87 362 b 147 143 107 248 124 194 b 245 22 169 92 202 52 b 399 -22 288 -7 339 -22 b 552 22 458 -22 509 -7 b 651 143 595 52 628 92 b 700 306 673 194 690 248 b 715 490 710 363 715 425 b 706 640 715 543 712 593 b 674 778 700 686 690 733 b 617 896 659 824 640 863 b 526 975 594 928 563 955 b 399 1006 489 995 447 1006 z m 399 938 b 517 894 445 938 484 923 b 591 781 550 866 575 828 b 626 639 607 733 619 686 b 636 490 633 592 636 542 b 626 343 636 439 633 390 b 591 201 619 296 607 249 b 517 88 575 154 550 116 b 399 46 484 60 445 46 b 279 88 352 46 313 60 b 205 202 246 116 221 154 b 171 343 189 250 177 297 b 161 490 164 389 161 438 b 171 639 161 542 164 592 b 205 781 177 686 189 733 b 279 894 221 828 246 866 b 399 938 313 923 352 938 z "},"1":{"ha":797,"x_min":0,"x_max":0,"o":"m 478 983 l 407 983 l 171 788 l 218 732 l 399 886 l 399 0 l 478 0 z "},"2":{"ha":797,"x_min":0,"x_max":0,"o":"m 682 71 l 161 71 l 506 431 b 633 590 563 491 606 544 b 675 744 661 635 675 687 b 594 935 675 825 648 889 b 392 1006 540 982 472 1006 b 205 944 319 1006 257 985 b 103 782 153 903 119 849 l 181 765 b 257 892 194 818 219 860 b 392 939 295 923 340 939 b 536 884 449 939 497 921 b 594 740 575 847 594 800 b 461 489 594 666 550 582 l 76 83 l 76 0 l 682 0 z "},"3":{"ha":797,"x_min":0,"x_max":0,"o":"m 299 482 l 339 482 b 524 429 410 482 472 464 b 601 268 575 394 601 340 b 537 107 601 201 580 148 b 375 46 494 66 440 46 b 144 194 269 46 193 95 l 79 161 b 375 -22 139 39 238 -22 b 595 58 465 -22 538 5 b 681 268 652 112 681 182 b 624 431 681 332 662 386 b 469 517 586 475 534 504 l 469 519 b 601 600 525 531 569 558 b 650 749 634 642 650 691 b 571 937 650 828 624 891 b 375 1006 518 983 453 1006 b 119 867 263 1006 178 959 l 179 828 b 372 939 228 902 293 939 b 515 885 429 939 476 921 b 572 744 553 849 572 802 b 506 598 572 679 550 630 b 339 550 462 566 406 550 l 299 550 z "},"4":{"ha":797,"x_min":0,"x_max":0,"o":"m 589 983 l 483 983 l 58 322 l 58 243 l 511 243 l 511 0 l 589 0 l 589 243 l 739 243 l 739 313 l 589 313 z m 511 313 l 140 313 l 508 894 l 511 894 z "},"5":{"ha":797,"x_min":0,"x_max":0,"o":"m 647 983 l 163 983 l 153 493 b 351 546 219 528 285 546 b 536 477 427 546 489 523 b 607 296 583 431 607 371 b 537 115 607 222 584 162 b 365 46 490 69 433 46 b 154 176 275 46 204 89 l 89 139 b 369 -22 148 31 242 -22 b 597 68 461 -22 537 8 b 688 303 657 128 688 206 b 600 525 688 394 658 468 b 374 611 542 582 466 611 b 228 585 316 611 268 602 l 236 913 l 647 913 z "},"6":{"ha":797,"x_min":0,"x_max":0,"o":"m 532 983 l 440 983 l 175 547 b 89 283 118 452 89 364 b 176 63 89 194 118 120 b 399 -22 234 6 308 -22 b 622 63 489 -22 564 6 b 710 283 681 120 710 194 b 626 500 710 371 682 444 b 415 585 570 556 500 585 b 253 531 345 585 291 567 l 250 533 z m 167 283 b 233 453 167 351 189 407 b 401 521 277 498 333 521 b 567 453 469 521 524 498 b 631 283 609 409 631 352 b 565 113 631 215 609 158 b 399 44 522 67 466 44 b 232 113 331 44 275 67 b 167 283 188 158 167 215 z "},"7":{"ha":797,"x_min":0,"x_max":0,"o":"m 675 983 l 107 983 l 107 913 l 596 913 l 186 0 l 275 0 l 675 908 z "},"8":{"ha":797,"x_min":0,"x_max":0,"o":"m 514 522 l 514 525 b 627 613 561 542 599 571 b 669 750 655 654 669 700 b 591 935 669 826 643 888 b 399 1006 539 982 475 1006 b 206 935 323 1006 259 982 b 128 750 154 888 128 826 b 170 613 128 700 142 654 b 283 525 198 571 236 542 l 283 522 b 142 426 224 506 177 473 b 90 260 108 378 90 323 b 180 56 90 175 120 107 b 399 -22 240 4 313 -22 b 617 56 485 -22 558 4 b 707 260 677 107 707 175 b 655 425 707 323 690 378 b 514 522 620 472 573 505 z m 206 746 b 260 884 206 801 224 847 b 399 939 297 921 343 939 b 537 884 454 939 500 921 b 592 746 573 847 592 801 b 536 611 592 692 573 647 b 399 557 499 575 453 557 b 261 611 344 557 298 575 b 206 746 224 647 206 692 z m 169 267 b 234 425 169 331 191 383 b 399 488 277 467 332 488 b 563 425 465 488 520 467 b 628 267 606 383 628 331 b 564 108 628 203 606 150 b 399 44 521 66 466 44 b 233 108 331 44 276 66 b 169 267 191 150 169 203 z "},"9":{"ha":797,"x_min":0,"x_max":0,"o":"m 267 0 l 358 0 l 625 439 b 710 701 681 531 710 619 b 624 921 710 791 681 864 b 401 1006 566 977 492 1006 b 177 920 311 1006 236 977 b 89 701 118 863 89 790 b 173 485 89 613 117 541 b 383 401 229 429 299 401 b 547 456 455 401 509 419 l 550 453 z m 632 701 b 567 533 632 634 610 578 b 399 465 523 488 467 465 b 232 532 330 465 275 488 b 168 701 189 576 168 633 b 233 872 168 770 190 827 b 400 939 277 916 332 939 b 567 872 468 939 523 916 b 632 701 610 827 632 770 z "},"\u0000":{"ha":694,"x_min":0,"x_max":0,"o":""},"\r":{"ha":0,"x_min":0,"x_max":0,"o":""}," ":{"ha":347,"x_min":0,"x_max":0,"o":""},"!":{"ha":433,"x_min":0,"x_max":0,"o":"m 257 983 l 178 983 l 178 268 l 257 268 z m 279 54 b 261 99 279 72 273 87 b 217 118 249 112 234 118 b 172 99 199 118 184 112 b 154 54 160 87 154 72 b 172 10 154 38 160 23 b 217 -8 184 -2 199 -8 b 261 10 234 -8 249 -2 b 279 54 273 23 279 38 z "},"\"":{"ha":563,"x_min":0,"x_max":0,"o":"m 147 660 l 214 660 l 214 983 l 147 983 z m 347 660 l 415 660 l 415 983 l 347 983 z "},"#":{"ha":769,"x_min":0,"x_max":0,"o":"m 150 0 l 217 0 l 258 308 l 460 308 l 418 0 l 485 0 l 526 308 l 675 308 l 675 374 l 536 374 l 568 613 l 711 613 l 711 678 l 578 678 l 618 983 l 551 983 l 510 678 l 310 678 l 350 983 l 283 983 l 243 678 l 82 678 l 82 613 l 233 613 l 200 374 l 46 374 l 46 308 l 192 308 z m 300 613 l 500 613 l 468 374 l 268 374 z "},"$":{"ha":797,"x_min":0,"x_max":0,"o":"m 363 550 b 172 746 236 586 172 651 b 227 881 172 801 191 847 b 363 938 264 916 309 935 z m 418 456 b 621 250 553 412 621 344 b 561 102 621 185 601 136 b 418 47 521 68 474 50 z m 363 47 b 243 78 324 48 284 59 b 136 168 202 98 167 128 l 81 125 b 363 -17 153 33 247 -14 l 363 -117 l 418 -117 l 418 -17 b 620 58 500 -15 567 10 b 700 244 673 105 700 168 b 684 337 700 279 695 309 b 644 406 673 364 660 387 b 579 459 628 425 606 443 b 504 498 552 475 527 488 b 418 531 481 508 452 519 l 418 938 b 622 842 500 938 569 906 l 672 889 b 418 1000 611 961 526 998 l 418 1100 l 363 1100 l 363 1000 b 172 924 286 995 222 970 b 96 740 121 877 96 816 b 117 634 96 700 103 665 b 180 557 132 603 153 577 b 263 507 207 537 235 520 b 363 469 290 494 324 481 z "},"%":{"ha":1151,"x_min":0,"x_max":0,"o":"m 532 761 b 463 930 532 828 509 884 b 296 999 417 976 362 999 b 127 930 229 999 173 976 b 58 761 81 884 58 828 b 127 594 58 695 81 640 b 296 525 173 548 229 525 b 463 594 362 525 417 548 b 532 761 509 640 532 695 z m 464 761 b 415 640 464 713 447 673 b 296 592 382 608 342 592 b 176 640 249 592 209 608 b 126 761 143 673 126 713 b 176 883 126 809 143 850 b 296 932 209 916 249 932 b 415 883 342 932 382 916 b 464 761 447 850 464 809 z m 1093 221 b 1024 388 1093 287 1070 342 b 856 457 977 434 921 457 b 688 388 790 457 734 434 b 619 221 642 342 619 287 b 688 53 619 155 642 99 b 856 -15 734 8 790 -15 b 1024 53 921 -15 977 8 b 1093 221 1070 99 1093 155 z m 1025 221 b 976 100 1025 173 1009 132 b 856 51 943 68 903 51 b 737 100 809 51 770 68 b 688 221 704 132 688 173 b 737 342 688 269 704 309 b 856 392 770 375 809 392 b 976 342 903 392 943 375 b 1025 221 1009 309 1025 269 z m 913 994 l 857 1025 l 235 -11 l 292 -42 z "},"&":{"ha":978,"x_min":0,"x_max":0,"o":"m 906 526 l 817 526 l 674 271 l 424 532 b 592 647 496 569 552 607 b 651 796 631 687 651 737 b 586 950 651 860 630 911 b 424 1008 543 989 488 1008 b 255 947 356 1008 300 988 b 188 782 210 906 188 851 b 310 547 188 712 228 633 b 140 426 237 513 180 473 b 81 254 100 380 81 323 b 165 53 81 169 109 102 b 376 -19 221 5 291 -19 b 683 154 501 -19 604 38 l 829 0 l 938 0 l 728 219 z m 574 793 b 522 673 574 745 556 705 b 378 579 488 641 440 610 b 265 782 303 652 265 720 b 310 899 265 830 280 869 b 424 943 341 928 378 943 b 531 901 466 943 502 929 b 574 793 559 872 574 837 z m 631 206 b 381 47 564 100 481 47 b 224 105 319 47 266 66 b 160 253 181 143 160 193 b 356 496 160 354 225 435 z "},"'":{"ha":361,"x_min":0,"x_max":0,"o":"m 147 660 l 214 660 l 214 983 l 147 983 z "},"(":{"ha":417,"x_min":0,"x_max":0,"o":"m 135 400 b 185 712 135 504 151 608 b 317 983 218 816 262 906 l 257 1019 b 115 735 198 939 150 844 b 63 400 80 625 63 514 b 257 -219 63 176 127 -31 l 317 -183 b 184 92 261 -102 217 -10 b 135 400 151 195 135 297 z "},")":{"ha":417,"x_min":0,"x_max":0,"o":"m 281 400 b 231 88 281 296 264 192 b 99 -183 197 -16 153 -106 l 158 -219 b 301 65 218 -139 265 -44 b 354 400 336 175 354 286 b 301 735 354 514 336 625 b 158 1019 265 844 218 939 l 99 983 b 231 712 153 906 197 816 b 281 400 264 608 281 504 z "},"*":{"ha":617,"x_min":0,"x_max":0,"o":"m 342 983 l 275 983 l 275 774 l 71 839 l 49 776 l 254 713 l 124 536 l 176 496 l 308 676 l 440 496 l 493 536 l 363 713 l 568 776 l 546 839 l 342 774 z "},"+":{"ha":925,"x_min":0,"x_max":0,"o":"m 497 769 l 429 769 l 429 454 l 118 454 l 118 389 l 429 389 l 429 74 l 497 74 l 497 389 l 807 389 l 807 454 l 497 454 z "},",":{"ha":353,"x_min":0,"x_max":0,"o":"m 242 131 l 163 131 l 74 -193 l 136 -193 z "},"-":{"ha":436,"x_min":0,"x_max":0,"o":"m 364 374 l 72 374 l 72 310 l 364 310 z "},".":{"ha":353,"x_min":0,"x_max":0,"o":"m 239 56 b 221 99 239 72 233 87 b 176 118 209 112 194 118 b 132 99 159 118 144 112 b 114 56 120 87 114 72 b 132 10 114 38 120 23 b 176 -8 144 -2 159 -8 b 221 10 194 -8 209 -2 b 239 56 233 23 239 38 z "},"/":{"ha":514,"x_min":0,"x_max":0,"o":"m 500 988 l 438 1010 l 14 -3 l 79 -24 z "},":":{"ha":408,"x_min":0,"x_max":0,"o":"m 267 589 b 249 633 267 606 261 620 b 204 653 237 646 222 653 b 160 633 187 653 172 646 b 142 589 148 620 142 606 b 160 545 142 572 148 558 b 204 526 172 533 187 526 b 249 545 222 526 237 533 b 267 589 261 558 267 572 z m 267 56 b 249 99 267 72 261 87 b 204 118 237 112 222 118 b 160 99 187 118 172 112 b 142 56 148 87 142 72 b 160 10 142 38 148 23 b 204 -8 172 -2 187 -8 b 249 10 222 -8 237 -2 b 267 56 261 23 267 38 z "},";":{"ha":408,"x_min":0,"x_max":0,"o":"m 267 589 b 249 633 267 606 261 620 b 204 653 237 646 222 653 b 160 633 187 653 172 646 b 142 589 148 620 142 606 b 160 545 142 572 148 558 b 204 526 172 533 187 526 b 249 545 222 526 237 533 b 267 589 261 558 267 572 z m 261 131 l 179 131 l 90 -193 l 156 -193 z "},"<":{"ha":925,"x_min":0,"x_max":0,"o":"m 807 774 l 118 449 l 118 393 l 807 68 l 807 136 l 201 421 l 807 706 z "},"=":{"ha":925,"x_min":0,"x_max":0,"o":"m 118 563 l 118 497 l 807 497 l 807 563 z m 118 346 l 118 279 l 807 279 l 807 346 z "},">":{"ha":925,"x_min":0,"x_max":0,"o":"m 118 706 l 724 421 l 118 136 l 118 68 l 807 393 l 807 449 l 118 774 z "},"?":{"ha":665,"x_min":0,"x_max":0,"o":"m 371 333 b 392 442 371 381 378 417 b 479 533 407 467 436 497 b 575 633 523 569 555 602 b 606 761 595 665 606 707 b 531 938 606 836 581 895 b 342 1003 481 981 418 1003 b 163 942 271 1003 212 982 b 68 774 113 901 82 845 l 143 760 b 208 885 151 812 173 853 b 339 933 242 917 286 933 b 473 886 393 933 437 918 b 526 757 509 855 526 812 b 505 665 526 721 519 690 b 442 592 491 640 469 616 l 400 556 b 320 463 365 525 338 494 b 293 350 302 431 293 394 l 293 269 l 371 269 z m 401 54 b 384 99 401 72 396 87 b 340 118 372 112 358 118 b 295 99 322 118 307 112 b 278 54 284 87 278 72 b 295 10 278 38 284 23 b 340 -8 307 -2 322 -8 b 384 10 358 -8 372 -2 b 401 54 396 23 401 38 z "},"@":{"ha":1111,"x_min":0,"x_max":0,"o":"m 581 697 b 671 657 622 697 652 684 b 699 556 689 630 699 596 b 680 444 699 520 692 483 b 615 336 667 404 646 369 b 506 288 584 304 547 288 b 416 331 465 288 435 302 b 388 432 397 360 388 394 b 441 614 388 498 405 558 b 581 697 477 669 523 697 z m 968 199 b 588 40 865 93 738 40 b 261 165 453 40 344 82 b 136 488 178 247 136 355 b 260 810 136 615 177 723 b 578 940 342 897 448 940 b 876 838 700 940 800 906 b 992 560 953 770 992 677 b 943 366 992 483 975 418 b 813 288 911 314 867 288 b 739 360 763 288 739 312 b 753 463 739 387 744 421 l 821 742 l 751 742 l 733 668 l 728 668 b 676 738 719 697 702 720 b 583 764 650 755 619 764 b 385 663 503 764 437 730 b 307 436 333 596 307 520 b 358 283 307 374 324 323 b 496 222 391 242 438 222 b 606 256 538 222 574 234 b 674 331 637 279 660 304 l 678 331 b 708 252 678 298 688 272 b 796 222 728 232 757 222 b 990 315 875 222 939 253 b 1067 567 1041 377 1067 461 b 925 890 1067 703 1019 811 b 579 1010 831 970 715 1010 b 207 860 433 1010 309 960 b 54 492 105 761 54 638 b 200 120 54 342 103 218 b 581 -26 297 22 424 -26 b 1010 149 758 -26 901 32 z "},"A":{"ha":958,"x_min":0,"x_max":0,"o":"m 215 265 l 742 265 l 853 0 l 940 0 l 522 983 l 443 983 l 17 0 l 104 0 z m 481 900 l 713 338 l 244 338 z "},"B":{"ha":874,"x_min":0,"x_max":0,"o":"m 136 0 l 431 0 b 684 70 534 0 619 23 b 782 269 749 117 782 183 b 715 443 782 342 760 400 b 553 518 671 487 617 512 l 553 521 b 684 597 606 533 650 558 b 735 738 718 635 735 682 b 708 857 735 784 726 824 b 633 933 690 890 665 916 b 534 972 602 951 569 964 b 421 983 499 979 462 983 l 136 983 z m 215 915 l 406 915 b 585 871 479 915 538 900 b 654 732 631 841 654 795 b 587 592 654 669 632 622 b 426 547 542 562 488 547 l 215 547 z m 215 481 l 439 481 b 629 428 518 481 581 463 b 701 272 677 394 701 342 b 624 118 701 203 675 151 b 422 68 572 85 505 68 l 215 68 z "},"C":{"ha":1001,"x_min":0,"x_max":0,"o":"m 896 189 b 594 44 818 93 718 44 b 285 174 467 44 364 88 b 168 492 207 261 168 367 b 285 809 168 617 207 722 b 594 939 364 896 467 939 b 756 904 653 939 707 927 b 875 814 806 881 845 851 l 932 867 b 790 972 897 912 850 947 b 593 1010 731 997 665 1010 b 229 863 447 1010 325 961 b 85 492 133 766 85 642 b 228 120 85 342 132 218 b 592 -26 323 22 444 -26 b 950 146 743 -26 862 31 z "},"D":{"ha":1057,"x_min":0,"x_max":0,"o":"m 136 0 l 447 0 b 641 31 515 0 579 10 b 808 120 703 51 758 81 b 928 276 858 159 898 211 b 972 492 957 340 972 412 b 928 708 972 571 957 643 b 808 863 898 772 858 824 b 641 953 758 903 703 932 b 447 983 579 973 515 983 l 136 983 z m 215 913 l 426 913 b 765 794 570 913 683 873 b 889 492 848 716 889 615 b 765 189 889 369 848 268 b 426 71 683 110 570 71 l 215 71 z "},"E":{"ha":821,"x_min":0,"x_max":0,"o":"m 214 476 l 701 476 l 701 546 l 214 546 l 214 913 l 735 913 l 735 983 l 136 983 l 136 0 l 753 0 l 753 71 l 214 71 z "},"F":{"ha":779,"x_min":0,"x_max":0,"o":"m 215 475 l 683 475 l 683 544 l 215 544 l 215 913 l 719 913 l 719 983 l 136 983 l 136 0 l 215 0 z "},"G":{"ha":1089,"x_min":0,"x_max":0,"o":"m 940 882 b 597 1010 853 967 739 1010 b 230 863 449 1010 327 961 b 85 493 133 766 85 642 b 229 121 85 343 133 219 b 599 -26 325 23 449 -26 b 961 67 737 -26 857 5 l 961 506 l 646 506 l 646 436 l 882 436 l 882 111 b 600 44 807 67 713 44 b 286 175 469 44 365 88 b 168 493 207 262 168 368 b 286 810 168 618 207 724 b 597 939 365 896 469 939 b 890 828 719 939 816 902 z "},"H":{"ha":1003,"x_min":0,"x_max":0,"o":"m 136 0 l 215 0 l 215 474 l 789 474 l 789 0 l 868 0 l 868 983 l 789 983 l 789 547 l 215 547 l 215 983 l 136 983 z "},"I":{"ha":350,"x_min":0,"x_max":0,"o":"m 215 983 l 136 983 l 136 0 l 215 0 z "},"J":{"ha":678,"x_min":0,"x_max":0,"o":"m 36 161 b 125 27 50 106 80 62 b 292 -25 170 -8 226 -25 b 416 1 340 -25 381 -16 b 497 74 451 19 478 43 b 538 170 516 104 529 136 b 550 279 546 204 550 240 l 550 983 l 471 983 l 471 285 b 283 44 471 125 408 44 b 172 83 240 44 203 57 b 110 182 142 108 121 141 z "},"K":{"ha":846,"x_min":0,"x_max":0,"o":"m 215 983 l 136 983 l 136 0 l 215 0 l 215 525 l 717 0 l 832 0 l 308 536 l 806 983 l 692 983 l 215 539 z "},"L":{"ha":703,"x_min":0,"x_max":0,"o":"m 215 983 l 136 983 l 136 0 l 682 0 l 682 71 l 215 71 z "},"M":{"ha":1239,"x_min":0,"x_max":0,"o":"m 136 0 l 215 0 l 215 882 l 218 882 l 597 0 l 642 0 l 1021 882 l 1024 882 l 1024 0 l 1103 0 l 1103 983 l 981 983 l 621 132 l 258 983 l 136 983 z "},"N":{"ha":1067,"x_min":0,"x_max":0,"o":"m 236 983 l 136 983 l 136 0 l 215 0 l 215 875 l 218 875 l 831 0 l 931 0 l 931 983 l 851 983 l 851 114 l 849 114 z "},"O":{"ha":1190,"x_min":0,"x_max":0,"o":"m 1106 492 b 960 863 1106 642 1057 766 b 594 1010 864 961 742 1010 b 230 863 448 1010 327 961 b 85 492 133 766 85 642 b 230 120 85 342 133 218 b 594 -26 327 22 448 -26 b 960 120 742 -26 864 22 b 1106 492 1057 218 1106 342 z m 1022 492 b 904 174 1022 367 983 261 b 594 44 825 88 722 44 b 286 174 468 44 365 88 b 168 492 207 261 168 367 b 286 809 168 617 207 722 b 594 939 365 896 468 939 b 903 809 721 939 824 896 b 1022 492 983 722 1022 617 z "},"P":{"ha":803,"x_min":0,"x_max":0,"o":"m 136 0 l 215 0 l 215 465 l 414 465 b 646 533 510 465 588 488 b 733 726 704 578 733 642 b 644 919 733 813 704 877 b 410 983 585 962 507 983 l 136 983 z m 215 915 l 408 915 b 588 869 483 915 543 900 b 654 726 632 838 654 790 b 588 581 654 663 632 614 b 410 532 544 548 485 532 l 215 532 z "},"Q":{"ha":1188,"x_min":0,"x_max":0,"o":"m 168 503 b 283 813 168 625 206 728 b 585 939 360 897 461 939 b 885 812 708 939 808 897 b 1001 503 963 727 1001 624 b 885 198 1001 385 963 284 b 585 69 808 112 708 69 b 283 196 461 69 360 112 b 168 503 206 280 168 382 z m 1146 71 l 818 71 l 818 74 b 1012 244 900 110 964 167 b 1083 503 1059 322 1083 408 b 941 865 1083 648 1036 769 b 585 1010 846 962 727 1010 b 227 866 441 1010 322 962 b 85 503 132 770 85 649 b 227 142 85 356 132 236 b 583 0 322 47 441 0 l 1146 0 z "},"R":{"ha":831,"x_min":0,"x_max":0,"o":"m 215 471 l 400 471 l 681 0 l 776 0 l 486 476 b 672 550 560 482 622 506 b 747 726 722 594 747 652 b 419 983 747 898 638 983 l 136 983 l 136 0 l 215 0 z m 215 915 l 407 915 b 668 726 581 915 668 852 b 601 587 668 665 646 619 b 408 539 556 555 492 539 l 215 539 z "},"S":{"ha":786,"x_min":0,"x_max":0,"o":"m 682 893 b 413 1010 623 971 533 1010 b 194 940 329 1010 256 987 b 101 743 132 894 101 828 b 130 622 101 696 111 655 b 203 542 149 588 173 561 b 304 493 234 523 267 507 b 415 453 341 479 378 466 b 515 411 451 441 484 427 b 588 347 545 395 569 374 b 617 247 607 319 617 286 b 547 98 617 184 593 134 b 383 43 500 61 445 43 b 142 164 291 43 210 83 l 86 115 b 383 -26 158 21 257 -26 b 604 46 469 -26 542 -2 b 697 251 666 94 697 163 b 669 374 697 299 688 339 b 594 453 650 408 625 434 b 494 503 564 472 530 489 b 384 542 457 517 421 530 b 283 582 347 554 314 567 b 209 644 253 597 228 618 b 181 743 190 671 181 704 b 250 890 181 806 204 855 b 408 942 296 924 349 942 b 625 842 498 942 570 908 z "},"T":{"ha":779,"x_min":0,"x_max":0,"o":"m 429 913 l 760 913 l 760 983 l 19 983 l 19 913 l 350 913 l 350 0 l 429 0 z "},"U":{"ha":996,"x_min":0,"x_max":0,"o":"m 497 -26 b 677 9 567 -26 627 -15 b 792 104 728 33 766 64 b 850 229 819 144 838 186 b 868 368 862 273 868 319 l 868 983 l 789 983 l 789 378 b 775 258 789 335 784 295 b 729 152 766 220 750 185 b 638 74 708 119 678 93 b 497 44 599 54 552 44 b 379 65 453 44 413 51 b 296 117 345 78 317 95 b 243 193 275 138 257 163 b 215 283 229 223 220 253 b 207 378 209 313 207 344 l 207 983 l 128 983 l 128 368 b 146 229 128 319 134 273 b 203 104 158 186 177 144 b 319 9 230 64 268 33 b 497 -26 369 -15 429 -26 z "},"V":{"ha":858,"x_min":0,"x_max":0,"o":"m 96 983 l 10 983 l 383 0 l 472 0 l 847 983 l 763 983 l 431 99 l 428 99 z "},"W":{"ha":1343,"x_min":0,"x_max":0,"o":"m 108 983 l 25 983 l 317 0 l 413 0 l 669 878 l 672 878 l 931 0 l 1026 0 l 1318 983 l 1235 983 l 982 104 l 978 104 l 721 983 l 622 983 l 367 104 l 364 104 z "},"X":{"ha":876,"x_min":0,"x_max":0,"o":"m 132 0 l 438 454 l 744 0 l 843 0 l 483 518 l 804 983 l 711 983 l 439 578 l 164 983 l 65 983 l 390 517 l 33 0 z "},"Y":{"ha":810,"x_min":0,"x_max":0,"o":"m 444 425 l 803 983 l 711 983 l 407 493 l 104 983 l 6 983 l 365 425 l 365 0 l 444 0 z "},"Z":{"ha":804,"x_min":0,"x_max":0,"o":"m 744 983 l 68 983 l 68 913 l 649 913 l 53 69 l 53 0 l 756 0 l 756 71 l 150 71 l 744 913 z "},"[":{"ha":417,"x_min":0,"x_max":0,"o":"m 306 1017 l 90 1017 l 90 -217 l 306 -217 l 306 -156 l 163 -156 l 163 956 l 306 956 z "},"\\":{"ha":514,"x_min":0,"x_max":0,"o":"m 436 -24 l 500 -3 l 78 1010 l 14 988 z "},"]":{"ha":417,"x_min":0,"x_max":0,"o":"m 111 -217 l 326 -217 l 326 1017 l 111 1017 l 111 956 l 254 956 l 254 -156 l 111 -156 z "},"^":{"ha":925,"x_min":0,"x_max":0,"o":"m 118 368 l 188 368 l 463 908 l 738 368 l 807 368 l 490 983 l 435 983 z "},"_":{"ha":694,"x_min":0,"x_max":0,"o":"m 0 -169 l 694 -169 l 694 -112 l 0 -112 z "},"`":{"ha":333,"x_min":0,"x_max":0,"o":"m 174 783 l 239 783 l 99 983 l -1 983 z "},"a":{"ha":732,"x_min":0,"x_max":0,"o":"m 303 -18 b 540 119 410 -18 489 28 l 543 119 b 554 0 543 84 547 44 l 622 0 b 611 146 615 39 611 88 l 611 429 b 543 604 611 506 588 564 b 363 664 498 644 438 664 b 121 575 263 664 182 634 l 163 525 b 356 601 215 576 280 601 b 539 421 478 601 539 541 l 539 392 l 474 392 b 329 383 419 392 371 389 b 206 353 288 378 247 368 b 113 287 166 339 135 317 b 81 175 91 257 81 219 b 149 31 81 111 103 63 b 303 -18 194 -2 245 -18 z m 321 44 b 206 77 276 44 238 55 b 158 179 174 99 158 133 b 490 332 158 281 269 332 l 539 332 l 539 279 b 483 113 539 214 520 159 b 321 44 445 67 391 44 z "},"b":{"ha":881,"x_min":0,"x_max":0,"o":"m 211 128 b 321 20 237 81 274 46 b 469 -18 368 -5 418 -18 b 708 79 567 -18 646 14 b 800 324 769 144 800 225 b 708 567 800 422 769 503 b 469 664 647 632 568 664 b 322 625 418 664 368 651 b 211 515 275 599 238 563 l 207 515 l 207 1050 l 132 1050 l 132 0 l 207 0 l 207 128 z m 721 324 b 651 126 721 245 697 179 b 463 47 604 74 541 47 b 274 126 387 47 324 74 b 199 324 224 179 199 245 b 274 522 199 402 224 468 b 463 601 324 575 387 601 b 651 522 541 601 604 575 b 721 324 697 468 721 402 z "},"c":{"ha":686,"x_min":0,"x_max":0,"o":"m 647 563 b 417 664 594 630 517 664 b 176 568 319 664 238 632 b 82 324 113 504 82 423 b 174 78 82 224 113 142 b 415 -18 235 14 315 -18 b 651 85 513 -18 592 16 l 604 128 b 415 50 554 76 491 50 b 231 128 339 50 278 76 b 160 324 183 180 160 245 b 231 520 160 402 184 468 b 418 599 279 572 341 599 b 519 576 453 599 487 591 b 597 517 552 562 578 542 z "},"d":{"ha":881,"x_min":0,"x_max":0,"o":"m 669 128 l 672 128 l 672 0 l 749 0 l 749 1050 l 672 1050 l 672 515 l 669 515 b 559 625 643 563 606 599 b 411 664 512 651 463 664 b 173 567 314 664 234 631 b 81 324 111 502 81 421 b 173 79 81 225 111 144 b 411 -18 234 14 314 -18 b 559 20 463 -18 512 -5 b 669 128 606 46 643 81 z m 160 324 b 230 522 160 402 183 468 b 418 601 277 575 339 601 b 606 522 494 601 557 575 b 681 324 656 468 681 402 b 606 126 681 245 656 179 b 418 47 557 74 494 47 b 230 126 339 47 277 74 b 160 324 183 179 160 245 z "},"e":{"ha":788,"x_min":0,"x_max":0,"o":"m 160 368 b 231 528 163 426 186 480 b 400 601 275 577 331 601 b 566 537 469 601 525 580 b 632 368 607 494 629 438 z m 408 -18 b 683 117 522 -18 614 27 l 633 157 b 411 47 571 84 497 47 b 231 124 337 47 277 73 b 158 308 184 176 160 237 l 707 308 l 707 347 b 627 573 707 437 680 512 b 401 664 574 634 499 664 b 173 567 311 664 234 632 b 81 325 111 503 81 422 b 174 79 81 226 112 144 b 408 -18 236 14 314 -18 z "},"f":{"ha":404,"x_min":0,"x_max":0,"o":"m 392 647 l 233 647 l 233 832 b 360 1001 233 945 275 1001 b 422 994 385 1001 406 999 l 435 1057 b 361 1067 415 1063 391 1067 b 211 1009 297 1067 247 1047 b 157 840 175 971 157 914 l 157 647 l 22 647 l 22 583 l 157 583 l 157 0 l 233 0 l 233 583 l 392 583 z "},"g":{"ha":875,"x_min":0,"x_max":0,"o":"m 103 -210 b 407 -337 182 -295 284 -337 b 574 -306 472 -337 528 -327 b 681 -221 621 -285 656 -257 b 733 -109 705 -185 722 -147 b 749 15 743 -71 749 -29 l 749 647 l 672 647 l 672 515 l 669 515 b 560 625 644 563 607 599 b 411 664 514 651 464 664 b 173 567 314 664 234 631 b 81 326 111 502 81 422 b 172 88 81 230 111 151 b 411 -6 233 26 313 -6 b 562 33 464 -6 514 7 b 669 142 609 59 645 95 l 672 142 l 672 15 b 610 -191 672 -69 651 -138 b 410 -271 568 -244 501 -271 b 151 -158 308 -271 222 -233 z m 160 329 b 230 522 160 405 183 469 b 418 601 277 575 339 601 b 606 521 493 601 556 575 b 681 329 656 467 681 403 b 606 135 681 251 656 187 b 418 58 557 84 494 58 b 230 137 339 58 277 84 b 160 329 183 189 160 253 z "},"h":{"ha":804,"x_min":0,"x_max":0,"o":"m 207 521 l 207 1050 l 132 1050 l 132 0 l 207 0 l 207 329 b 269 529 207 415 228 482 b 421 600 311 576 362 600 b 606 367 544 600 606 522 l 606 0 l 681 0 l 681 394 b 620 590 681 475 660 540 b 438 664 580 639 519 664 b 303 627 388 664 344 652 b 210 521 262 603 231 567 z "},"i":{"ha":338,"x_min":0,"x_max":0,"o":"m 207 647 l 131 647 l 131 0 l 207 0 z m 225 904 b 208 944 225 920 219 933 b 168 961 196 956 183 961 b 129 944 153 961 140 956 b 113 904 118 933 113 920 b 129 864 113 888 118 875 b 168 847 140 853 153 847 b 208 864 183 847 196 853 b 225 904 219 875 225 888 z "},"j":{"ha":339,"x_min":0,"x_max":0,"o":"m -33 -325 b 32 -333 -18 -331 4 -333 b 168 -279 97 -333 142 -315 b 207 -131 194 -243 207 -194 l 207 647 l 132 647 l 132 -121 b 112 -231 132 -169 125 -206 b 31 -269 98 -257 71 -269 b -22 -262 14 -269 -4 -267 z m 226 904 b 209 944 226 920 221 933 b 169 961 197 956 184 961 b 131 944 155 961 142 956 b 114 904 119 933 114 920 b 131 864 114 888 119 875 b 169 847 142 853 155 847 b 209 864 184 847 197 853 b 226 904 221 875 226 888 z "},"k":{"ha":682,"x_min":0,"x_max":0,"o":"m 207 1050 l 132 1050 l 132 0 l 207 0 l 207 340 l 211 340 l 551 0 l 663 0 l 297 350 l 628 647 l 519 647 l 211 353 l 207 353 z "},"l":{"ha":339,"x_min":0,"x_max":0,"o":"m 207 1050 l 132 1050 l 132 0 l 207 0 z "},"m":{"ha":1229,"x_min":0,"x_max":0,"o":"m 131 0 l 207 0 l 207 329 b 267 529 207 414 227 481 b 411 601 308 577 356 601 b 576 381 521 601 576 528 l 576 0 l 653 0 l 653 338 b 705 526 653 413 670 476 b 854 601 740 576 789 601 b 988 537 915 601 960 580 b 1031 367 1016 494 1031 437 l 1031 0 l 1106 0 l 1106 394 b 1045 590 1106 475 1085 540 b 865 664 1005 639 945 664 b 725 624 812 664 765 650 b 633 510 685 597 655 559 l 631 510 b 424 664 596 613 527 664 b 294 624 377 664 334 651 b 206 518 253 598 224 563 l 203 518 b 197 647 203 556 201 599 l 125 647 b 131 499 129 609 131 560 z "},"n":{"ha":803,"x_min":0,"x_max":0,"o":"m 125 647 b 131 499 129 609 131 560 l 131 0 l 207 0 l 207 329 b 269 529 207 415 228 482 b 421 600 310 576 361 600 b 604 367 543 600 604 522 l 604 0 l 679 0 l 679 394 b 619 590 679 476 659 541 b 438 664 578 639 518 664 b 299 624 388 664 342 650 b 206 518 255 597 224 562 l 203 518 b 197 647 203 556 201 599 z "},"o":{"ha":846,"x_min":0,"x_max":0,"o":"m 764 324 b 668 568 764 423 732 504 b 422 664 604 632 522 664 b 177 568 322 664 241 632 b 82 324 114 504 82 423 b 178 79 82 225 114 144 b 422 -18 242 14 323 -18 b 668 79 522 -18 604 14 b 764 324 732 144 764 225 z m 686 324 b 614 128 686 245 662 180 b 422 50 566 76 502 50 b 232 128 344 50 280 76 b 160 324 184 180 160 245 b 232 520 160 402 184 468 b 422 599 280 572 344 599 b 614 520 502 599 566 572 b 686 324 662 468 686 402 z "},"p":{"ha":878,"x_min":0,"x_max":0,"o":"m 206 125 l 210 125 b 318 19 235 79 271 43 b 469 -18 365 -6 416 -18 b 708 79 568 -18 647 14 b 799 324 768 144 799 225 b 706 567 799 422 768 503 b 467 664 645 632 565 664 b 319 627 414 664 365 652 b 210 518 273 603 237 566 l 206 518 l 206 647 l 131 647 l 131 -333 l 206 -333 z m 718 324 b 648 126 718 245 695 179 b 460 47 601 74 538 47 b 273 126 385 47 322 74 b 199 324 223 179 199 245 b 273 522 199 402 223 468 b 460 601 322 575 385 601 b 648 522 538 601 601 575 b 718 324 695 468 718 402 z "},"q":{"ha":878,"x_min":0,"x_max":0,"o":"m 672 128 l 672 -333 l 749 -333 l 749 647 l 672 647 l 672 515 l 668 515 b 559 625 642 563 606 599 b 411 664 512 651 463 664 b 172 567 313 664 233 632 b 81 324 111 503 81 422 b 173 79 81 225 111 144 b 411 -18 234 14 314 -18 b 560 21 463 -18 513 -5 b 668 128 607 47 643 82 z m 160 324 b 230 522 160 402 183 468 b 418 601 277 575 339 601 b 605 522 493 601 555 575 b 679 324 654 468 679 402 b 605 126 679 245 654 179 b 418 47 555 74 493 47 b 230 126 339 47 277 74 b 160 324 183 179 160 245 z "},"r":{"ha":482,"x_min":0,"x_max":0,"o":"m 131 499 l 131 0 l 207 0 l 207 332 b 263 524 207 413 225 476 b 408 594 300 571 348 594 b 461 589 431 594 448 593 l 469 658 b 418 664 458 662 441 664 b 290 625 371 664 328 651 b 206 518 251 599 223 563 l 203 518 b 197 647 203 556 201 599 l 125 647 b 131 499 129 609 131 560 z "},"s":{"ha":604,"x_min":0,"x_max":0,"o":"m 526 554 b 438 635 506 589 477 616 b 308 664 400 654 356 664 b 152 618 247 664 195 649 b 88 483 109 588 88 543 b 126 376 88 439 100 403 b 221 320 152 350 184 331 b 331 291 258 309 295 300 b 425 250 368 282 399 269 b 464 174 451 231 464 206 b 417 78 464 131 448 99 b 304 47 386 58 349 47 b 197 75 265 47 229 56 b 118 147 164 94 138 118 l 58 104 b 304 -17 113 24 195 -17 b 470 33 369 -17 424 0 b 539 179 516 66 539 114 b 485 299 539 230 521 270 b 322 365 449 327 394 350 b 197 410 264 378 222 393 b 160 489 172 428 160 454 b 203 573 160 526 174 554 b 306 601 233 592 267 601 b 468 513 379 601 433 572 z "},"t":{"ha":435,"x_min":0,"x_max":0,"o":"m 408 647 l 224 647 l 224 832 l 147 832 l 147 647 l 13 647 l 13 583 l 149 583 l 149 156 b 194 28 149 97 164 55 b 307 -11 224 2 262 -11 b 410 7 342 -11 376 -5 l 406 72 b 326 54 380 60 353 54 b 250 81 293 54 268 63 b 224 174 232 99 224 130 l 224 583 l 408 583 z "},"u":{"ha":803,"x_min":0,"x_max":0,"o":"m 678 0 b 671 149 673 46 671 96 l 671 647 l 596 647 l 596 318 b 533 117 596 232 575 165 b 382 46 492 70 441 46 b 199 281 260 46 199 124 l 199 647 l 122 647 l 122 251 b 183 56 122 171 142 106 b 365 -18 223 7 284 -18 b 504 22 414 -18 461 -5 b 596 128 548 49 578 84 l 599 128 b 604 0 599 89 600 46 z "},"v":{"ha":656,"x_min":0,"x_max":0,"o":"m 629 647 l 549 647 l 332 79 l 329 79 l 110 647 l 25 647 l 286 0 l 372 0 z "},"w":{"ha":1017,"x_min":0,"x_max":0,"o":"m 39 647 l 239 0 l 324 0 l 506 550 l 508 550 l 692 0 l 776 0 l 976 647 l 897 647 l 736 94 l 733 94 l 546 647 l 469 647 l 285 94 l 282 94 l 119 647 z "},"x":{"ha":658,"x_min":0,"x_max":0,"o":"m 28 0 l 118 0 l 328 285 l 533 0 l 632 0 l 374 339 l 606 647 l 514 647 l 329 389 l 144 647 l 47 647 l 282 336 z "},"y":{"ha":653,"x_min":0,"x_max":0,"o":"m 117 -335 b 232 -296 165 -335 203 -322 b 306 -181 261 -270 285 -231 l 628 647 l 546 647 l 338 79 l 335 76 l 110 647 l 25 647 l 296 -4 l 240 -150 b 190 -238 225 -189 209 -218 b 114 -268 171 -258 145 -268 b 50 -257 91 -268 69 -264 l 40 -325 b 117 -335 68 -331 94 -335 z "},"z":{"ha":613,"x_min":0,"x_max":0,"o":"m 546 647 l 71 647 l 71 583 l 449 583 l 50 56 l 50 0 l 561 0 l 561 65 l 149 65 l 546 590 z "},"{":{"ha":417,"x_min":0,"x_max":0,"o":"m 0 367 b 108 211 72 367 108 315 l 108 -43 b 150 -176 108 -104 122 -148 b 258 -217 178 -203 214 -217 l 339 -217 l 339 -156 l 272 -156 b 182 -32 212 -156 182 -114 l 182 224 b 145 351 182 281 170 324 b 68 399 121 379 95 395 l 68 401 b 145 449 95 405 121 421 b 182 576 170 476 182 519 l 182 832 b 272 956 182 914 212 956 l 339 956 l 339 1017 l 258 1017 b 150 976 214 1017 178 1003 b 108 843 122 948 108 904 l 108 589 b 0 433 108 485 72 433 z "},"|":{"ha":308,"x_min":0,"x_max":0,"o":"m 121 1042 l 121 -347 l 188 -347 l 188 1042 z "},"}":{"ha":417,"x_min":0,"x_max":0,"o":"m 417 433 b 308 589 344 433 308 485 l 308 843 b 267 976 308 904 294 948 b 158 1017 239 1003 203 1017 l 78 1017 l 78 956 l 144 956 b 235 832 205 956 235 914 l 235 576 b 272 449 235 519 247 476 b 349 401 296 421 322 405 l 349 399 b 272 351 322 395 296 379 b 235 224 247 324 235 281 l 235 -32 b 144 -156 235 -114 205 -156 l 78 -156 l 78 -217 l 158 -217 b 267 -176 203 -217 239 -203 b 308 -43 294 -148 308 -104 l 308 211 b 417 367 308 315 344 367 z "},"~":{"ha":925,"x_min":0,"x_max":0,"o":"m 753 507 b 611 400 710 436 663 400 b 461 461 572 400 522 420 b 313 510 413 494 363 510 b 125 381 245 510 182 467 l 174 336 b 315 442 212 406 259 442 b 381 429 338 442 360 438 b 464 382 401 421 429 405 b 614 333 512 350 562 333 b 800 461 684 333 746 376 z "}," ":{"ha":347,"x_min":0,"x_max":0,"o":""},"¡":{"ha":433,"x_min":0,"x_max":0,"o":"m 257 400 l 178 400 l 178 -315 l 257 -315 z m 279 614 b 261 658 279 631 273 645 b 217 676 249 670 234 676 b 172 658 199 676 184 670 b 154 614 160 645 154 631 b 172 569 154 596 160 581 b 217 550 184 556 199 550 b 261 569 234 550 249 556 b 279 614 273 581 279 596 z "},"¢":{"ha":797,"x_min":0,"x_max":0,"o":"m 472 -100 l 472 -18 b 692 85 563 -14 636 20 l 644 128 b 472 50 598 80 541 54 l 472 599 b 638 517 543 594 598 567 l 688 563 b 472 664 637 625 565 659 l 472 750 l 411 750 l 411 661 b 202 553 325 652 255 616 b 122 324 149 491 122 414 b 201 92 122 231 148 154 b 411 -15 253 30 323 -6 l 411 -100 z m 200 324 b 257 503 200 393 219 453 b 411 594 295 553 346 583 l 411 53 b 258 143 347 63 296 93 b 200 324 219 193 200 253 z "},"£":{"ha":797,"x_min":0,"x_max":0,"o":"m 563 542 l 328 542 l 328 682 b 342 801 328 725 333 765 b 404 897 352 836 373 869 b 528 940 436 926 477 940 b 679 876 589 940 639 919 l 728 932 b 531 1008 677 983 611 1008 b 317 917 434 1008 363 978 b 249 689 272 857 249 781 l 249 542 l 115 542 l 115 475 l 249 475 l 249 67 l 104 67 l 104 0 l 690 0 l 690 67 l 328 67 l 328 475 l 563 475 z "},"€":{"ha":797,"x_min":0,"x_max":0,"o":"m 708 897 l 736 964 b 532 1010 680 994 612 1010 b 271 913 431 1010 344 978 b 124 642 198 849 149 758 l 44 642 l 22 579 l 115 579 b 110 483 112 548 110 516 b 114 403 110 469 111 442 l 43 403 l 21 340 l 121 340 b 251 80 138 238 181 151 b 515 -26 322 9 410 -26 b 754 39 614 -26 694 -5 l 721 101 b 526 44 668 63 603 44 b 315 125 445 44 374 71 b 203 340 255 179 218 250 l 544 340 l 565 403 l 196 403 b 190 485 192 432 190 460 b 197 579 190 517 193 549 l 618 579 l 639 642 l 207 642 b 322 860 227 735 266 808 b 528 939 378 913 446 939 b 708 897 599 939 659 925 z "},"¥":{"ha":797,"x_min":0,"x_max":0,"o":"m 121 310 l 121 249 l 361 249 l 361 0 l 436 0 l 436 249 l 676 249 l 676 310 l 436 310 l 436 467 l 676 467 l 676 526 l 463 526 l 776 983 l 682 983 l 401 554 l 118 983 l 21 983 l 338 526 l 121 526 l 121 467 l 361 467 l 361 310 z "},"Š":{"ha":786,"x_min":0,"x_max":0,"o":"m 682 893 b 413 1010 623 971 533 1010 b 194 940 329 1010 256 987 b 101 743 132 894 101 828 b 130 622 101 696 111 655 b 203 542 149 588 173 561 b 304 493 234 523 267 507 b 415 453 341 479 378 466 b 515 411 451 441 484 427 b 588 347 545 395 569 374 b 617 247 607 319 617 286 b 547 98 617 184 593 134 b 383 43 500 61 445 43 b 142 164 291 43 210 83 l 86 115 b 383 -26 158 21 257 -26 b 604 46 469 -26 542 -2 b 697 251 666 94 697 163 b 669 374 697 299 688 339 b 594 453 650 408 625 434 b 494 503 564 472 530 489 b 384 542 457 517 421 530 b 283 582 347 554 314 567 b 209 644 253 597 228 618 b 181 743 190 671 181 704 b 250 890 181 806 204 855 b 408 942 296 924 349 942 b 625 842 498 942 570 908 z m 594 1261 l 521 1261 l 401 1101 l 282 1261 l 208 1261 l 357 1061 l 446 1061 z "},"§":{"ha":797,"x_min":0,"x_max":0,"o":"m 646 892 b 563 977 629 927 602 955 b 424 1010 525 999 478 1010 b 247 953 354 1010 295 991 b 175 794 199 916 175 863 b 208 689 175 750 186 715 b 293 622 229 663 258 641 b 182 554 249 609 212 587 b 138 436 152 522 138 482 b 175 319 138 386 150 347 b 286 244 200 292 237 267 l 425 178 b 554 29 511 141 554 91 b 501 -82 554 -21 537 -58 b 379 -118 466 -106 425 -118 b 188 -7 286 -118 222 -81 l 117 -44 b 220 -149 140 -91 174 -126 b 378 -185 266 -173 319 -185 b 560 -128 450 -185 511 -166 b 633 36 609 -90 633 -35 b 519 213 633 113 595 172 b 622 278 560 224 594 245 b 663 397 649 310 663 350 b 621 515 663 445 649 485 b 501 597 593 546 553 573 l 404 643 b 347 669 380 653 361 662 b 301 698 333 676 318 685 b 265 742 285 710 273 725 b 254 801 258 759 254 779 b 301 906 254 846 270 881 b 421 943 333 931 373 943 b 582 856 500 943 553 914 z m 435 547 b 547 482 485 526 522 504 b 585 388 572 460 585 428 b 547 292 585 348 572 316 b 456 249 521 269 491 254 l 374 285 b 253 349 318 307 278 328 b 215 439 228 370 215 400 b 259 538 215 481 230 515 b 358 579 288 562 321 575 z "},"š":{"ha":604,"x_min":0,"x_max":0,"o":"m 526 554 b 438 635 506 589 477 616 b 308 664 400 654 356 664 b 152 618 247 664 195 649 b 88 483 109 588 88 543 b 126 376 88 439 100 403 b 221 320 152 350 184 331 b 331 291 258 309 295 300 b 425 250 368 282 399 269 b 464 174 451 231 464 206 b 417 78 464 131 448 99 b 304 47 386 58 349 47 b 197 75 265 47 229 56 b 118 147 164 94 138 118 l 58 104 b 304 -17 113 24 195 -17 b 470 33 369 -17 424 0 b 539 179 516 66 539 114 b 485 299 539 230 521 270 b 322 365 449 327 394 350 b 197 410 264 378 222 393 b 160 489 172 428 160 454 b 203 573 160 526 174 554 b 306 601 233 592 267 601 b 468 513 379 601 433 572 z m 506 983 l 432 983 l 313 824 l 193 983 l 119 983 l 268 783 l 357 783 z "},"©":{"ha":1111,"x_min":0,"x_max":0,"o":"m 739 332 b 572 249 696 276 641 249 b 403 321 502 249 445 273 b 339 496 360 369 339 427 b 404 669 339 563 361 621 b 574 742 448 718 504 742 b 662 719 604 742 634 734 b 729 663 690 703 713 685 l 788 707 b 694 781 764 738 733 763 b 572 808 656 799 615 808 b 351 719 483 808 409 779 b 263 496 292 660 263 586 b 351 271 263 405 292 330 b 572 182 409 212 483 182 b 701 213 619 182 663 192 b 796 293 740 233 772 260 z m 28 490 b 183 122 28 346 79 223 b 557 -31 286 20 411 -31 b 929 122 702 -31 826 20 b 1083 490 1032 223 1083 346 b 929 861 1083 636 1032 759 b 557 1014 826 963 702 1014 b 183 861 411 1014 286 963 b 28 490 79 759 28 636 z m 96 490 b 231 815 96 617 141 725 b 557 950 322 905 430 950 b 881 815 684 950 792 905 b 1015 490 971 725 1015 617 b 881 167 1015 364 971 257 b 557 33 792 78 684 33 b 231 167 430 33 322 78 b 96 490 141 257 96 364 z "},"ª":{"ha":496,"x_min":0,"x_max":0,"o":"m 349 840 b 242 836 307 840 272 839 b 153 819 213 833 183 828 b 83 779 122 811 99 798 b 60 708 68 761 60 737 b 103 618 60 668 74 638 b 203 589 131 599 165 589 b 347 665 269 589 317 614 l 350 665 b 357 599 350 641 352 619 l 415 599 b 410 679 412 617 410 644 l 410 850 b 367 959 410 895 396 932 b 244 1000 339 986 298 1000 b 82 943 177 1000 123 981 l 118 901 b 240 949 150 933 190 949 b 319 924 274 949 300 941 b 349 853 339 908 349 884 z m 349 794 l 349 768 b 313 676 349 731 337 700 b 218 640 290 652 258 640 b 125 710 156 640 125 663 b 328 794 125 766 193 794 z "},"«":{"ha":669,"x_min":0,"x_max":0,"o":"m 324 581 l 272 617 l 85 332 l 272 47 l 325 83 l 165 332 z m 571 581 l 518 617 l 331 332 l 518 47 l 571 83 l 411 332 z "},"¬":{"ha":925,"x_min":0,"x_max":0,"o":"m 811 563 l 115 563 l 115 497 l 743 497 l 743 182 l 811 182 z "},"­":{"ha":436,"x_min":0,"x_max":0,"o":"m 364 374 l 72 374 l 72 310 l 364 310 z "},"®":{"ha":833,"x_min":0,"x_max":0,"o":"m 100 685 b 192 463 100 598 131 524 b 417 372 254 403 329 372 b 641 463 505 372 579 403 b 733 685 703 524 733 598 b 641 908 733 772 703 846 b 417 1000 579 969 505 1000 b 192 908 329 1000 254 969 b 100 685 131 846 100 772 z m 144 685 b 224 877 144 760 171 824 b 417 957 278 930 342 957 b 609 877 492 957 556 930 b 689 685 662 824 689 760 b 609 493 689 611 662 547 b 417 413 556 439 492 413 b 224 493 342 413 278 439 b 144 685 171 547 144 611 z m 299 510 l 351 510 l 351 660 l 407 660 l 496 510 l 561 510 l 463 667 b 524 698 488 671 508 682 b 547 761 539 714 547 735 b 512 839 547 796 535 822 b 421 864 488 856 458 864 l 299 864 z m 351 703 l 351 818 l 419 818 b 494 763 469 818 494 800 b 408 703 494 723 466 703 z "},"¯":{"ha":333,"x_min":0,"x_max":0,"o":"m 346 903 l -12 903 l -12 842 l 346 842 z "},"°":{"ha":556,"x_min":0,"x_max":0,"o":"m 483 793 b 424 940 483 851 464 900 b 278 999 385 979 336 999 b 131 940 219 999 171 979 b 72 793 92 900 72 851 b 131 647 72 735 92 686 b 278 588 171 607 219 588 b 424 647 336 588 385 607 b 483 793 464 686 483 735 z m 428 793 b 384 687 428 751 413 716 b 278 643 355 658 319 643 b 172 687 236 643 201 658 b 128 793 142 716 128 751 b 172 899 128 835 142 870 b 278 943 201 928 236 943 b 384 899 319 943 355 928 b 428 793 413 870 428 835 z "},"±":{"ha":925,"x_min":0,"x_max":0,"o":"m 115 481 l 428 481 l 428 253 l 496 253 l 496 481 l 811 481 l 811 547 l 494 547 l 494 781 l 428 781 l 428 547 l 115 547 z m 117 67 l 808 67 l 808 133 l 117 133 z "},"²":{"ha":506,"x_min":0,"x_max":0,"o":"m 435 689 l 144 689 l 328 878 b 407 974 364 915 390 947 b 432 1068 424 1000 432 1032 b 383 1183 432 1116 416 1154 b 257 1225 350 1211 308 1225 b 140 1185 213 1225 174 1212 b 76 1076 107 1158 86 1122 l 142 1065 b 183 1138 149 1097 163 1121 b 257 1164 204 1155 228 1164 b 332 1138 288 1164 313 1155 b 361 1065 351 1120 361 1096 b 289 926 360 1021 336 975 l 63 692 l 63 628 l 435 628 z "},"³":{"ha":506,"x_min":0,"x_max":0,"o":"m 242 617 b 376 663 295 617 340 632 b 429 790 411 693 429 736 b 318 936 429 866 392 915 l 322 939 b 411 1069 381 962 411 1006 b 365 1184 411 1119 396 1157 b 243 1225 334 1211 293 1225 b 78 1129 171 1225 116 1193 l 132 1100 b 240 1167 157 1144 193 1167 b 315 1140 270 1167 295 1158 b 346 1069 336 1122 346 1098 b 312 990 346 1035 334 1009 b 219 961 289 971 258 961 l 186 961 l 186 904 l 219 904 b 321 876 259 904 293 895 b 363 792 349 858 363 830 b 328 707 363 756 351 727 b 242 676 306 687 277 676 b 167 699 215 676 190 684 b 117 761 145 713 128 734 l 54 739 b 242 617 89 657 152 617 z "},"Ž":{"ha":804,"x_min":0,"x_max":0,"o":"m 744 983 l 68 983 l 68 913 l 649 913 l 53 69 l 53 0 l 756 0 l 756 71 l 150 71 l 744 913 z m 597 1261 l 524 1261 l 404 1101 l 285 1261 l 211 1261 l 360 1061 l 449 1061 z "},"µ":{"ha":772,"x_min":0,"x_max":0,"o":"m 110 -317 l 182 -317 l 182 46 b 350 -18 222 3 278 -18 b 483 22 396 -18 441 -5 b 578 124 526 49 557 83 l 581 124 l 581 0 l 660 0 b 654 149 656 59 654 109 l 654 647 l 581 647 l 581 318 b 520 121 581 235 560 169 b 367 49 480 73 429 49 b 224 107 299 49 251 68 b 182 281 196 146 182 204 l 182 647 l 110 647 z "},"¶":{"ha":833,"x_min":0,"x_max":0,"o":"m 703 983 l 393 983 b 162 910 295 983 218 959 b 78 704 106 861 78 792 b 160 522 78 632 105 571 b 371 449 216 473 286 449 l 371 -175 l 444 -175 l 444 924 l 629 924 l 629 -175 l 703 -175 z "},"·":{"ha":353,"x_min":0,"x_max":0,"o":"m 239 411 b 221 456 239 428 233 443 b 176 475 209 469 194 475 b 132 456 159 475 144 469 b 114 411 120 443 114 428 b 132 367 114 394 120 380 b 176 349 144 355 159 349 b 221 367 194 349 209 355 b 239 411 233 380 239 394 z "},"ž":{"ha":613,"x_min":0,"x_max":0,"o":"m 546 647 l 71 647 l 71 583 l 449 583 l 50 56 l 50 0 l 561 0 l 561 65 l 149 65 l 546 590 z m 504 983 l 431 983 l 311 824 l 192 983 l 118 983 l 267 783 l 356 783 z "},"¹":{"ha":506,"x_min":0,"x_max":0,"o":"m 306 1213 l 247 1213 l 93 1094 l 135 1047 l 236 1129 l 236 628 l 306 628 z "},"º":{"ha":496,"x_min":0,"x_max":0,"o":"m 456 794 b 397 942 456 855 436 904 b 249 1000 358 981 309 1000 b 99 942 188 1000 139 981 b 40 794 60 904 40 855 b 99 647 40 735 60 686 b 249 589 139 608 188 589 b 397 647 309 589 358 608 b 456 794 436 686 456 735 z m 390 794 b 352 685 390 751 378 714 b 249 640 327 655 292 640 b 144 685 204 640 169 655 b 106 794 118 714 106 751 b 144 904 106 838 118 875 b 249 949 169 934 204 949 b 353 904 293 949 328 934 b 390 794 378 875 390 838 z "},"»":{"ha":669,"x_min":0,"x_max":0,"o":"m 344 83 l 397 47 l 585 332 l 397 618 l 344 581 l 504 332 z m 99 83 l 151 47 l 339 332 l 151 618 l 99 581 l 258 332 z "},"Œ":{"ha":1372,"x_min":0,"x_max":0,"o":"m 624 983 b 430 953 556 983 491 973 b 263 863 368 932 313 903 b 143 708 213 824 173 772 b 99 492 113 643 99 571 b 143 276 99 412 113 340 b 263 120 173 211 213 159 b 430 31 313 81 368 51 b 624 0 491 10 556 0 l 1303 0 l 1303 71 l 814 71 l 814 476 l 1253 476 l 1253 546 l 814 546 l 814 913 l 1285 913 l 1285 983 z m 644 913 l 735 913 l 735 71 l 644 71 b 306 189 501 71 388 110 b 182 492 223 268 182 369 b 306 794 182 615 223 716 b 644 913 389 873 502 913 z "},"œ":{"ha":1388,"x_min":0,"x_max":0,"o":"m 421 -18 b 602 30 489 -18 550 -2 b 722 161 654 62 694 106 b 837 30 748 106 786 62 b 1010 -18 887 -2 945 -18 b 1283 117 1123 -18 1214 27 l 1228 161 b 1137 78 1205 127 1174 99 b 1011 47 1099 58 1057 47 b 831 124 938 47 878 73 b 757 308 783 176 759 237 l 1307 308 b 1308 347 1308 316 1308 329 b 1227 573 1308 437 1281 512 b 1000 664 1173 634 1097 664 b 833 617 938 664 882 648 b 721 488 784 585 747 542 b 601 617 693 542 653 585 b 421 664 550 648 489 664 b 176 568 322 664 240 632 b 81 324 113 504 81 423 b 176 79 81 225 113 144 b 421 -18 240 14 322 -18 z m 686 324 b 613 126 686 245 662 179 b 421 47 565 74 500 47 b 230 126 342 47 278 74 b 157 324 181 179 157 245 b 230 522 157 402 181 468 b 421 601 278 575 342 601 b 613 522 500 601 565 575 b 686 324 662 468 686 402 z m 761 368 b 831 529 764 427 787 481 b 1001 601 875 577 932 601 b 1167 537 1071 601 1126 580 b 1232 368 1207 494 1229 438 z "},"Ÿ":{"ha":810,"x_min":0,"x_max":0,"o":"m 444 425 l 803 983 l 711 983 l 407 493 l 104 983 l 6 983 l 365 425 l 365 0 l 444 0 z m 222 1182 b 240 1139 222 1165 228 1151 b 282 1121 251 1127 265 1121 b 324 1139 299 1121 313 1127 b 340 1182 335 1151 340 1165 b 324 1224 340 1198 335 1212 b 282 1242 313 1236 299 1242 b 240 1224 265 1242 251 1236 b 222 1182 228 1212 222 1198 z m 474 1182 b 490 1139 474 1165 479 1151 b 532 1121 501 1127 515 1121 b 574 1139 549 1121 563 1127 b 592 1182 586 1151 592 1165 b 574 1224 592 1198 586 1212 b 532 1242 563 1236 549 1242 b 490 1224 515 1242 501 1236 b 474 1182 479 1212 474 1198 z "},"¿":{"ha":665,"x_min":0,"x_max":0,"o":"m 300 335 b 278 226 300 288 293 251 b 192 135 264 201 235 171 b 126 74 162 110 140 90 b 85 7 111 59 98 37 b 65 -93 72 -23 65 -56 b 140 -270 65 -168 90 -227 b 329 -335 190 -313 253 -335 b 508 -273 400 -335 459 -314 b 601 -104 557 -232 588 -175 l 526 -92 b 463 -217 519 -144 498 -185 b 332 -265 428 -249 385 -265 b 198 -218 278 -265 234 -250 b 144 -89 162 -187 144 -144 b 229 76 144 -27 173 28 l 271 113 b 351 206 306 143 333 174 b 378 318 369 237 378 275 l 378 399 l 300 399 z m 269 614 b 287 569 269 596 275 581 b 331 550 298 556 313 550 b 375 569 348 550 363 556 b 393 614 387 581 393 596 b 375 658 393 631 387 645 b 331 676 363 670 348 676 b 287 658 313 676 298 670 b 269 614 275 645 269 631 z "},"À":{"ha":958,"x_min":0,"x_max":0,"o":"m 215 265 l 742 265 l 853 0 l 940 0 l 522 983 l 443 983 l 17 0 l 104 0 z m 481 900 l 713 338 l 244 338 z m 454 1061 l 519 1061 l 379 1261 l 279 1261 z "},"Á":{"ha":958,"x_min":0,"x_max":0,"o":"m 215 265 l 742 265 l 853 0 l 940 0 l 522 983 l 443 983 l 17 0 l 104 0 z m 481 900 l 713 338 l 244 338 z m 686 1261 l 586 1261 l 446 1061 l 511 1061 z "},"Â":{"ha":958,"x_min":0,"x_max":0,"o":"m 215 265 l 742 265 l 853 0 l 940 0 l 522 983 l 443 983 l 17 0 l 104 0 z m 481 900 l 713 338 l 244 338 z m 524 1261 l 435 1261 l 286 1061 l 360 1061 l 479 1221 l 599 1061 l 672 1061 z "},"Ã":{"ha":958,"x_min":0,"x_max":0,"o":"m 215 265 l 742 265 l 853 0 l 940 0 l 522 983 l 443 983 l 17 0 l 104 0 z m 481 900 l 713 338 l 244 338 z m 324 1085 b 389 1154 334 1131 356 1154 b 478 1122 404 1154 433 1143 b 576 1089 522 1100 555 1089 b 689 1218 638 1089 675 1132 l 640 1218 b 576 1150 630 1173 609 1150 b 488 1183 563 1150 533 1161 b 389 1215 442 1204 409 1215 b 275 1085 327 1215 289 1172 z "},"Ä":{"ha":958,"x_min":0,"x_max":0,"o":"m 215 265 l 742 265 l 853 0 l 940 0 l 522 983 l 443 983 l 17 0 l 104 0 z m 481 900 l 713 338 l 244 338 z m 297 1182 b 315 1139 297 1165 303 1151 b 357 1121 326 1127 340 1121 b 399 1139 374 1121 388 1127 b 415 1182 410 1151 415 1165 b 399 1224 415 1198 410 1212 b 357 1242 388 1236 374 1242 b 315 1224 340 1242 326 1236 b 297 1182 303 1212 297 1198 z m 549 1182 b 565 1139 549 1165 554 1151 b 607 1121 576 1127 590 1121 b 649 1139 624 1121 638 1127 b 667 1182 661 1151 667 1165 b 649 1224 667 1198 661 1212 b 607 1242 638 1236 624 1242 b 565 1224 590 1242 576 1236 b 549 1182 554 1212 549 1198 z "},"Å":{"ha":958,"x_min":0,"x_max":0,"o":"m 215 265 l 742 265 l 853 0 l 940 0 l 522 983 l 443 983 l 17 0 l 104 0 z m 481 900 l 713 338 l 244 338 z m 614 1181 b 574 1274 614 1218 601 1249 b 481 1313 548 1300 517 1313 b 387 1274 444 1313 413 1300 b 347 1181 360 1249 347 1218 b 387 1087 347 1144 360 1112 b 481 1049 413 1061 444 1049 b 574 1087 517 1049 548 1061 b 614 1181 601 1112 614 1144 z m 571 1181 b 544 1117 571 1156 562 1134 b 481 1090 527 1099 506 1090 b 417 1117 456 1090 434 1099 b 390 1181 399 1134 390 1156 b 417 1244 390 1206 399 1227 b 481 1271 434 1262 456 1271 b 544 1244 506 1271 527 1262 b 571 1181 562 1227 571 1206 z "},"Æ":{"ha":1365,"x_min":0,"x_max":0,"o":"m 789 476 l 1238 476 l 1238 546 l 789 546 l 789 913 l 1271 913 l 1271 983 l 664 983 l 25 0 l 115 0 l 296 278 l 710 278 l 710 0 l 1290 0 l 1290 71 l 789 71 z m 338 349 l 701 913 l 710 913 l 710 349 z "},"Ç":{"ha":1001,"x_min":0,"x_max":0,"o":"m 896 189 b 594 44 818 93 718 44 b 285 174 467 44 364 88 b 168 492 207 261 168 367 b 285 809 168 617 207 722 b 594 939 364 896 467 939 b 756 904 653 939 707 927 b 875 814 806 881 845 851 l 932 867 b 790 972 897 912 850 947 b 593 1010 731 997 665 1010 b 229 863 447 1010 325 961 b 85 492 133 766 85 642 b 213 134 85 349 128 230 b 546 -25 299 38 410 -15 l 474 -137 l 494 -156 b 565 -142 516 -146 539 -142 b 649 -201 621 -142 649 -162 b 617 -253 649 -225 638 -242 b 549 -269 595 -264 573 -269 b 443 -247 509 -269 474 -262 l 425 -290 b 554 -318 465 -309 508 -318 b 667 -290 597 -318 634 -309 b 715 -200 699 -272 715 -242 b 680 -127 715 -169 703 -144 b 599 -101 656 -110 629 -101 b 543 -108 575 -101 557 -104 l 596 -26 b 950 146 745 -25 863 32 z "},"È":{"ha":821,"x_min":0,"x_max":0,"o":"m 214 476 l 701 476 l 701 546 l 214 546 l 214 913 l 735 913 l 735 983 l 136 983 l 136 0 l 753 0 l 753 71 l 214 71 z m 440 1061 l 506 1061 l 365 1261 l 265 1261 z "},"É":{"ha":821,"x_min":0,"x_max":0,"o":"m 214 476 l 701 476 l 701 546 l 214 546 l 214 913 l 735 913 l 735 983 l 136 983 l 136 0 l 753 0 l 753 71 l 214 71 z m 618 1261 l 518 1261 l 378 1061 l 443 1061 z "},"Ê":{"ha":821,"x_min":0,"x_max":0,"o":"m 214 476 l 701 476 l 701 546 l 214 546 l 214 913 l 735 913 l 735 983 l 136 983 l 136 0 l 753 0 l 753 71 l 214 71 z m 482 1261 l 393 1261 l 244 1061 l 318 1061 l 438 1221 l 557 1061 l 631 1061 z "},"Ë":{"ha":821,"x_min":0,"x_max":0,"o":"m 214 476 l 701 476 l 701 546 l 214 546 l 214 913 l 735 913 l 735 983 l 136 983 l 136 0 l 753 0 l 753 71 l 214 71 z m 254 1182 b 272 1139 254 1165 260 1151 b 314 1121 283 1127 297 1121 b 356 1139 331 1121 344 1127 b 372 1182 367 1151 372 1165 b 356 1224 372 1198 367 1212 b 314 1242 344 1236 331 1242 b 272 1224 297 1242 283 1236 b 254 1182 260 1212 254 1198 z m 506 1182 b 522 1139 506 1165 511 1151 b 564 1121 533 1127 547 1121 b 606 1139 581 1121 595 1127 b 624 1182 618 1151 624 1165 b 606 1224 624 1198 618 1212 b 564 1242 595 1236 581 1242 b 522 1224 547 1242 533 1236 b 506 1182 511 1212 506 1198 z "},"Ì":{"ha":350,"x_min":0,"x_max":0,"o":"m 215 983 l 136 983 l 136 0 l 215 0 z m 149 1061 l 214 1061 l 74 1261 l -26 1261 z "},"Í":{"ha":350,"x_min":0,"x_max":0,"o":"m 215 983 l 136 983 l 136 0 l 215 0 z m 375 1261 l 275 1261 l 135 1061 l 200 1061 z "},"Î":{"ha":350,"x_min":0,"x_max":0,"o":"m 215 983 l 136 983 l 136 0 l 215 0 z m 218 1261 l 129 1261 l -19 1061 l 54 1061 l 174 1221 l 293 1061 l 367 1061 z "},"Ï":{"ha":350,"x_min":0,"x_max":0,"o":"m 215 983 l 136 983 l 136 0 l 215 0 z m -10 1182 b 8 1139 -10 1165 -4 1151 b 50 1121 19 1127 33 1121 b 92 1139 67 1121 81 1127 b 108 1182 103 1151 108 1165 b 92 1224 108 1198 103 1212 b 50 1242 81 1236 67 1242 b 8 1224 33 1242 19 1236 b -10 1182 -4 1212 -10 1198 z m 242 1182 b 258 1139 242 1165 247 1151 b 300 1121 269 1127 283 1121 b 342 1139 317 1121 331 1127 b 360 1182 354 1151 360 1165 b 342 1224 360 1198 354 1212 b 300 1242 331 1236 317 1242 b 258 1224 283 1242 269 1236 b 242 1182 247 1212 242 1198 z "},"Ð":{"ha":1057,"x_min":0,"x_max":0,"o":"m 128 0 l 440 0 b 634 31 508 0 572 10 b 801 120 696 51 751 81 b 919 276 850 159 890 211 b 964 492 949 340 964 412 b 919 708 964 571 949 643 b 801 863 890 772 850 824 b 634 953 751 903 696 932 b 440 983 572 973 508 983 l 128 983 l 128 547 l 24 547 l 24 486 l 128 486 z m 207 486 l 569 486 l 569 547 l 207 547 l 207 911 l 415 911 b 756 794 561 911 674 872 b 879 492 838 717 879 616 b 756 190 879 369 838 268 b 415 72 673 111 560 72 l 207 72 z "},"Ñ":{"ha":1067,"x_min":0,"x_max":0,"o":"m 236 983 l 136 983 l 136 0 l 215 0 l 215 875 l 218 875 l 831 0 l 931 0 l 931 983 l 851 983 l 851 114 l 849 114 z m 381 1085 b 446 1154 391 1131 413 1154 b 535 1122 461 1154 490 1143 b 633 1089 579 1100 612 1089 b 746 1218 694 1089 732 1132 l 697 1218 b 633 1150 687 1173 666 1150 b 544 1183 619 1150 590 1161 b 446 1215 499 1204 466 1215 b 332 1085 384 1215 346 1172 z "},"Ò":{"ha":1190,"x_min":0,"x_max":0,"o":"m 1106 492 b 960 863 1106 642 1057 766 b 594 1010 864 961 742 1010 b 230 863 448 1010 327 961 b 85 492 133 766 85 642 b 230 120 85 342 133 218 b 594 -26 327 22 448 -26 b 960 120 742 -26 864 22 b 1106 492 1057 218 1106 342 z m 1022 492 b 904 174 1022 367 983 261 b 594 44 825 88 722 44 b 286 174 468 44 365 88 b 168 492 207 261 168 367 b 286 809 168 617 207 722 b 594 939 365 896 468 939 b 903 809 721 939 824 896 b 1022 492 983 722 1022 617 z m 615 1061 l 681 1061 l 540 1261 l 440 1261 z "},"Ó":{"ha":1190,"x_min":0,"x_max":0,"o":"m 1106 492 b 960 863 1106 642 1057 766 b 594 1010 864 961 742 1010 b 230 863 448 1010 327 961 b 85 492 133 766 85 642 b 230 120 85 342 133 218 b 594 -26 327 22 448 -26 b 960 120 742 -26 864 22 b 1106 492 1057 218 1106 342 z m 1022 492 b 904 174 1022 367 983 261 b 594 44 825 88 722 44 b 286 174 468 44 365 88 b 168 492 207 261 168 367 b 286 809 168 617 207 722 b 594 939 365 896 468 939 b 903 809 721 939 824 896 b 1022 492 983 722 1022 617 z m 768 1261 l 668 1261 l 528 1061 l 593 1061 z "},"Ô":{"ha":1190,"x_min":0,"x_max":0,"o":"m 1106 492 b 960 863 1106 642 1057 766 b 594 1010 864 961 742 1010 b 230 863 448 1010 327 961 b 85 492 133 766 85 642 b 230 120 85 342 133 218 b 594 -26 327 22 448 -26 b 960 120 742 -26 864 22 b 1106 492 1057 218 1106 342 z m 1022 492 b 904 174 1022 367 983 261 b 594 44 825 88 722 44 b 286 174 468 44 365 88 b 168 492 207 261 168 367 b 286 809 168 617 207 722 b 594 939 365 896 468 939 b 903 809 721 939 824 896 b 1022 492 983 722 1022 617 z m 639 1261 l 550 1261 l 401 1061 l 475 1061 l 594 1221 l 714 1061 l 788 1061 z "},"Õ":{"ha":1190,"x_min":0,"x_max":0,"o":"m 1106 492 b 960 863 1106 642 1057 766 b 594 1010 864 961 742 1010 b 230 863 448 1010 327 961 b 85 492 133 766 85 642 b 230 120 85 342 133 218 b 594 -26 327 22 448 -26 b 960 120 742 -26 864 22 b 1106 492 1057 218 1106 342 z m 1022 492 b 904 174 1022 367 983 261 b 594 44 825 88 722 44 b 286 174 468 44 365 88 b 168 492 207 261 168 367 b 286 809 168 617 207 722 b 594 939 365 896 468 939 b 903 809 721 939 824 896 b 1022 492 983 722 1022 617 z m 438 1085 b 503 1154 448 1131 469 1154 b 592 1122 518 1154 547 1143 b 690 1089 636 1100 669 1089 b 803 1218 751 1089 789 1132 l 754 1218 b 690 1150 744 1173 723 1150 b 601 1183 676 1150 647 1161 b 503 1215 556 1204 523 1215 b 389 1085 441 1215 403 1172 z "},"Ö":{"ha":1190,"x_min":0,"x_max":0,"o":"m 1106 492 b 960 863 1106 642 1057 766 b 594 1010 864 961 742 1010 b 230 863 448 1010 327 961 b 85 492 133 766 85 642 b 230 120 85 342 133 218 b 594 -26 327 22 448 -26 b 960 120 742 -26 864 22 b 1106 492 1057 218 1106 342 z m 1022 492 b 904 174 1022 367 983 261 b 594 44 825 88 722 44 b 286 174 468 44 365 88 b 168 492 207 261 168 367 b 286 809 168 617 207 722 b 594 939 365 896 468 939 b 903 809 721 939 824 896 b 1022 492 983 722 1022 617 z m 411 1182 b 428 1139 411 1165 417 1151 b 471 1121 440 1127 454 1121 b 513 1139 488 1121 501 1127 b 529 1182 524 1151 529 1165 b 513 1224 529 1198 524 1212 b 471 1242 501 1236 488 1242 b 428 1224 454 1242 440 1236 b 411 1182 417 1212 411 1198 z m 663 1182 b 679 1139 663 1165 668 1151 b 721 1121 690 1127 704 1121 b 763 1139 738 1121 752 1127 b 781 1182 775 1151 781 1165 b 763 1224 781 1198 775 1212 b 721 1242 752 1236 738 1242 b 679 1224 704 1242 690 1236 b 663 1182 668 1212 663 1198 z "},"×":{"ha":925,"x_min":0,"x_max":0,"o":"m 233 700 l 188 653 l 417 422 l 188 193 l 233 146 l 463 375 l 692 146 l 739 193 l 510 422 l 739 653 l 692 700 l 463 471 z "},"Ø":{"ha":1190,"x_min":0,"x_max":0,"o":"m 1060 971 l 1018 1008 l 915 897 b 589 1010 825 972 716 1010 b 224 863 443 1010 321 961 b 79 492 128 766 79 642 b 217 129 79 346 125 225 l 115 17 l 157 -22 l 260 89 b 589 -26 351 12 461 -26 b 955 120 736 -26 858 22 b 1100 492 1052 218 1100 342 b 958 858 1100 639 1053 761 z m 906 800 b 1017 492 980 719 1017 616 b 899 174 1017 367 978 261 b 589 44 821 88 718 44 b 311 144 480 44 387 78 z m 271 186 b 163 492 199 267 163 369 b 280 809 163 617 202 722 b 589 939 358 896 461 939 b 865 842 699 939 791 906 z "},"Ù":{"ha":996,"x_min":0,"x_max":0,"o":"m 497 -26 b 677 9 567 -26 627 -15 b 792 104 728 33 766 64 b 850 229 819 144 838 186 b 868 368 862 273 868 319 l 868 983 l 789 983 l 789 378 b 775 258 789 335 784 295 b 729 152 766 220 750 185 b 638 74 708 119 678 93 b 497 44 599 54 552 44 b 379 65 453 44 413 51 b 296 117 345 78 317 95 b 243 193 275 138 257 163 b 215 283 229 223 220 253 b 207 378 209 313 207 344 l 207 983 l 128 983 l 128 368 b 146 229 128 319 134 273 b 203 104 158 186 177 144 b 319 9 230 64 268 33 b 497 -26 369 -15 429 -26 z m 506 1061 l 571 1061 l 431 1261 l 331 1261 z "},"Ú":{"ha":996,"x_min":0,"x_max":0,"o":"m 497 -26 b 677 9 567 -26 627 -15 b 792 104 728 33 766 64 b 850 229 819 144 838 186 b 868 368 862 273 868 319 l 868 983 l 789 983 l 789 378 b 775 258 789 335 784 295 b 729 152 766 220 750 185 b 638 74 708 119 678 93 b 497 44 599 54 552 44 b 379 65 453 44 413 51 b 296 117 345 78 317 95 b 243 193 275 138 257 163 b 215 283 229 223 220 253 b 207 378 209 313 207 344 l 207 983 l 128 983 l 128 368 b 146 229 128 319 134 273 b 203 104 158 186 177 144 b 319 9 230 64 268 33 b 497 -26 369 -15 429 -26 z m 672 1261 l 572 1261 l 432 1061 l 497 1061 z "},"Û":{"ha":996,"x_min":0,"x_max":0,"o":"m 497 -26 b 677 9 567 -26 627 -15 b 792 104 728 33 766 64 b 850 229 819 144 838 186 b 868 368 862 273 868 319 l 868 983 l 789 983 l 789 378 b 775 258 789 335 784 295 b 729 152 766 220 750 185 b 638 74 708 119 678 93 b 497 44 599 54 552 44 b 379 65 453 44 413 51 b 296 117 345 78 317 95 b 243 193 275 138 257 163 b 215 283 229 223 220 253 b 207 378 209 313 207 344 l 207 983 l 128 983 l 128 368 b 146 229 128 319 134 273 b 203 104 158 186 177 144 b 319 9 230 64 268 33 b 497 -26 369 -15 429 -26 z m 542 1261 l 453 1261 l 304 1061 l 378 1061 l 497 1221 l 617 1061 l 690 1061 z "},"Ü":{"ha":996,"x_min":0,"x_max":0,"o":"m 497 -26 b 677 9 567 -26 627 -15 b 792 104 728 33 766 64 b 850 229 819 144 838 186 b 868 368 862 273 868 319 l 868 983 l 789 983 l 789 378 b 775 258 789 335 784 295 b 729 152 766 220 750 185 b 638 74 708 119 678 93 b 497 44 599 54 552 44 b 379 65 453 44 413 51 b 296 117 345 78 317 95 b 243 193 275 138 257 163 b 215 283 229 223 220 253 b 207 378 209 313 207 344 l 207 983 l 128 983 l 128 368 b 146 229 128 319 134 273 b 203 104 158 186 177 144 b 319 9 230 64 268 33 b 497 -26 369 -15 429 -26 z m 314 1182 b 331 1139 314 1165 320 1151 b 374 1121 343 1127 357 1121 b 415 1139 390 1121 404 1127 b 432 1182 426 1151 432 1165 b 415 1224 432 1198 426 1212 b 374 1242 404 1236 390 1242 b 331 1224 357 1242 343 1236 b 314 1182 320 1212 314 1198 z m 565 1182 b 582 1139 565 1165 571 1151 b 624 1121 593 1127 607 1121 b 666 1139 640 1121 654 1127 b 683 1182 678 1151 683 1165 b 666 1224 683 1198 678 1212 b 624 1242 654 1236 640 1242 b 582 1224 607 1242 593 1236 b 565 1182 571 1212 565 1198 z "},"Ý":{"ha":810,"x_min":0,"x_max":0,"o":"m 444 425 l 803 983 l 711 983 l 407 493 l 104 983 l 6 983 l 365 425 l 365 0 l 444 0 z m 613 1261 l 513 1261 l 372 1061 l 438 1061 z "},"Þ":{"ha":803,"x_min":0,"x_max":0,"o":"m 136 0 l 215 0 l 215 249 l 414 249 b 646 316 510 249 588 271 b 733 510 704 361 733 425 b 644 703 733 596 704 660 b 410 767 585 745 507 767 l 215 767 l 215 983 l 136 983 z m 215 697 l 401 697 b 582 651 477 697 538 682 b 649 510 626 621 649 574 b 583 367 649 447 627 399 b 404 318 540 334 480 318 l 215 318 z "},"ß":{"ha":826,"x_min":0,"x_max":0,"o":"m 203 750 b 213 838 203 781 206 811 b 244 917 219 864 229 891 b 308 978 258 943 280 963 b 413 1000 337 993 372 1000 b 548 951 467 1000 512 984 b 601 817 584 919 601 874 b 544 676 601 756 582 709 b 396 628 506 644 457 628 l 381 628 l 381 561 l 396 561 b 596 496 479 561 546 539 b 671 306 646 452 671 389 b 602 118 671 227 648 164 b 417 49 556 72 494 49 b 350 54 400 49 378 50 l 350 -10 b 424 -15 369 -13 394 -15 b 661 72 523 -15 602 14 b 750 304 720 131 750 208 b 683 506 750 387 728 454 b 508 596 638 557 580 588 l 508 599 b 678 822 621 634 678 708 b 601 1000 678 896 652 956 b 415 1067 550 1044 488 1067 b 280 1040 363 1067 318 1058 b 190 968 241 1023 212 999 b 143 869 169 938 153 904 b 128 753 133 833 128 794 l 128 0 l 203 0 z "},"à":{"ha":732,"x_min":0,"x_max":0,"o":"m 303 -18 b 540 119 410 -18 489 28 l 543 119 b 554 0 543 84 547 44 l 622 0 b 611 146 615 39 611 88 l 611 429 b 543 604 611 506 588 564 b 363 664 498 644 438 664 b 121 575 263 664 182 634 l 163 525 b 356 601 215 576 280 601 b 539 421 478 601 539 541 l 539 392 l 474 392 b 329 383 419 392 371 389 b 206 353 288 378 247 368 b 113 287 166 339 135 317 b 81 175 91 257 81 219 b 149 31 81 111 103 63 b 303 -18 194 -2 245 -18 z m 321 44 b 206 77 276 44 238 55 b 158 179 174 99 158 133 b 490 332 158 281 269 332 l 539 332 l 539 279 b 483 113 539 214 520 159 b 321 44 445 67 391 44 z m 383 783 l 449 783 l 308 983 l 208 983 z "},"á":{"ha":732,"x_min":0,"x_max":0,"o":"m 303 -18 b 540 119 410 -18 489 28 l 543 119 b 554 0 543 84 547 44 l 622 0 b 611 146 615 39 611 88 l 611 429 b 543 604 611 506 588 564 b 363 664 498 644 438 664 b 121 575 263 664 182 634 l 163 525 b 356 601 215 576 280 601 b 539 421 478 601 539 541 l 539 392 l 474 392 b 329 383 419 392 371 389 b 206 353 288 378 247 368 b 113 287 166 339 135 317 b 81 175 91 257 81 219 b 149 31 81 111 103 63 b 303 -18 194 -2 245 -18 z m 321 44 b 206 77 276 44 238 55 b 158 179 174 99 158 133 b 490 332 158 281 269 332 l 539 332 l 539 279 b 483 113 539 214 520 159 b 321 44 445 67 391 44 z m 546 983 l 446 983 l 306 783 l 371 783 z "},"â":{"ha":732,"x_min":0,"x_max":0,"o":"m 303 -18 b 540 119 410 -18 489 28 l 543 119 b 554 0 543 84 547 44 l 622 0 b 611 146 615 39 611 88 l 611 429 b 543 604 611 506 588 564 b 363 664 498 644 438 664 b 121 575 263 664 182 634 l 163 525 b 356 601 215 576 280 601 b 539 421 478 601 539 541 l 539 392 l 474 392 b 329 383 419 392 371 389 b 206 353 288 378 247 368 b 113 287 166 339 135 317 b 81 175 91 257 81 219 b 149 31 81 111 103 63 b 303 -18 194 -2 245 -18 z m 321 44 b 206 77 276 44 238 55 b 158 179 174 99 158 133 b 490 332 158 281 269 332 l 539 332 l 539 279 b 483 113 539 214 520 159 b 321 44 445 67 391 44 z m 408 983 l 319 983 l 171 783 l 244 783 l 364 943 l 483 783 l 557 783 z "},"ã":{"ha":732,"x_min":0,"x_max":0,"o":"m 303 -18 b 540 119 410 -18 489 28 l 543 119 b 554 0 543 84 547 44 l 622 0 b 611 146 615 39 611 88 l 611 429 b 543 604 611 506 588 564 b 363 664 498 644 438 664 b 121 575 263 664 182 634 l 163 525 b 356 601 215 576 280 601 b 539 421 478 601 539 541 l 539 392 l 474 392 b 329 383 419 392 371 389 b 206 353 288 378 247 368 b 113 287 166 339 135 317 b 81 175 91 257 81 219 b 149 31 81 111 103 63 b 303 -18 194 -2 245 -18 z m 321 44 b 206 77 276 44 238 55 b 158 179 174 99 158 133 b 490 332 158 281 269 332 l 539 332 l 539 279 b 483 113 539 214 520 159 b 321 44 445 67 391 44 z m 204 807 b 269 876 214 853 236 876 b 358 844 284 876 314 866 b 457 811 403 822 436 811 b 569 940 518 811 556 854 l 521 940 b 457 872 511 895 489 872 b 368 905 443 872 413 883 b 269 938 323 927 290 938 b 156 807 207 938 169 894 z "},"ä":{"ha":732,"x_min":0,"x_max":0,"o":"m 303 -18 b 540 119 410 -18 489 28 l 543 119 b 554 0 543 84 547 44 l 622 0 b 611 146 615 39 611 88 l 611 429 b 543 604 611 506 588 564 b 363 664 498 644 438 664 b 121 575 263 664 182 634 l 163 525 b 356 601 215 576 280 601 b 539 421 478 601 539 541 l 539 392 l 474 392 b 329 383 419 392 371 389 b 206 353 288 378 247 368 b 113 287 166 339 135 317 b 81 175 91 257 81 219 b 149 31 81 111 103 63 b 303 -18 194 -2 245 -18 z m 321 44 b 206 77 276 44 238 55 b 158 179 174 99 158 133 b 490 332 158 281 269 332 l 539 332 l 539 279 b 483 113 539 214 520 159 b 321 44 445 67 391 44 z m 179 904 b 197 861 179 888 185 873 b 239 843 208 849 222 843 b 281 861 256 843 269 849 b 297 904 292 873 297 888 b 281 946 297 920 292 934 b 239 964 269 958 256 964 b 197 946 222 964 208 958 b 179 904 185 934 179 920 z m 431 904 b 447 861 431 888 436 873 b 489 843 458 849 472 843 b 531 861 506 843 520 849 b 549 904 543 873 549 888 b 531 946 549 920 543 934 b 489 964 520 958 506 964 b 447 946 472 964 458 958 b 431 904 436 934 431 920 z "},"å":{"ha":732,"x_min":0,"x_max":0,"o":"m 303 -18 b 540 119 410 -18 489 28 l 543 119 b 554 0 543 84 547 44 l 622 0 b 611 146 615 39 611 88 l 611 429 b 543 604 611 506 588 564 b 363 664 498 644 438 664 b 121 575 263 664 182 634 l 163 525 b 356 601 215 576 280 601 b 539 421 478 601 539 541 l 539 392 l 474 392 b 329 383 419 392 371 389 b 206 353 288 378 247 368 b 113 287 166 339 135 317 b 81 175 91 257 81 219 b 149 31 81 111 103 63 b 303 -18 194 -2 245 -18 z m 321 44 b 206 77 276 44 238 55 b 158 179 174 99 158 133 b 490 332 158 281 269 332 l 539 332 l 539 279 b 483 113 539 214 520 159 b 321 44 445 67 391 44 z m 496 903 b 456 997 496 940 483 971 b 363 1035 430 1022 399 1035 b 269 997 326 1035 295 1022 b 229 903 242 971 229 940 b 269 809 229 866 242 834 b 363 771 295 784 326 771 b 456 809 399 771 430 784 b 496 903 483 834 496 866 z m 453 903 b 426 839 453 878 444 856 b 363 813 409 821 388 813 b 299 839 338 813 316 821 b 272 903 281 856 272 878 b 299 967 272 928 281 949 b 363 993 316 984 338 993 b 426 967 388 993 409 984 b 453 903 444 949 453 928 z "},"æ":{"ha":1213,"x_min":0,"x_max":0,"o":"m 313 -18 b 583 154 455 -18 545 39 b 685 29 605 101 638 60 b 849 -17 731 -1 786 -17 b 1110 117 955 -17 1042 28 l 1056 160 b 969 78 1034 126 1006 99 b 849 47 933 58 893 47 b 677 124 778 47 721 73 b 610 308 633 176 611 237 l 1131 308 b 1132 347 1131 314 1132 327 b 1056 573 1132 437 1106 512 b 840 664 1005 634 933 664 b 694 623 788 664 739 650 b 590 513 650 596 615 559 b 512 624 576 560 550 597 b 368 664 473 650 425 664 b 227 639 319 664 272 656 b 115 574 182 622 145 600 l 158 525 b 358 601 216 576 282 601 b 492 548 417 601 461 584 b 539 403 523 512 539 464 l 539 369 l 464 369 b 324 360 410 369 363 365 b 205 331 284 354 244 345 b 114 270 166 318 135 297 b 82 168 93 243 82 209 b 150 28 82 106 105 59 b 313 -18 195 -3 250 -18 z m 324 44 b 206 74 276 44 237 54 b 160 169 175 93 160 125 b 186 243 160 199 169 224 b 263 285 204 263 229 277 b 365 303 297 294 331 300 b 489 308 400 307 441 308 l 539 308 l 539 257 b 485 103 539 194 521 143 b 324 44 450 64 396 44 z m 613 369 b 680 528 614 426 637 479 b 840 601 723 577 776 601 b 996 537 905 601 957 580 b 1056 369 1035 494 1055 438 z "},"ç":{"ha":686,"x_min":0,"x_max":0,"o":"m 647 563 b 417 664 594 630 517 664 b 174 567 318 664 237 632 b 81 324 112 503 81 422 b 163 89 81 230 108 152 b 382 -17 217 26 290 -9 l 304 -137 l 325 -156 b 396 -142 346 -146 370 -142 b 479 -201 451 -142 479 -162 b 447 -253 479 -225 469 -242 b 379 -269 426 -264 403 -269 b 274 -247 339 -269 304 -262 l 256 -290 b 385 -318 295 -309 338 -318 b 497 -290 427 -318 465 -309 b 546 -200 530 -272 546 -242 b 510 -127 546 -169 534 -144 b 429 -101 487 -110 460 -101 b 374 -108 406 -101 388 -104 l 431 -18 b 651 85 522 -14 596 20 l 604 128 b 415 47 552 74 489 47 b 231 126 339 47 278 74 b 160 324 183 179 160 245 b 231 522 160 402 184 468 b 418 601 279 575 341 601 b 519 578 452 601 486 594 b 597 517 552 562 578 542 z "},"è":{"ha":788,"x_min":0,"x_max":0,"o":"m 160 368 b 231 528 163 426 186 480 b 400 601 275 577 331 601 b 566 537 469 601 525 580 b 632 368 607 494 629 438 z m 408 -18 b 683 117 522 -18 614 27 l 633 157 b 411 47 571 84 497 47 b 231 124 337 47 277 73 b 158 308 184 176 160 237 l 707 308 l 707 347 b 627 573 707 437 680 512 b 401 664 574 634 499 664 b 173 567 311 664 234 632 b 81 325 111 503 81 422 b 174 79 81 226 112 144 b 408 -18 236 14 314 -18 z m 397 783 l 463 783 l 322 983 l 222 983 z "},"é":{"ha":788,"x_min":0,"x_max":0,"o":"m 160 368 b 231 528 163 426 186 480 b 400 601 275 577 331 601 b 566 537 469 601 525 580 b 632 368 607 494 629 438 z m 408 -18 b 683 117 522 -18 614 27 l 633 157 b 411 47 571 84 497 47 b 231 124 337 47 277 73 b 158 308 184 176 160 237 l 707 308 l 707 347 b 627 573 707 437 680 512 b 401 664 574 634 499 664 b 173 567 311 664 234 632 b 81 325 111 503 81 422 b 174 79 81 226 112 144 b 408 -18 236 14 314 -18 z m 592 983 l 492 983 l 351 783 l 417 783 z "},"ê":{"ha":788,"x_min":0,"x_max":0,"o":"m 160 368 b 231 528 163 426 186 480 b 400 601 275 577 331 601 b 566 537 469 601 525 580 b 632 368 607 494 629 438 z m 408 -18 b 683 117 522 -18 614 27 l 633 157 b 411 47 571 84 497 47 b 231 124 337 47 277 73 b 158 308 184 176 160 237 l 707 308 l 707 347 b 627 573 707 437 680 512 b 401 664 574 634 499 664 b 173 567 311 664 234 632 b 81 325 111 503 81 422 b 174 79 81 226 112 144 b 408 -18 236 14 314 -18 z m 454 983 l 365 983 l 217 783 l 290 783 l 410 943 l 529 783 l 603 783 z "},"ë":{"ha":788,"x_min":0,"x_max":0,"o":"m 160 368 b 231 528 163 426 186 480 b 400 601 275 577 331 601 b 566 537 469 601 525 580 b 632 368 607 494 629 438 z m 408 -18 b 683 117 522 -18 614 27 l 633 157 b 411 47 571 84 497 47 b 231 124 337 47 277 73 b 158 308 184 176 160 237 l 707 308 l 707 347 b 627 573 707 437 680 512 b 401 664 574 634 499 664 b 173 567 311 664 234 632 b 81 325 111 503 81 422 b 174 79 81 226 112 144 b 408 -18 236 14 314 -18 z m 224 904 b 241 861 224 888 229 873 b 283 843 253 849 267 843 b 325 861 300 843 314 849 b 342 904 336 873 342 888 b 325 946 342 920 336 934 b 283 964 314 958 300 964 b 241 946 267 964 253 958 b 224 904 229 934 224 920 z m 475 904 b 492 861 475 888 481 873 b 533 843 503 849 517 843 b 576 861 550 843 564 849 b 593 904 587 873 593 888 b 576 946 593 920 587 934 b 533 964 564 958 550 964 b 492 946 517 964 503 958 b 475 904 481 934 475 920 z "},"ì":{"ha":338,"x_min":0,"x_max":0,"o":"m 207 647 l 131 647 l 131 0 l 207 0 z m 140 783 l 206 783 l 65 983 l -35 983 z "},"í":{"ha":338,"x_min":0,"x_max":0,"o":"m 207 647 l 131 647 l 131 0 l 207 0 z m 371 983 l 271 983 l 131 783 l 196 783 z "},"î":{"ha":338,"x_min":0,"x_max":0,"o":"m 207 647 l 131 647 l 131 0 l 207 0 z m 215 983 l 126 983 l -22 783 l 51 783 l 171 943 l 290 783 l 364 783 z "},"ï":{"ha":338,"x_min":0,"x_max":0,"o":"m 207 647 l 131 647 l 131 0 l 207 0 z m -15 904 b 2 861 -15 888 -9 873 b 44 843 14 849 28 843 b 86 861 61 843 75 849 b 103 904 97 873 103 888 b 86 946 103 920 97 934 b 44 964 75 958 61 964 b 2 946 28 964 14 958 b -15 904 -9 934 -15 920 z m 236 904 b 253 861 236 888 242 873 b 294 843 264 849 278 843 b 337 861 311 843 325 849 b 354 904 348 873 354 888 b 337 946 354 920 348 934 b 294 964 325 958 311 964 b 253 946 278 964 264 958 b 236 904 242 934 236 920 z "},"ð":{"ha":846,"x_min":0,"x_max":0,"o":"m 151 324 b 224 519 151 402 175 468 b 414 597 272 571 335 597 b 605 519 494 597 557 571 b 676 324 653 468 676 402 b 605 127 676 245 653 179 b 414 49 557 75 494 49 b 224 127 335 49 272 75 b 151 324 175 179 151 245 z m 626 997 l 581 1036 l 438 961 b 300 1075 400 996 355 1034 l 236 1033 b 374 925 290 997 336 961 l 221 844 l 260 804 l 415 885 b 541 746 459 847 501 800 b 639 579 581 691 614 636 l 635 576 b 414 664 570 635 496 664 b 168 568 314 664 232 632 b 72 324 104 504 72 423 b 169 79 72 225 104 144 b 414 -18 233 14 315 -18 b 668 89 525 -18 610 18 b 756 343 726 160 756 245 b 675 659 756 450 729 556 b 483 919 621 762 557 849 z "},"ñ":{"ha":803,"x_min":0,"x_max":0,"o":"m 125 647 b 131 499 129 609 131 560 l 131 0 l 207 0 l 207 329 b 269 529 207 415 228 482 b 421 600 310 576 361 600 b 604 367 543 600 604 522 l 604 0 l 679 0 l 679 394 b 619 590 679 476 659 541 b 438 664 578 639 518 664 b 299 624 388 664 342 650 b 206 518 255 597 224 562 l 203 518 b 197 647 203 556 201 599 z m 249 807 b 314 876 259 853 281 876 b 403 844 329 876 358 866 b 501 811 447 822 480 811 b 614 940 563 811 600 854 l 565 940 b 501 872 555 895 534 872 b 413 905 488 872 458 883 b 314 938 367 927 334 938 b 200 807 252 938 214 894 z "},"ò":{"ha":846,"x_min":0,"x_max":0,"o":"m 764 324 b 668 568 764 423 732 504 b 422 664 604 632 522 664 b 177 568 322 664 241 632 b 82 324 114 504 82 423 b 178 79 82 225 114 144 b 422 -18 242 14 323 -18 b 668 79 522 -18 604 14 b 764 324 732 144 764 225 z m 686 324 b 614 128 686 245 662 180 b 422 50 566 76 502 50 b 232 128 344 50 280 76 b 160 324 184 180 160 245 b 232 520 160 402 184 468 b 422 599 280 572 344 599 b 614 520 502 599 566 572 b 686 324 662 468 686 402 z m 413 783 l 478 783 l 338 983 l 238 983 z "},"ó":{"ha":846,"x_min":0,"x_max":0,"o":"m 764 324 b 668 568 764 423 732 504 b 422 664 604 632 522 664 b 177 568 322 664 241 632 b 82 324 114 504 82 423 b 178 79 82 225 114 144 b 422 -18 242 14 323 -18 b 668 79 522 -18 604 14 b 764 324 732 144 764 225 z m 686 324 b 614 128 686 245 662 180 b 422 50 566 76 502 50 b 232 128 344 50 280 76 b 160 324 184 180 160 245 b 232 520 160 402 184 468 b 422 599 280 572 344 599 b 614 520 502 599 566 572 b 686 324 662 468 686 402 z m 608 983 l 508 983 l 368 783 l 433 783 z "},"ô":{"ha":846,"x_min":0,"x_max":0,"o":"m 764 324 b 668 568 764 423 732 504 b 422 664 604 632 522 664 b 177 568 322 664 241 632 b 82 324 114 504 82 423 b 178 79 82 225 114 144 b 422 -18 242 14 323 -18 b 668 79 522 -18 604 14 b 764 324 732 144 764 225 z m 686 324 b 614 128 686 245 662 180 b 422 50 566 76 502 50 b 232 128 344 50 280 76 b 160 324 184 180 160 245 b 232 520 160 402 184 468 b 422 599 280 572 344 599 b 614 520 502 599 566 572 b 686 324 662 468 686 402 z m 467 983 l 378 983 l 229 783 l 303 783 l 422 943 l 542 783 l 615 783 z "},"õ":{"ha":846,"x_min":0,"x_max":0,"o":"m 764 324 b 668 568 764 423 732 504 b 422 664 604 632 522 664 b 177 568 322 664 241 632 b 82 324 114 504 82 423 b 178 79 82 225 114 144 b 422 -18 242 14 323 -18 b 668 79 522 -18 604 14 b 764 324 732 144 764 225 z m 686 324 b 614 128 686 245 662 180 b 422 50 566 76 502 50 b 232 128 344 50 280 76 b 160 324 184 180 160 245 b 232 520 160 402 184 468 b 422 599 280 572 344 599 b 614 520 502 599 566 572 b 686 324 662 468 686 402 z m 265 807 b 331 876 275 853 297 876 b 419 844 345 876 375 866 b 518 811 464 822 497 811 b 631 940 579 811 617 854 l 582 940 b 518 872 572 895 550 872 b 429 905 504 872 475 883 b 331 938 384 927 351 938 b 217 807 269 938 231 894 z "},"ö":{"ha":846,"x_min":0,"x_max":0,"o":"m 764 324 b 668 568 764 423 732 504 b 422 664 604 632 522 664 b 177 568 322 664 241 632 b 82 324 114 504 82 423 b 178 79 82 225 114 144 b 422 -18 242 14 323 -18 b 668 79 522 -18 604 14 b 764 324 732 144 764 225 z m 686 324 b 614 128 686 245 662 180 b 422 50 566 76 502 50 b 232 128 344 50 280 76 b 160 324 184 180 160 245 b 232 520 160 402 184 468 b 422 599 280 572 344 599 b 614 520 502 599 566 572 b 686 324 662 468 686 402 z m 239 904 b 256 861 239 888 245 873 b 299 843 268 849 282 843 b 340 861 315 843 329 849 b 357 904 351 873 357 888 b 340 946 357 920 351 934 b 299 964 329 958 315 964 b 256 946 282 964 268 958 b 239 904 245 934 239 920 z m 490 904 b 507 861 490 888 496 873 b 549 843 518 849 532 843 b 591 861 565 843 579 849 b 608 904 603 873 608 888 b 591 946 608 920 603 934 b 549 964 579 958 565 964 b 507 946 532 964 518 958 b 490 904 496 934 490 920 z "},"÷":{"ha":925,"x_min":0,"x_max":0,"o":"m 811 454 l 115 454 l 115 388 l 811 388 z m 531 647 b 511 696 531 666 524 682 b 463 717 498 710 482 717 b 415 696 444 717 428 710 b 396 647 402 682 396 666 b 415 600 396 630 402 614 b 463 579 428 586 444 579 b 510 600 481 579 497 586 b 531 647 524 614 531 630 z m 531 194 b 510 242 531 212 524 228 b 463 263 497 256 481 263 b 415 242 443 263 427 256 b 396 194 402 229 396 213 b 415 146 396 176 402 160 b 463 125 428 132 444 125 b 511 146 482 125 498 132 b 531 194 524 160 531 176 z "},"ø":{"ha":846,"x_min":0,"x_max":0,"o":"m 106 -32 l 197 61 b 421 -18 259 8 334 -18 b 668 79 521 -18 603 14 b 765 324 733 144 765 225 b 681 553 765 413 737 490 l 769 644 l 733 681 l 644 589 b 421 664 583 639 509 664 b 176 568 322 664 240 632 b 81 324 113 504 81 423 b 160 97 81 236 107 160 l 68 3 z m 210 147 b 157 324 175 193 157 251 b 230 523 157 403 181 470 b 422 603 278 576 343 603 b 597 542 496 603 555 582 z m 421 44 b 243 108 350 44 290 66 l 631 503 b 689 324 669 457 689 398 b 615 124 689 244 664 178 b 421 44 566 71 501 44 z "},"ù":{"ha":803,"x_min":0,"x_max":0,"o":"m 678 0 b 671 149 673 46 671 96 l 671 647 l 596 647 l 596 318 b 533 117 596 232 575 165 b 382 46 492 70 441 46 b 199 281 260 46 199 124 l 199 647 l 122 647 l 122 251 b 183 56 122 171 142 106 b 365 -18 223 7 284 -18 b 504 22 414 -18 461 -5 b 596 128 548 49 578 84 l 599 128 b 604 0 599 89 600 46 z m 389 783 l 454 783 l 314 983 l 214 983 z "},"ú":{"ha":803,"x_min":0,"x_max":0,"o":"m 678 0 b 671 149 673 46 671 96 l 671 647 l 596 647 l 596 318 b 533 117 596 232 575 165 b 382 46 492 70 441 46 b 199 281 260 46 199 124 l 199 647 l 122 647 l 122 251 b 183 56 122 171 142 106 b 365 -18 223 7 284 -18 b 504 22 414 -18 461 -5 b 596 128 548 49 578 84 l 599 128 b 604 0 599 89 600 46 z m 576 983 l 476 983 l 336 783 l 401 783 z "},"û":{"ha":803,"x_min":0,"x_max":0,"o":"m 678 0 b 671 149 673 46 671 96 l 671 647 l 596 647 l 596 318 b 533 117 596 232 575 165 b 382 46 492 70 441 46 b 199 281 260 46 199 124 l 199 647 l 122 647 l 122 251 b 183 56 122 171 142 106 b 365 -18 223 7 284 -18 b 504 22 414 -18 461 -5 b 596 128 548 49 578 84 l 599 128 b 604 0 599 89 600 46 z m 440 983 l 351 983 l 203 783 l 276 783 l 396 943 l 515 783 l 589 783 z "},"ü":{"ha":803,"x_min":0,"x_max":0,"o":"m 678 0 b 671 149 673 46 671 96 l 671 647 l 596 647 l 596 318 b 533 117 596 232 575 165 b 382 46 492 70 441 46 b 199 281 260 46 199 124 l 199 647 l 122 647 l 122 251 b 183 56 122 171 142 106 b 365 -18 223 7 284 -18 b 504 22 414 -18 461 -5 b 596 128 548 49 578 84 l 599 128 b 604 0 599 89 600 46 z m 213 904 b 230 861 213 888 218 873 b 272 843 241 849 256 843 b 314 861 289 843 303 849 b 331 904 325 873 331 888 b 314 946 331 920 325 934 b 272 964 303 958 289 964 b 230 946 256 964 241 958 b 213 904 218 934 213 920 z m 464 904 b 481 861 464 888 469 873 b 522 843 492 849 506 843 b 565 861 539 843 553 849 b 582 904 576 873 582 888 b 565 946 582 920 576 934 b 522 964 553 958 539 964 b 481 946 506 964 492 958 b 464 904 469 934 464 920 z "},"ý":{"ha":653,"x_min":0,"x_max":0,"o":"m 117 -335 b 232 -296 165 -335 203 -322 b 306 -181 261 -270 285 -231 l 628 647 l 546 647 l 338 79 l 335 76 l 110 647 l 25 647 l 296 -4 l 240 -150 b 190 -238 225 -189 209 -218 b 114 -268 171 -258 145 -268 b 50 -257 91 -268 69 -264 l 40 -325 b 117 -335 68 -331 94 -335 z m 524 983 l 424 983 l 283 783 l 349 783 z "},"þ":{"ha":876,"x_min":0,"x_max":0,"o":"m 464 -18 b 701 79 559 -18 638 14 b 796 324 764 144 796 225 b 701 567 796 422 764 503 b 464 664 638 632 559 664 b 317 625 412 664 363 651 b 208 515 272 599 235 563 l 206 515 l 206 1050 l 132 1050 l 132 -333 l 206 -333 l 206 128 l 208 128 b 316 20 234 81 270 46 b 464 -18 362 -5 411 -18 z m 717 324 b 646 127 717 245 693 179 b 458 49 599 75 536 49 b 271 128 381 49 319 75 b 199 324 223 181 199 246 b 271 519 199 401 223 466 b 458 597 319 571 381 597 b 646 519 536 597 599 571 b 717 324 693 466 717 401 z "},"ÿ":{"ha":653,"x_min":0,"x_max":0,"o":"m 117 -335 b 232 -296 165 -335 203 -322 b 306 -181 261 -270 285 -231 l 628 647 l 546 647 l 338 79 l 335 76 l 110 647 l 25 647 l 296 -4 l 240 -150 b 190 -238 225 -189 209 -218 b 114 -268 171 -258 145 -268 b 50 -257 91 -268 69 -264 l 40 -325 b 117 -335 68 -331 94 -335 z m 151 904 b 169 861 151 888 157 873 b 211 843 180 849 194 843 b 253 861 228 843 242 849 b 269 904 264 873 269 888 b 253 946 269 920 264 934 b 211 964 242 958 228 964 b 169 946 194 964 180 958 b 151 904 157 934 151 920 z m 403 904 b 419 861 403 888 408 873 b 461 843 431 849 444 843 b 503 861 478 843 492 849 b 521 904 515 873 521 888 b 503 946 521 920 515 934 b 461 964 492 958 478 964 b 419 946 444 964 431 958 b 403 904 408 934 403 920 z "},"¤":{"ha":1169,"x_min":0,"x_max":0,"o":"m 863 653 l 988 778 l 938 826 l 901 790 b 849 737 882 771 864 753 b 811 700 833 721 820 708 b 586 779 750 753 675 779 b 358 699 498 779 422 752 l 231 826 l 182 778 b 219 740 190 769 203 756 b 272 687 235 723 253 706 b 310 650 292 668 304 656 b 239 429 263 590 239 516 b 315 203 239 338 264 262 l 182 69 l 229 21 l 364 154 b 586 78 426 103 500 78 b 807 151 671 78 745 102 b 939 21 818 142 862 99 l 988 69 l 857 200 b 936 429 910 263 936 339 b 863 653 936 516 912 591 z m 586 704 b 781 625 667 704 731 678 b 854 429 830 572 854 507 b 780 231 854 350 829 284 b 586 151 730 178 666 151 b 392 231 506 151 442 178 b 318 429 343 284 318 350 b 392 625 318 507 343 572 b 586 704 441 678 506 704 z "},"¦":{"ha":308,"x_min":0,"x_max":0,"o":"m 122 938 l 122 460 l 188 460 l 188 938 z m 122 236 l 122 -242 l 188 -242 l 188 236 z "},"¨":{"ha":333,"x_min":0,"x_max":0,"o":"m -18 904 b -1 861 -18 888 -12 873 b 42 843 11 849 25 843 b 83 861 58 843 72 849 b 100 904 94 873 100 888 b 83 946 100 920 94 934 b 42 964 72 958 58 964 b -1 946 25 964 11 958 b -18 904 -12 934 -18 920 z m 233 904 b 250 861 233 888 239 873 b 292 843 261 849 275 843 b 334 861 308 843 322 849 b 351 904 346 873 351 888 b 334 946 351 920 346 934 b 292 964 322 958 308 964 b 250 946 275 964 261 958 b 233 904 239 934 233 920 z "},"´":{"ha":333,"x_min":0,"x_max":0,"o":"m 335 983 l 235 983 l 94 783 l 160 783 z "},"¸":{"ha":333,"x_min":0,"x_max":0,"o":"m 208 0 l 158 0 l 69 -137 l 90 -156 b 161 -142 112 -146 135 -142 b 244 -201 217 -142 244 -162 b 213 -253 244 -225 234 -242 b 144 -269 191 -264 169 -269 b 39 -247 105 -269 69 -262 l 21 -290 b 150 -318 61 -309 104 -318 b 263 -290 193 -318 230 -309 b 311 -200 295 -272 311 -242 b 276 -127 311 -169 299 -144 b 194 -101 252 -110 225 -101 b 139 -108 171 -101 153 -104 z "},"¼":{"ha":1150,"x_min":0,"x_max":0,"o":"m 982 588 l 904 588 l 657 200 l 657 140 l 921 140 l 921 0 l 982 0 l 982 140 l 1069 140 l 1069 200 l 982 200 z m 921 499 l 921 200 l 726 200 l 917 499 z m 306 983 l 247 983 l 93 865 l 135 818 l 236 900 l 236 399 l 306 399 z m 904 994 l 847 1025 l 225 -11 l 283 -42 z "},"½":{"ha":1150,"x_min":0,"x_max":0,"o":"m 1067 60 l 778 60 l 960 249 b 1017 311 986 275 1005 296 b 1050 367 1029 326 1040 345 b 1065 439 1060 390 1065 414 b 1016 555 1065 488 1049 527 b 889 597 983 583 941 597 b 772 556 844 597 806 584 b 708 447 739 529 718 493 l 775 436 b 817 510 782 468 796 492 b 889 536 837 527 861 536 b 965 509 919 536 945 527 b 994 438 984 491 994 467 b 922 299 994 393 969 347 l 694 64 l 694 0 l 1067 0 z m 904 994 l 847 1025 l 225 -11 l 283 -42 z m 306 983 l 283 983 l 93 865 l 135 818 l 236 900 l 236 399 l 306 399 z "},"¾":{"ha":1150,"x_min":0,"x_max":0,"o":"m 921 0 l 982 0 l 982 140 l 1069 140 l 1069 200 l 982 200 l 982 588 l 904 588 l 657 200 l 657 140 l 921 140 z m 242 392 b 376 438 295 392 340 407 b 429 565 411 468 429 511 b 400 658 429 601 419 632 b 319 710 381 683 354 700 l 318 711 b 411 844 380 734 411 779 b 365 959 411 894 396 932 b 243 1000 334 986 293 1000 b 78 904 171 1000 116 968 l 132 875 b 240 942 157 919 193 942 b 315 915 270 942 295 933 b 346 844 336 897 346 873 b 312 765 346 810 334 784 b 219 736 289 746 258 736 l 186 736 l 186 679 l 219 679 b 321 651 259 679 293 670 b 363 567 349 633 363 605 b 328 482 363 531 351 502 b 242 451 306 462 277 451 b 167 474 215 451 190 459 b 117 536 145 488 128 509 l 54 514 b 242 392 89 432 152 392 z m 726 200 l 917 499 l 921 499 l 921 200 z m 904 994 l 847 1025 l 225 -11 l 283 -42 z "},"Ā":{"ha":958,"x_min":0,"x_max":0,"o":"m 215 265 l 742 265 l 853 0 l 940 0 l 522 983 l 443 983 l 17 0 l 104 0 z m 481 900 l 713 338 l 244 338 z m 661 1181 l 303 1181 l 303 1119 l 661 1119 z "},"ā":{"ha":732,"x_min":0,"x_max":0,"o":"m 303 -18 b 540 119 410 -18 489 28 l 543 119 b 554 0 543 84 547 44 l 622 0 b 611 146 615 39 611 88 l 611 429 b 543 604 611 506 588 564 b 363 664 498 644 438 664 b 121 575 263 664 182 634 l 163 525 b 356 601 215 576 280 601 b 539 421 478 601 539 541 l 539 392 l 474 392 b 329 383 419 392 371 389 b 206 353 288 378 247 368 b 113 287 166 339 135 317 b 81 175 91 257 81 219 b 149 31 81 111 103 63 b 303 -18 194 -2 245 -18 z m 321 44 b 206 77 276 44 238 55 b 158 179 174 99 158 133 b 490 332 158 281 269 332 l 539 332 l 539 279 b 483 113 539 214 520 159 b 321 44 445 67 391 44 z m 550 903 l 192 903 l 192 842 l 550 842 z "},"Ă":{"ha":958,"x_min":0,"x_max":0,"o":"m 215 265 l 742 265 l 853 0 l 940 0 l 522 983 l 443 983 l 17 0 l 104 0 z m 481 900 l 713 338 l 244 338 z m 628 1257 b 482 1138 613 1177 564 1138 b 388 1169 446 1138 415 1148 b 339 1257 362 1190 345 1219 l 288 1257 b 347 1124 292 1200 312 1156 b 482 1076 382 1092 427 1076 b 617 1124 537 1076 582 1092 b 678 1257 653 1156 673 1200 z "},"ă":{"ha":732,"x_min":0,"x_max":0,"o":"m 303 -18 b 540 119 410 -18 489 28 l 543 119 b 554 0 543 84 547 44 l 622 0 b 611 146 615 39 611 88 l 611 429 b 543 604 611 506 588 564 b 363 664 498 644 438 664 b 121 575 263 664 182 634 l 163 525 b 356 601 215 576 280 601 b 539 421 478 601 539 541 l 539 392 l 474 392 b 329 383 419 392 371 389 b 206 353 288 378 247 368 b 113 287 166 339 135 317 b 81 175 91 257 81 219 b 149 31 81 111 103 63 b 303 -18 194 -2 245 -18 z m 321 44 b 206 77 276 44 238 55 b 158 179 174 99 158 133 b 490 332 158 281 269 332 l 539 332 l 539 279 b 483 113 539 214 520 159 b 321 44 445 67 391 44 z m 519 979 b 374 860 505 900 456 860 b 280 891 338 860 306 870 b 231 979 253 912 237 941 l 179 979 b 239 847 184 923 204 878 b 374 799 274 815 319 799 b 509 847 428 799 473 815 b 569 979 545 878 565 923 z "},"Ą":{"ha":958,"x_min":0,"x_max":0,"o":"m 17 0 l 104 0 l 215 265 l 742 265 l 853 0 b 729 -193 770 -71 729 -136 b 765 -277 729 -227 741 -255 b 851 -310 789 -299 818 -310 b 972 -261 900 -310 940 -294 l 950 -217 b 872 -250 930 -239 904 -250 b 817 -230 850 -250 832 -243 b 796 -176 803 -216 796 -199 b 881 -32 796 -139 824 -91 b 908 -17 882 -29 892 -24 b 940 0 925 -10 936 -5 l 522 983 l 443 983 z m 481 900 l 713 338 l 244 338 z "},"ą":{"ha":732,"x_min":0,"x_max":0,"o":"m 303 -18 b 540 119 410 -18 489 28 l 543 119 b 554 0 543 84 547 44 l 556 0 b 431 -193 472 -71 431 -136 b 467 -277 431 -227 443 -255 b 553 -310 491 -299 519 -310 b 675 -261 600 -310 641 -294 l 651 -217 b 574 -250 632 -239 606 -250 b 519 -230 551 -250 533 -243 b 499 -176 506 -216 499 -199 b 524 -100 499 -150 507 -125 b 611 0 541 -75 570 -42 l 622 0 b 611 146 615 39 611 88 l 611 429 b 543 604 611 506 588 564 b 363 664 498 644 438 664 b 121 575 263 664 182 634 l 163 525 b 356 601 215 576 280 601 b 539 421 478 601 539 541 l 539 392 l 467 392 b 81 175 209 392 81 319 b 149 31 81 111 103 63 b 303 -18 194 -2 245 -18 z m 321 44 b 206 77 276 44 238 55 b 158 179 174 99 158 133 b 490 332 158 281 269 332 l 539 332 l 539 279 b 483 113 539 214 520 159 b 321 44 445 67 391 44 z "},"Ć":{"ha":1001,"x_min":0,"x_max":0,"o":"m 896 189 b 594 44 818 93 718 44 b 285 174 467 44 364 88 b 168 492 207 261 168 367 b 285 809 168 617 207 722 b 594 939 364 896 467 939 b 756 904 653 939 707 927 b 875 814 806 881 845 851 l 932 867 b 790 972 897 912 850 947 b 593 1010 731 997 665 1010 b 229 863 447 1010 325 961 b 85 492 133 766 85 642 b 228 120 85 342 132 218 b 592 -26 323 22 444 -26 b 950 146 743 -26 862 31 z m 763 1261 l 663 1261 l 522 1061 l 588 1061 z "},"ć":{"ha":686,"x_min":0,"x_max":0,"o":"m 647 563 b 417 664 594 630 517 664 b 176 568 319 664 238 632 b 82 324 113 504 82 423 b 174 78 82 224 113 142 b 415 -18 235 14 315 -18 b 651 85 513 -18 592 16 l 604 128 b 415 50 554 76 491 50 b 231 128 339 50 278 76 b 160 324 183 180 160 245 b 231 520 160 402 184 468 b 418 599 279 572 341 599 b 519 576 453 599 487 591 b 597 517 552 562 578 542 z m 594 983 l 494 983 l 354 783 l 419 783 z "},"Ĉ":{"ha":1001,"x_min":0,"x_max":0,"o":"m 896 189 b 594 44 818 93 718 44 b 285 174 467 44 364 88 b 168 492 207 261 168 367 b 285 809 168 617 207 722 b 594 939 364 896 467 939 b 756 904 653 939 707 927 b 875 814 806 881 845 851 l 932 867 b 790 972 897 912 850 947 b 593 1010 731 997 665 1010 b 229 863 447 1010 325 961 b 85 492 133 766 85 642 b 228 120 85 342 132 218 b 592 -26 323 22 444 -26 b 950 146 743 -26 862 31 z m 636 1261 l 547 1261 l 399 1061 l 472 1061 l 592 1221 l 711 1061 l 785 1061 z "},"ĉ":{"ha":686,"x_min":0,"x_max":0,"o":"m 647 563 b 417 664 594 630 517 664 b 176 568 319 664 238 632 b 82 324 113 504 82 423 b 174 78 82 224 113 142 b 415 -18 235 14 315 -18 b 651 85 513 -18 592 16 l 604 128 b 415 50 554 76 491 50 b 231 128 339 50 278 76 b 160 324 183 180 160 245 b 231 520 160 402 184 468 b 418 599 279 572 341 599 b 519 576 453 599 487 591 b 597 517 552 562 578 542 z m 461 983 l 372 983 l 224 783 l 297 783 l 417 943 l 536 783 l 610 783 z "},"Ċ":{"ha":1001,"x_min":0,"x_max":0,"o":"m 896 189 b 594 44 818 93 718 44 b 285 174 467 44 364 88 b 168 492 207 261 168 367 b 285 809 168 617 207 722 b 594 939 364 896 467 939 b 756 904 653 939 707 927 b 875 814 806 881 845 851 l 932 867 b 790 972 897 912 850 947 b 593 1010 731 997 665 1010 b 229 863 447 1010 325 961 b 85 492 133 766 85 642 b 228 120 85 342 132 218 b 592 -26 323 22 444 -26 b 950 146 743 -26 862 31 z m 642 1182 b 624 1222 642 1198 636 1211 b 585 1239 613 1233 600 1239 b 545 1222 570 1239 557 1233 b 528 1182 534 1211 528 1198 b 545 1142 528 1166 534 1153 b 585 1125 557 1131 570 1125 b 624 1142 600 1125 613 1131 b 642 1182 636 1153 642 1166 z "},"ċ":{"ha":686,"x_min":0,"x_max":0,"o":"m 647 563 b 417 664 594 630 517 664 b 176 568 319 664 238 632 b 82 324 113 504 82 423 b 174 78 82 224 113 142 b 415 -18 235 14 315 -18 b 651 85 513 -18 592 16 l 604 128 b 415 50 554 76 491 50 b 231 128 339 50 278 76 b 160 324 183 180 160 245 b 231 520 160 402 184 468 b 418 599 279 572 341 599 b 519 576 453 599 487 591 b 597 517 552 562 578 542 z m 467 904 b 449 944 467 920 461 933 b 410 961 438 956 425 961 b 370 944 395 961 382 956 b 353 904 359 933 353 920 b 370 864 353 888 359 875 b 410 847 382 853 395 847 b 449 864 425 847 438 853 b 467 904 461 875 467 888 z "},"Č":{"ha":1001,"x_min":0,"x_max":0,"o":"m 896 189 b 594 44 818 93 718 44 b 285 174 467 44 364 88 b 168 492 207 261 168 367 b 285 809 168 617 207 722 b 594 939 364 896 467 939 b 756 904 653 939 707 927 b 875 814 806 881 845 851 l 932 867 b 790 972 897 912 850 947 b 593 1010 731 997 665 1010 b 229 863 447 1010 325 961 b 85 492 133 766 85 642 b 228 120 85 342 132 218 b 592 -26 323 22 444 -26 b 950 146 743 -26 862 31 z m 785 1261 l 711 1261 l 592 1101 l 472 1261 l 399 1261 l 547 1061 l 636 1061 z "},"č":{"ha":686,"x_min":0,"x_max":0,"o":"m 647 563 b 417 664 594 630 517 664 b 176 568 319 664 238 632 b 82 324 113 504 82 423 b 174 78 82 224 113 142 b 415 -18 235 14 315 -18 b 651 85 513 -18 592 16 l 604 128 b 415 50 554 76 491 50 b 231 128 339 50 278 76 b 160 324 183 180 160 245 b 231 520 160 402 184 468 b 418 599 279 572 341 599 b 519 576 453 599 487 591 b 597 517 552 562 578 542 z m 610 983 l 536 983 l 417 824 l 297 983 l 224 983 l 372 783 l 461 783 z "},"Ď":{"ha":1057,"x_min":0,"x_max":0,"o":"m 136 0 l 447 0 b 641 31 515 0 579 10 b 808 120 703 51 758 81 b 928 276 858 159 898 211 b 972 492 957 340 972 412 b 928 708 972 571 957 643 b 808 863 898 772 858 824 b 641 953 758 903 703 932 b 447 983 579 973 515 983 l 136 983 z m 215 913 l 426 913 b 765 794 570 913 683 873 b 889 492 848 716 889 615 b 765 189 889 369 848 268 b 426 71 683 110 570 71 l 215 71 z m 678 1261 l 604 1261 l 485 1101 l 365 1261 l 292 1261 l 440 1061 l 529 1061 z "},"ď":{"ha":928,"x_min":0,"x_max":0,"o":"m 669 128 l 672 128 l 672 0 l 749 0 l 749 1050 l 672 1050 l 672 515 l 669 515 b 559 625 643 563 606 599 b 411 664 512 651 463 664 b 173 567 314 664 234 631 b 81 324 111 502 81 421 b 173 79 81 225 111 144 b 411 -18 234 14 314 -18 b 559 20 463 -18 512 -5 b 669 128 606 46 643 81 z m 160 324 b 230 522 160 402 183 468 b 418 601 277 575 339 601 b 606 522 494 601 557 575 b 681 324 656 468 681 402 b 606 126 681 245 656 179 b 418 47 557 74 494 47 b 230 126 339 47 277 74 b 160 324 183 179 160 245 z m 989 983 l 910 983 l 829 726 l 892 726 z "},"Đ":{"ha":1057,"x_min":0,"x_max":0,"o":"m 128 0 l 440 0 b 634 31 508 0 572 10 b 801 120 696 51 751 81 b 919 276 850 159 890 211 b 964 492 949 340 964 412 b 919 708 964 571 949 643 b 801 863 890 772 850 824 b 634 953 751 903 696 932 b 440 983 572 973 508 983 l 128 983 l 128 547 l 24 547 l 24 486 l 128 486 z m 207 486 l 569 486 l 569 547 l 207 547 l 207 911 l 415 911 b 756 794 561 911 674 872 b 879 492 838 717 879 616 b 756 190 879 369 838 268 b 415 72 673 111 560 72 l 207 72 z "},"đ":{"ha":881,"x_min":0,"x_max":0,"o":"m 432 847 l 432 792 l 672 792 l 672 515 l 669 515 b 559 625 643 563 606 599 b 411 664 512 651 463 664 b 173 567 314 664 234 631 b 81 324 111 502 81 421 b 173 79 81 225 111 144 b 411 -18 234 14 314 -18 b 559 20 463 -18 512 -5 b 669 128 606 46 643 81 l 672 128 l 672 0 l 749 0 l 749 792 l 832 792 l 832 847 l 749 847 l 749 1050 l 672 1050 l 672 847 z m 160 324 b 230 522 160 402 183 468 b 418 601 277 575 339 601 b 606 522 494 601 557 575 b 681 324 656 468 681 402 b 606 126 681 245 656 179 b 418 47 557 74 494 47 b 230 126 339 47 277 74 b 160 324 183 179 160 245 z "},"Ē":{"ha":821,"x_min":0,"x_max":0,"o":"m 214 476 l 701 476 l 701 546 l 214 546 l 214 913 l 735 913 l 735 983 l 136 983 l 136 0 l 753 0 l 753 71 l 214 71 z m 618 1181 l 260 1181 l 260 1119 l 618 1119 z "},"ē":{"ha":788,"x_min":0,"x_max":0,"o":"m 160 368 b 231 528 163 426 186 480 b 400 601 275 577 331 601 b 566 537 469 601 525 580 b 632 368 607 494 629 438 z m 408 -18 b 683 117 522 -18 614 27 l 633 157 b 411 47 571 84 497 47 b 231 124 337 47 277 73 b 158 308 184 176 160 237 l 707 308 l 707 347 b 627 573 707 437 680 512 b 401 664 574 634 499 664 b 173 567 311 664 234 632 b 81 325 111 503 81 422 b 174 79 81 226 112 144 b 408 -18 236 14 314 -18 z m 586 903 l 228 903 l 228 842 l 586 842 z "},"Ĕ":{"ha":821,"x_min":0,"x_max":0,"o":"m 214 476 l 701 476 l 701 546 l 214 546 l 214 913 l 735 913 l 735 983 l 136 983 l 136 0 l 753 0 l 753 71 l 214 71 z m 583 1257 b 438 1138 569 1177 520 1138 b 344 1169 401 1138 370 1148 b 294 1257 317 1190 301 1219 l 243 1257 b 303 1124 248 1200 268 1156 b 438 1076 338 1092 383 1076 b 573 1124 492 1076 537 1092 b 633 1257 609 1156 629 1200 z "},"ĕ":{"ha":788,"x_min":0,"x_max":0,"o":"m 160 368 b 231 528 163 426 186 480 b 400 601 275 577 331 601 b 566 537 469 601 525 580 b 632 368 607 494 629 438 z m 408 -18 b 683 117 522 -18 614 27 l 633 157 b 411 47 571 84 497 47 b 231 124 337 47 277 73 b 158 308 184 176 160 237 l 707 308 l 707 347 b 627 573 707 437 680 512 b 401 664 574 634 499 664 b 173 567 311 664 234 632 b 81 325 111 503 81 422 b 174 79 81 226 112 144 b 408 -18 236 14 314 -18 z m 551 979 b 406 860 537 900 488 860 b 312 891 369 860 338 870 b 263 979 285 912 269 941 l 211 979 b 271 847 216 923 236 878 b 406 799 306 815 351 799 b 541 847 460 799 505 815 b 601 979 577 878 597 923 z "},"Ė":{"ha":821,"x_min":0,"x_max":0,"o":"m 214 476 l 701 476 l 701 546 l 214 546 l 214 913 l 735 913 l 735 983 l 136 983 l 136 0 l 753 0 l 753 71 l 214 71 z m 501 1182 b 484 1222 501 1198 496 1211 b 444 1239 472 1233 459 1239 b 405 1222 430 1239 416 1233 b 388 1182 393 1211 388 1198 b 405 1142 388 1166 393 1153 b 444 1125 416 1131 430 1125 b 484 1142 459 1125 472 1131 b 501 1182 496 1153 501 1166 z "},"ė":{"ha":788,"x_min":0,"x_max":0,"o":"m 160 368 b 231 528 163 426 186 480 b 400 601 275 577 331 601 b 566 537 469 601 525 580 b 632 368 607 494 629 438 z m 408 -18 b 683 117 522 -18 614 27 l 633 157 b 411 47 571 84 497 47 b 231 124 337 47 277 73 b 158 308 184 176 160 237 l 707 308 l 707 347 b 627 573 707 437 680 512 b 401 664 574 634 499 664 b 173 567 311 664 234 632 b 81 325 111 503 81 422 b 174 79 81 226 112 144 b 408 -18 236 14 314 -18 z m 463 904 b 445 944 463 920 457 933 b 406 961 434 956 420 961 b 366 944 391 961 378 956 b 349 904 354 933 349 920 b 366 864 349 888 354 875 b 406 847 378 853 391 847 b 445 864 420 847 434 853 b 463 904 457 875 463 888 z "},"Ę":{"ha":821,"x_min":0,"x_max":0,"o":"m 771 -217 b 693 -250 750 -239 725 -250 b 639 -230 671 -250 653 -243 b 618 -176 625 -216 618 -199 b 644 -100 618 -150 627 -125 b 731 0 661 -75 690 -42 l 753 0 l 753 71 l 214 71 l 214 476 l 701 476 l 701 546 l 214 546 l 214 913 l 735 913 l 735 983 l 136 983 l 136 0 l 675 0 b 550 -193 592 -71 550 -136 b 586 -277 550 -227 562 -255 b 672 -310 610 -299 639 -310 b 794 -261 719 -310 760 -294 z "},"ę":{"ha":788,"x_min":0,"x_max":0,"o":"m 433 -310 b 556 -261 481 -310 521 -294 l 533 -217 b 454 -250 513 -239 487 -250 b 401 -230 433 -250 415 -243 b 379 -176 386 -216 379 -199 b 403 -103 379 -151 387 -127 b 481 -11 419 -79 444 -48 b 683 117 562 5 630 47 l 628 161 b 537 78 605 127 574 99 b 411 47 499 58 457 47 b 231 124 337 47 277 73 b 158 308 184 176 160 237 l 707 308 l 707 347 b 627 573 707 437 680 512 b 401 664 574 634 499 664 b 173 567 311 664 234 632 b 81 325 111 503 81 422 b 166 88 81 231 109 152 b 385 -17 223 25 296 -10 l 415 -17 b 311 -193 346 -81 311 -139 b 347 -277 311 -227 323 -255 b 433 -310 371 -299 400 -310 z m 160 368 b 231 528 163 426 186 480 b 400 601 275 577 331 601 b 566 537 469 601 525 580 b 632 368 607 494 629 438 z "},"Ě":{"ha":821,"x_min":0,"x_max":0,"o":"m 214 476 l 701 476 l 701 546 l 214 546 l 214 913 l 735 913 l 735 983 l 136 983 l 136 0 l 753 0 l 753 71 l 214 71 z m 632 1261 l 558 1261 l 439 1101 l 319 1261 l 246 1261 l 394 1061 l 483 1061 z "},"ě":{"ha":788,"x_min":0,"x_max":0,"o":"m 160 368 b 231 528 163 426 186 480 b 400 601 275 577 331 601 b 566 537 469 601 525 580 b 632 368 607 494 629 438 z m 408 -18 b 683 117 522 -18 614 27 l 633 157 b 411 47 571 84 497 47 b 231 124 337 47 277 73 b 158 308 184 176 160 237 l 707 308 l 707 347 b 627 573 707 437 680 512 b 401 664 574 634 499 664 b 173 567 311 664 234 632 b 81 325 111 503 81 422 b 174 79 81 226 112 144 b 408 -18 236 14 314 -18 z m 597 983 l 524 983 l 404 824 l 285 983 l 211 983 l 360 783 l 449 783 z "},"Ĝ":{"ha":1089,"x_min":0,"x_max":0,"o":"m 940 882 b 597 1010 853 967 739 1010 b 230 863 449 1010 327 961 b 85 493 133 766 85 642 b 229 121 85 343 133 219 b 599 -26 325 23 449 -26 b 961 67 737 -26 857 5 l 961 506 l 646 506 l 646 436 l 882 436 l 882 111 b 600 44 807 67 713 44 b 286 175 469 44 365 88 b 168 493 207 262 168 368 b 286 810 168 618 207 724 b 597 939 365 896 469 939 b 890 828 719 939 816 902 z m 643 1261 l 554 1261 l 406 1061 l 479 1061 l 599 1221 l 718 1061 l 792 1061 z "},"ĝ":{"ha":875,"x_min":0,"x_max":0,"o":"m 103 -210 b 407 -337 182 -295 284 -337 b 574 -306 472 -337 528 -327 b 681 -221 621 -285 656 -257 b 733 -109 705 -185 722 -147 b 749 15 743 -71 749 -29 l 749 647 l 672 647 l 672 515 l 669 515 b 560 625 644 563 607 599 b 411 664 514 651 464 664 b 173 567 314 664 234 631 b 81 326 111 502 81 422 b 172 88 81 230 111 151 b 411 -6 233 26 313 -6 b 562 33 464 -6 514 7 b 669 142 609 59 645 95 l 672 142 l 672 15 b 610 -191 672 -69 651 -138 b 410 -271 568 -244 501 -271 b 151 -158 308 -271 222 -233 z m 160 329 b 230 522 160 405 183 469 b 418 601 277 575 339 601 b 606 521 493 601 556 575 b 681 329 656 467 681 403 b 606 135 681 251 656 187 b 418 58 557 84 494 58 b 230 137 339 58 277 84 b 160 329 183 189 160 253 z m 471 983 l 382 983 l 233 783 l 307 783 l 426 943 l 546 783 l 619 783 z "},"Ğ":{"ha":1089,"x_min":0,"x_max":0,"o":"m 940 882 b 597 1010 853 967 739 1010 b 230 863 449 1010 327 961 b 85 493 133 766 85 642 b 229 121 85 343 133 219 b 599 -26 325 23 449 -26 b 961 67 737 -26 857 5 l 961 506 l 646 506 l 646 436 l 882 436 l 882 111 b 600 44 807 67 713 44 b 286 175 469 44 365 88 b 168 493 207 262 168 368 b 286 810 168 618 207 724 b 597 939 365 896 469 939 b 890 828 719 939 816 902 z m 742 1257 b 596 1138 727 1177 678 1138 b 502 1169 560 1138 528 1148 b 453 1257 476 1190 459 1219 l 401 1257 b 461 1124 406 1200 426 1156 b 596 1076 496 1092 541 1076 b 731 1124 650 1076 696 1092 b 792 1257 767 1156 787 1200 z "},"ğ":{"ha":875,"x_min":0,"x_max":0,"o":"m 103 -210 b 407 -337 182 -295 284 -337 b 574 -306 472 -337 528 -327 b 681 -221 621 -285 656 -257 b 733 -109 705 -185 722 -147 b 749 15 743 -71 749 -29 l 749 647 l 672 647 l 672 515 l 669 515 b 560 625 644 563 607 599 b 411 664 514 651 464 664 b 173 567 314 664 234 631 b 81 326 111 502 81 422 b 172 88 81 230 111 151 b 411 -6 233 26 313 -6 b 562 33 464 -6 514 7 b 669 142 609 59 645 95 l 672 142 l 672 15 b 610 -191 672 -69 651 -138 b 410 -271 568 -244 501 -271 b 151 -158 308 -271 222 -233 z m 160 329 b 230 522 160 405 183 469 b 418 601 277 575 339 601 b 606 521 493 601 556 575 b 681 329 656 467 681 403 b 606 135 681 251 656 187 b 418 58 557 84 494 58 b 230 137 339 58 277 84 b 160 329 183 189 160 253 z m 574 979 b 428 860 559 900 510 860 b 334 891 392 860 360 870 b 285 979 308 912 291 941 l 233 979 b 293 847 238 923 258 878 b 428 799 328 815 373 799 b 563 847 482 799 528 815 b 624 979 599 878 619 923 z "},"Ġ":{"ha":1089,"x_min":0,"x_max":0,"o":"m 940 882 b 597 1010 853 967 739 1010 b 230 863 449 1010 327 961 b 85 493 133 766 85 642 b 229 121 85 343 133 219 b 599 -26 325 23 449 -26 b 961 67 737 -26 857 5 l 961 506 l 646 506 l 646 436 l 882 436 l 882 111 b 600 44 807 67 713 44 b 286 175 469 44 365 88 b 168 493 207 262 168 368 b 286 810 168 618 207 724 b 597 939 365 896 469 939 b 890 828 719 939 816 902 z m 651 1182 b 634 1222 651 1198 646 1211 b 594 1239 622 1233 609 1239 b 555 1222 580 1239 566 1233 b 538 1182 543 1211 538 1198 b 555 1142 538 1166 543 1153 b 594 1125 566 1131 580 1125 b 634 1142 609 1125 622 1131 b 651 1182 646 1153 651 1166 z "},"ġ":{"ha":875,"x_min":0,"x_max":0,"o":"m 103 -210 b 407 -337 182 -295 284 -337 b 574 -306 472 -337 528 -327 b 681 -221 621 -285 656 -257 b 733 -109 705 -185 722 -147 b 749 15 743 -71 749 -29 l 749 647 l 672 647 l 672 515 l 669 515 b 560 625 644 563 607 599 b 411 664 514 651 464 664 b 173 567 314 664 234 631 b 81 326 111 502 81 422 b 172 88 81 230 111 151 b 411 -6 233 26 313 -6 b 562 33 464 -6 514 7 b 669 142 609 59 645 95 l 672 142 l 672 15 b 610 -191 672 -69 651 -138 b 410 -271 568 -244 501 -271 b 151 -158 308 -271 222 -233 z m 160 329 b 230 522 160 405 183 469 b 418 601 277 575 339 601 b 606 521 493 601 556 575 b 681 329 656 467 681 403 b 606 135 681 251 656 187 b 418 58 557 84 494 58 b 230 137 339 58 277 84 b 160 329 183 189 160 253 z m 483 904 b 466 944 483 920 478 933 b 426 961 454 956 441 961 b 387 944 412 961 398 956 b 369 904 375 933 369 920 b 387 864 369 888 375 875 b 426 847 398 853 412 847 b 466 864 441 847 454 853 b 483 904 478 875 483 888 z "},"Ģ":{"ha":1093,"x_min":0,"x_max":0,"o":"m 940 882 b 597 1010 853 967 739 1010 b 230 863 449 1010 327 961 b 85 493 133 766 85 642 b 229 121 85 343 133 219 b 599 -26 325 23 449 -26 b 961 67 737 -26 857 5 l 961 506 l 646 506 l 646 436 l 882 436 l 882 111 b 600 44 807 67 713 44 b 286 175 469 44 365 88 b 168 493 207 262 168 368 b 286 810 168 618 207 724 b 597 939 365 896 469 939 b 890 828 719 939 816 902 z m 656 -62 l 576 -62 l 494 -319 l 557 -319 z "},"ģ":{"ha":875,"x_min":0,"x_max":0,"o":"m 103 -210 b 407 -337 182 -295 284 -337 b 574 -306 472 -337 528 -327 b 681 -221 621 -285 656 -257 b 733 -109 705 -185 722 -147 b 749 15 743 -71 749 -29 l 749 647 l 672 647 l 672 515 l 669 515 b 560 625 644 563 607 599 b 411 664 514 651 464 664 b 173 567 314 664 234 631 b 81 326 111 502 81 422 b 172 88 81 230 111 151 b 411 -6 233 26 313 -6 b 562 33 464 -6 514 7 b 669 142 609 59 645 95 l 672 142 l 672 15 b 610 -191 672 -69 651 -138 b 410 -271 568 -244 501 -271 b 151 -158 308 -271 222 -233 z m 160 329 b 230 522 160 405 183 469 b 418 601 277 575 339 601 b 606 521 493 601 556 575 b 681 329 656 467 681 403 b 606 135 681 251 656 187 b 418 58 557 84 494 58 b 230 137 339 58 277 84 b 160 329 183 189 160 253 z m 389 783 l 468 783 l 550 1040 l 488 1040 z "},"Ĥ":{"ha":1003,"x_min":0,"x_max":0,"o":"m 136 0 l 215 0 l 215 474 l 789 474 l 789 0 l 868 0 l 868 983 l 789 983 l 789 547 l 215 547 l 215 983 l 136 983 z m 544 1261 l 456 1261 l 307 1061 l 381 1061 l 500 1221 l 619 1061 l 693 1061 z "},"ĥ":{"ha":804,"x_min":0,"x_max":0,"o":"m 207 521 l 207 1050 l 132 1050 l 132 0 l 207 0 l 207 329 b 269 529 207 415 228 482 b 421 600 311 576 362 600 b 606 367 544 600 606 522 l 606 0 l 681 0 l 681 394 b 620 590 681 475 660 540 b 438 664 580 639 519 664 b 303 627 388 664 344 652 b 210 521 262 603 231 567 z m 442 1306 l 353 1306 l 204 1106 l 278 1106 l 397 1265 l 517 1106 l 590 1106 z "},"Ħ":{"ha":1003,"x_min":0,"x_max":0,"o":"m 136 0 l 215 0 l 215 474 l 789 474 l 789 0 l 868 0 l 868 983 l 789 983 l 789 750 l 215 750 l 215 983 l 136 983 z m 215 547 l 215 694 l 789 694 l 789 547 z "},"ħ":{"ha":804,"x_min":0,"x_max":0,"o":"m 50 847 l 50 792 l 132 792 l 132 0 l 207 0 l 207 329 b 269 530 207 415 228 482 b 421 601 311 578 362 601 b 606 367 544 601 606 523 l 606 0 l 681 0 l 681 394 b 620 590 681 475 660 540 b 438 664 580 639 519 664 b 300 625 388 664 343 651 b 210 521 257 599 227 564 l 207 521 l 207 792 l 449 792 l 449 847 l 207 847 l 207 1050 l 132 1050 l 132 847 z "},"Ĩ":{"ha":350,"x_min":0,"x_max":0,"o":"m 215 983 l 136 983 l 136 0 l 215 0 z m 19 1085 b 85 1154 30 1131 51 1154 b 174 1122 100 1154 129 1143 b 272 1089 218 1100 251 1089 b 385 1218 333 1089 371 1132 l 336 1218 b 272 1150 326 1173 305 1150 b 183 1183 258 1150 229 1161 b 85 1215 138 1204 105 1215 b -29 1085 23 1215 -15 1172 z "},"ĩ":{"ha":338,"x_min":0,"x_max":0,"o":"m 207 647 l 131 647 l 131 0 l 207 0 z m 14 807 b 79 876 24 853 46 876 b 168 844 94 876 124 866 b 267 811 213 822 245 811 b 379 940 328 811 365 854 l 331 940 b 267 872 320 895 299 872 b 178 905 253 872 223 883 b 79 938 132 927 100 938 b -35 807 17 938 -21 894 z "},"Ī":{"ha":350,"x_min":0,"x_max":0,"o":"m 215 983 l 136 983 l 136 0 l 215 0 z m 356 1181 l -3 1181 l -3 1119 l 356 1119 z "},"ī":{"ha":338,"x_min":0,"x_max":0,"o":"m 207 647 l 131 647 l 131 0 l 207 0 z m 349 903 l -10 903 l -10 842 l 349 842 z "},"Ĭ":{"ha":350,"x_min":0,"x_max":0,"o":"m 215 983 l 136 983 l 136 0 l 215 0 z m 321 1257 b 175 1138 306 1177 257 1138 b 81 1169 139 1138 108 1148 b 32 1257 55 1190 38 1219 l -19 1257 b 40 1124 -15 1200 5 1156 b 175 1076 75 1092 120 1076 b 310 1124 230 1076 275 1092 b 371 1257 346 1156 366 1200 z "},"ĭ":{"ha":338,"x_min":0,"x_max":0,"o":"m 207 647 l 131 647 l 131 0 l 207 0 z m 314 979 b 168 860 299 900 250 860 b 74 891 132 860 101 870 b 25 979 48 912 31 941 l -26 979 b 33 847 -22 923 -2 878 b 168 799 69 815 113 799 b 303 847 223 799 268 815 b 364 979 339 878 359 923 z "},"Į":{"ha":350,"x_min":0,"x_max":0,"o":"m 150 -310 b 272 -261 197 -310 238 -294 l 250 -217 b 171 -250 230 -239 203 -250 b 117 -230 150 -250 132 -243 b 96 -176 103 -216 96 -199 b 112 -119 96 -158 101 -139 b 147 -69 122 -100 134 -83 b 215 0 160 -56 183 -32 l 215 983 l 136 983 l 136 0 l 153 0 b 28 -193 69 -71 28 -136 b 64 -277 28 -227 40 -255 b 150 -310 88 -299 117 -310 z "},"į":{"ha":338,"x_min":0,"x_max":0,"o":"m 144 -310 b 265 -261 193 -310 233 -294 l 243 -217 b 165 -250 223 -239 197 -250 b 110 -230 143 -250 125 -243 b 89 -176 96 -216 89 -199 b 115 -99 89 -150 97 -124 b 203 0 132 -75 161 -42 l 207 0 l 207 647 l 131 647 l 131 0 l 146 -1 b 22 -193 63 -71 22 -135 b 58 -277 22 -227 34 -255 b 144 -310 82 -299 111 -310 z m 168 847 b 208 864 183 847 196 853 b 225 904 219 875 225 888 b 208 944 225 920 219 933 b 168 961 196 956 183 961 b 129 944 153 961 140 956 b 113 904 118 933 113 920 b 129 864 113 888 118 875 b 168 847 140 853 153 847 z "},"İ":{"ha":350,"x_min":0,"x_max":0,"o":"m 215 983 l 136 983 l 136 0 l 215 0 z m 233 1182 b 216 1222 233 1198 228 1211 b 176 1239 204 1233 191 1239 b 137 1222 162 1239 148 1233 b 119 1182 125 1211 119 1198 b 137 1142 119 1166 125 1153 b 176 1125 148 1131 162 1125 b 216 1142 191 1125 204 1131 b 233 1182 228 1153 233 1166 z "},"ı":{"ha":338,"x_min":0,"x_max":0,"o":"m 207 647 l 131 647 l 131 0 l 207 0 z "},"Ĳ":{"ha":1008,"x_min":0,"x_max":0,"o":"m 215 983 l 136 983 l 136 0 l 215 0 z m 367 161 b 456 27 381 106 410 62 b 621 -25 501 -8 556 -25 b 746 1 669 -25 711 -16 b 826 74 781 19 808 43 b 867 170 845 104 859 136 b 881 279 876 204 881 240 l 881 983 l 801 983 l 801 285 b 614 44 801 125 739 44 b 503 83 570 44 533 57 b 439 182 472 108 451 141 z "},"ĳ":{"ha":674,"x_min":0,"x_max":0,"o":"m 303 -325 b 367 -333 319 -331 340 -333 b 504 -279 432 -333 478 -315 b 543 -131 530 -243 543 -194 l 543 647 l 468 647 l 468 -121 b 448 -231 468 -169 461 -206 b 365 -269 434 -257 407 -269 b 314 -262 350 -269 332 -267 z m 131 0 l 207 0 l 207 647 l 131 647 z m 168 847 b 208 864 183 847 196 853 b 225 904 219 875 225 888 b 208 944 225 920 219 933 b 168 961 196 956 183 961 b 129 944 153 961 140 956 b 113 904 118 933 113 920 b 129 864 113 888 118 875 b 168 847 140 853 153 847 z m 506 847 b 544 864 520 847 533 853 b 561 904 556 875 561 888 b 544 944 561 920 556 933 b 506 961 533 956 520 961 b 466 944 491 961 478 956 b 449 904 454 933 449 920 b 466 864 449 888 454 875 b 506 847 478 853 491 847 z "},"Ĵ":{"ha":678,"x_min":0,"x_max":0,"o":"m 36 161 b 125 27 50 106 80 62 b 292 -25 170 -8 226 -25 b 416 1 340 -25 381 -16 b 497 74 451 19 478 43 b 538 170 516 104 529 136 b 550 279 546 204 550 240 l 550 983 l 471 983 l 471 285 b 283 44 471 125 408 44 b 172 83 240 44 203 57 b 110 182 142 108 121 141 z m 553 1261 l 464 1261 l 315 1061 l 389 1061 l 508 1221 l 628 1061 l 701 1061 z "},"ĵ":{"ha":339,"x_min":0,"x_max":0,"o":"m -33 -325 b 32 -333 -18 -331 4 -333 b 168 -279 97 -333 142 -315 b 207 -131 194 -243 207 -194 l 207 647 l 132 647 l 132 -121 b 112 -231 132 -169 125 -206 b 31 -269 98 -257 71 -269 b -22 -262 14 -269 -4 -267 z m 213 983 l 124 983 l -25 783 l 49 783 l 168 943 l 288 783 l 361 783 z "},"Ķ":{"ha":846,"x_min":0,"x_max":0,"o":"m 215 983 l 136 983 l 136 0 l 215 0 l 215 525 l 717 0 l 832 0 l 308 536 l 806 983 l 692 983 l 215 539 z m 513 -62 l 433 -62 l 351 -319 l 414 -319 z "},"ķ":{"ha":682,"x_min":0,"x_max":0,"o":"m 207 1050 l 132 1050 l 132 0 l 207 0 l 207 340 l 211 340 l 551 0 l 663 0 l 297 350 l 628 647 l 519 647 l 211 353 l 207 353 z m 431 -61 l 351 -61 l 269 -318 l 332 -318 z "},"ĸ":{"ha":682,"x_min":0,"x_max":0,"o":"m 207 647 l 132 647 l 132 0 l 207 0 l 207 340 l 211 340 l 551 0 l 663 0 l 297 350 l 628 647 l 519 647 l 211 353 l 207 353 z "},"Ĺ":{"ha":703,"x_min":0,"x_max":0,"o":"m 215 983 l 136 983 l 136 0 l 682 0 l 682 71 l 215 71 z m 382 1261 l 282 1261 l 142 1061 l 207 1061 z "},"ĺ":{"ha":339,"x_min":0,"x_max":0,"o":"m 207 1050 l 132 1050 l 132 0 l 207 0 z m 374 1300 l 274 1300 l 133 1100 l 199 1100 z "},"Ļ":{"ha":703,"x_min":0,"x_max":0,"o":"m 215 983 l 136 983 l 136 0 l 682 0 l 682 71 l 215 71 z m 465 -62 l 386 -62 l 306 -319 l 368 -319 z "},"ļ":{"ha":339,"x_min":0,"x_max":0,"o":"m 207 1050 l 132 1050 l 132 0 l 207 0 z m 232 -61 l 153 -61 l 71 -318 l 133 -318 z "},"Ľ":{"ha":703,"x_min":0,"x_max":0,"o":"m 215 983 l 136 983 l 136 0 l 682 0 l 682 71 l 215 71 z m 483 983 l 406 983 l 324 726 l 386 726 z "},"ľ":{"ha":386,"x_min":0,"x_max":0,"o":"m 207 1050 l 132 1050 l 132 0 l 207 0 z m 446 983 l 367 983 l 286 726 l 349 726 z "},"Ŀ":{"ha":703,"x_min":0,"x_max":0,"o":"m 215 983 l 136 983 l 136 0 l 682 0 l 682 71 l 215 71 z m 493 599 b 476 639 493 614 488 628 b 438 656 465 650 452 656 b 398 639 423 656 409 650 b 381 599 386 628 381 614 b 398 558 381 583 386 569 b 438 542 409 547 423 542 b 476 558 452 542 465 547 b 493 599 488 569 493 583 z "},"ŀ":{"ha":404,"x_min":0,"x_max":0,"o":"m 207 1050 l 132 1050 l 132 0 l 207 0 z m 401 640 b 384 681 401 656 396 669 b 344 697 372 692 359 697 b 305 681 330 697 316 692 b 288 640 293 669 288 656 b 305 600 288 625 293 611 b 344 583 316 589 330 583 b 384 600 359 583 372 589 b 401 640 396 611 401 625 z "},"Ł":{"ha":703,"x_min":0,"x_max":0,"o":"m 215 983 l 136 983 l 136 422 l 29 329 l 29 250 l 136 343 l 136 0 l 682 0 l 682 71 l 215 71 l 215 399 l 511 658 l 511 736 l 215 478 z "},"ł":{"ha":339,"x_min":0,"x_max":0,"o":"m 207 1050 l 133 1050 l 133 554 l 28 449 l 28 367 l 133 472 l 133 0 l 207 0 l 207 533 l 317 642 l 317 722 l 207 614 z "},"Ń":{"ha":1067,"x_min":0,"x_max":0,"o":"m 236 983 l 136 983 l 136 0 l 215 0 l 215 875 l 218 875 l 831 0 l 931 0 l 931 983 l 851 983 l 851 114 l 849 114 z m 728 1261 l 628 1261 l 488 1061 l 553 1061 z "},"ń":{"ha":803,"x_min":0,"x_max":0,"o":"m 125 647 b 131 499 129 609 131 560 l 131 0 l 207 0 l 207 329 b 269 529 207 415 228 482 b 421 600 310 576 361 600 b 604 367 543 600 604 522 l 604 0 l 679 0 l 679 394 b 619 590 679 476 659 541 b 438 664 578 639 518 664 b 299 624 388 664 342 650 b 206 518 255 597 224 562 l 203 518 b 197 647 203 556 201 599 z m 592 983 l 492 983 l 351 783 l 417 783 z "},"Ņ":{"ha":1067,"x_min":0,"x_max":0,"o":"m 236 983 l 136 983 l 136 0 l 215 0 l 215 875 l 218 875 l 831 0 l 931 0 l 931 983 l 851 983 l 851 114 l 849 114 z m 581 -62 l 501 -62 l 419 -319 l 483 -319 z "},"ņ":{"ha":803,"x_min":0,"x_max":0,"o":"m 125 647 b 131 499 129 609 131 560 l 131 0 l 207 0 l 207 329 b 269 529 207 415 228 482 b 421 600 310 576 361 600 b 604 367 543 600 604 522 l 604 0 l 679 0 l 679 394 b 619 590 679 476 659 541 b 438 664 578 639 518 664 b 299 624 388 664 342 650 b 206 518 255 597 224 562 l 203 518 b 197 647 203 556 201 599 z m 464 -62 l 385 -62 l 303 -319 l 365 -319 z "},"Ň":{"ha":1067,"x_min":0,"x_max":0,"o":"m 236 983 l 136 983 l 136 0 l 215 0 l 215 875 l 218 875 l 831 0 l 931 0 l 931 983 l 851 983 l 851 114 l 849 114 z m 726 1261 l 653 1261 l 533 1101 l 414 1261 l 340 1261 l 489 1061 l 578 1061 z "},"ň":{"ha":803,"x_min":0,"x_max":0,"o":"m 125 647 b 131 499 129 609 131 560 l 131 0 l 207 0 l 207 329 b 269 529 207 415 228 482 b 421 600 310 576 361 600 b 604 367 543 600 604 522 l 604 0 l 679 0 l 679 394 b 619 590 679 476 659 541 b 438 664 578 639 518 664 b 299 624 388 664 342 650 b 206 518 255 597 224 562 l 203 518 b 197 647 203 556 201 599 z m 600 983 l 526 983 l 407 824 l 288 983 l 214 983 l 363 783 l 451 783 z "},"ŉ":{"ha":803,"x_min":0,"x_max":0,"o":"m 125 647 b 131 499 129 609 131 560 l 131 0 l 207 0 l 207 329 b 269 529 207 415 228 482 b 421 600 310 576 361 600 b 604 367 543 600 604 522 l 604 0 l 679 0 l 679 394 b 619 590 679 476 659 541 b 438 664 578 639 518 664 b 299 624 388 664 342 650 b 206 518 255 597 224 562 l 203 518 b 197 647 203 556 201 599 z m 157 1031 l 78 1031 l -3 774 l 60 774 z "},"Ŋ":{"ha":1067,"x_min":0,"x_max":0,"o":"m 136 0 l 215 0 l 215 875 l 218 875 l 856 -14 l 856 -121 b 835 -231 856 -169 849 -206 b 754 -269 822 -257 795 -269 b 701 -262 738 -269 720 -267 l 690 -325 b 756 -333 706 -331 728 -333 b 892 -279 820 -333 866 -315 b 931 -131 918 -243 931 -194 l 931 983 l 851 983 l 851 133 l 849 133 l 236 983 l 136 983 z "},"ŋ":{"ha":803,"x_min":0,"x_max":0,"o":"m 439 -325 b 504 -333 455 -331 476 -333 b 640 -279 569 -333 614 -315 b 679 -131 666 -243 679 -194 l 679 394 b 619 590 679 476 659 541 b 438 664 578 639 518 664 b 299 624 388 664 342 650 b 206 518 255 597 224 562 l 203 518 b 197 647 203 556 201 599 l 125 647 b 131 499 129 609 131 560 l 131 0 l 207 0 l 207 329 b 269 530 207 415 228 482 b 421 601 310 578 361 601 b 604 367 543 601 604 523 l 604 -121 b 584 -231 604 -169 597 -206 b 503 -269 571 -257 544 -269 b 450 -262 486 -269 469 -267 z "},"Ō":{"ha":1190,"x_min":0,"x_max":0,"o":"m 1106 492 b 960 863 1106 642 1057 766 b 594 1010 864 961 742 1010 b 230 863 448 1010 327 961 b 85 492 133 766 85 642 b 230 120 85 342 133 218 b 594 -26 327 22 448 -26 b 960 120 742 -26 864 22 b 1106 492 1057 218 1106 342 z m 1022 492 b 904 174 1022 367 983 261 b 594 44 825 88 722 44 b 286 174 468 44 365 88 b 168 492 207 261 168 367 b 286 809 168 617 207 722 b 594 939 365 896 468 939 b 903 809 721 939 824 896 b 1022 492 983 722 1022 617 z m 778 1181 l 419 1181 l 419 1119 l 778 1119 z "},"ō":{"ha":846,"x_min":0,"x_max":0,"o":"m 764 324 b 668 568 764 423 732 504 b 422 664 604 632 522 664 b 177 568 322 664 241 632 b 82 324 114 504 82 423 b 178 79 82 225 114 144 b 422 -18 242 14 323 -18 b 668 79 522 -18 604 14 b 764 324 732 144 764 225 z m 686 324 b 614 128 686 245 662 180 b 422 50 566 76 502 50 b 232 128 344 50 280 76 b 160 324 184 180 160 245 b 232 520 160 402 184 468 b 422 599 280 572 344 599 b 614 520 502 599 566 572 b 686 324 662 468 686 402 z m 603 903 l 244 903 l 244 842 l 603 842 z "},"Ŏ":{"ha":1190,"x_min":0,"x_max":0,"o":"m 1106 492 b 960 863 1106 642 1057 766 b 594 1010 864 961 742 1010 b 230 863 448 1010 327 961 b 85 492 133 766 85 642 b 230 120 85 342 133 218 b 594 -26 327 22 448 -26 b 960 120 742 -26 864 22 b 1106 492 1057 218 1106 342 z m 1022 492 b 904 174 1022 367 983 261 b 594 44 825 88 722 44 b 286 174 468 44 365 88 b 168 492 207 261 168 367 b 286 809 168 617 207 722 b 594 939 365 896 468 939 b 903 809 721 939 824 896 b 1022 492 983 722 1022 617 z m 743 1257 b 597 1138 728 1177 680 1138 b 503 1169 561 1138 530 1148 b 454 1257 477 1190 461 1219 l 403 1257 b 463 1124 407 1200 427 1156 b 597 1076 498 1092 543 1076 b 733 1124 652 1076 697 1092 b 793 1257 768 1156 788 1200 z "},"ŏ":{"ha":846,"x_min":0,"x_max":0,"o":"m 764 324 b 668 568 764 423 732 504 b 422 664 604 632 522 664 b 177 568 322 664 241 632 b 82 324 114 504 82 423 b 178 79 82 225 114 144 b 422 -18 242 14 323 -18 b 668 79 522 -18 604 14 b 764 324 732 144 764 225 z m 686 324 b 614 128 686 245 662 180 b 422 50 566 76 502 50 b 232 128 344 50 280 76 b 160 324 184 180 160 245 b 232 520 160 402 184 468 b 422 599 280 572 344 599 b 614 520 502 599 566 572 b 686 324 662 468 686 402 z m 569 979 b 424 860 555 900 506 860 b 330 891 388 860 356 870 b 281 979 303 912 287 941 l 229 979 b 289 847 234 923 254 878 b 424 799 324 815 369 799 b 559 847 478 799 523 815 b 619 979 595 878 615 923 z "},"Ő":{"ha":1190,"x_min":0,"x_max":0,"o":"m 1106 492 b 960 863 1106 642 1057 766 b 594 1010 864 961 742 1010 b 230 863 448 1010 327 961 b 85 492 133 766 85 642 b 230 120 85 342 133 218 b 594 -26 327 22 448 -26 b 960 120 742 -26 864 22 b 1106 492 1057 218 1106 342 z m 1022 492 b 904 174 1022 367 983 261 b 594 44 825 88 722 44 b 286 174 468 44 365 88 b 168 492 207 261 168 367 b 286 809 168 617 207 722 b 594 939 365 896 468 939 b 903 809 721 939 824 896 b 1022 492 983 722 1022 617 z m 453 1061 l 518 1061 l 693 1261 l 593 1261 z m 667 1061 l 732 1061 l 907 1261 l 807 1261 z "},"ő":{"ha":846,"x_min":0,"x_max":0,"o":"m 764 324 b 668 568 764 423 732 504 b 422 664 604 632 522 664 b 177 568 322 664 241 632 b 82 324 114 504 82 423 b 178 79 82 225 114 144 b 422 -18 242 14 323 -18 b 668 79 522 -18 604 14 b 764 324 732 144 764 225 z m 686 324 b 614 128 686 245 662 180 b 422 50 566 76 502 50 b 232 128 344 50 280 76 b 160 324 184 180 160 245 b 232 520 160 402 184 468 b 422 599 280 572 344 599 b 614 520 502 599 566 572 b 686 324 662 468 686 402 z m 286 783 l 351 783 l 526 983 l 426 983 z m 500 783 l 565 783 l 740 983 l 640 983 z "},"Ŕ":{"ha":831,"x_min":0,"x_max":0,"o":"m 215 471 l 400 471 l 681 0 l 776 0 l 486 476 b 672 550 560 482 622 506 b 747 726 722 594 747 652 b 419 983 747 898 638 983 l 136 983 l 136 0 l 215 0 z m 215 915 l 407 915 b 668 726 581 915 668 852 b 601 587 668 665 646 619 b 408 539 556 555 492 539 l 215 539 z m 564 1261 l 464 1261 l 324 1061 l 389 1061 z "},"ŕ":{"ha":482,"x_min":0,"x_max":0,"o":"m 131 499 l 131 0 l 207 0 l 207 332 b 263 524 207 413 225 476 b 408 594 300 571 348 594 b 461 589 431 594 448 593 l 469 658 b 418 664 458 662 441 664 b 290 625 371 664 328 651 b 206 518 251 599 223 563 l 203 518 b 197 647 203 556 201 599 l 125 647 b 131 499 129 609 131 560 z m 406 983 l 306 983 l 165 783 l 231 783 z "},"Ŗ":{"ha":831,"x_min":0,"x_max":0,"o":"m 215 471 l 400 471 l 681 0 l 776 0 l 486 476 b 672 550 560 482 622 506 b 747 726 722 594 747 652 b 419 983 747 898 638 983 l 136 983 l 136 0 l 215 0 z m 215 915 l 407 915 b 668 726 581 915 668 852 b 601 587 668 665 646 619 b 408 539 556 555 492 539 l 215 539 z m 490 -62 l 411 -62 l 329 -319 l 392 -319 z "},"ŗ":{"ha":482,"x_min":0,"x_max":0,"o":"m 131 499 l 131 0 l 207 0 l 207 332 b 263 524 207 413 225 476 b 408 594 300 571 348 594 b 461 589 431 594 448 593 l 469 658 b 418 664 458 662 441 664 b 290 625 371 664 328 651 b 206 518 251 599 223 563 l 203 518 b 197 647 203 556 201 599 l 125 647 b 131 499 129 609 131 560 z m 231 -62 l 151 -62 l 69 -319 l 132 -319 z "},"Ř":{"ha":831,"x_min":0,"x_max":0,"o":"m 215 471 l 400 471 l 681 0 l 776 0 l 486 476 b 672 550 560 482 622 506 b 747 726 722 594 747 652 b 419 983 747 898 638 983 l 136 983 l 136 0 l 215 0 z m 215 915 l 407 915 b 668 726 581 915 668 852 b 601 587 668 665 646 619 b 408 539 556 555 492 539 l 215 539 z m 585 1261 l 511 1261 l 392 1101 l 272 1261 l 199 1261 l 347 1061 l 436 1061 z "},"ř":{"ha":482,"x_min":0,"x_max":0,"o":"m 131 499 l 131 0 l 207 0 l 207 332 b 263 524 207 413 225 476 b 408 594 300 571 348 594 b 461 589 431 594 448 593 l 469 658 b 418 664 458 662 441 664 b 290 625 371 664 328 651 b 206 518 251 599 223 563 l 203 518 b 197 647 203 556 201 599 l 125 647 b 131 499 129 609 131 560 z m 482 983 l 408 983 l 289 824 l 169 983 l 96 983 l 244 783 l 333 783 z "},"Ś":{"ha":786,"x_min":0,"x_max":0,"o":"m 682 893 b 413 1010 623 971 533 1010 b 194 940 329 1010 256 987 b 101 743 132 894 101 828 b 130 622 101 696 111 655 b 203 542 149 588 173 561 b 304 493 234 523 267 507 b 415 453 341 479 378 466 b 515 411 451 441 484 427 b 588 347 545 395 569 374 b 617 247 607 319 617 286 b 547 98 617 184 593 134 b 383 43 500 61 445 43 b 142 164 291 43 210 83 l 86 115 b 383 -26 158 21 257 -26 b 604 46 469 -26 542 -2 b 697 251 666 94 697 163 b 669 374 697 299 688 339 b 594 453 650 408 625 434 b 494 503 564 472 530 489 b 384 542 457 517 421 530 b 283 582 347 554 314 567 b 209 644 253 597 228 618 b 181 743 190 671 181 704 b 250 890 181 806 204 855 b 408 942 296 924 349 942 b 625 842 498 942 570 908 z m 586 1261 l 486 1261 l 346 1061 l 411 1061 z "},"ś":{"ha":604,"x_min":0,"x_max":0,"o":"m 526 554 b 438 635 506 589 477 616 b 308 664 400 654 356 664 b 152 618 247 664 195 649 b 88 483 109 588 88 543 b 126 376 88 439 100 403 b 221 320 152 350 184 331 b 331 291 258 309 295 300 b 425 250 368 282 399 269 b 464 174 451 231 464 206 b 417 78 464 131 448 99 b 304 47 386 58 349 47 b 197 75 265 47 229 56 b 118 147 164 94 138 118 l 58 104 b 304 -17 113 24 195 -17 b 470 33 369 -17 424 0 b 539 179 516 66 539 114 b 485 299 539 230 521 270 b 322 365 449 327 394 350 b 197 410 264 378 222 393 b 160 489 172 428 160 454 b 203 573 160 526 174 554 b 306 601 233 592 267 601 b 468 513 379 601 433 572 z m 499 983 l 399 983 l 258 783 l 324 783 z "},"Ŝ":{"ha":786,"x_min":0,"x_max":0,"o":"m 682 893 b 413 1010 623 971 533 1010 b 194 940 329 1010 256 987 b 101 743 132 894 101 828 b 130 622 101 696 111 655 b 203 542 149 588 173 561 b 304 493 234 523 267 507 b 415 453 341 479 378 466 b 515 411 451 441 484 427 b 588 347 545 395 569 374 b 617 247 607 319 617 286 b 547 98 617 184 593 134 b 383 43 500 61 445 43 b 142 164 291 43 210 83 l 86 115 b 383 -26 158 21 257 -26 b 604 46 469 -26 542 -2 b 697 251 666 94 697 163 b 669 374 697 299 688 339 b 594 453 650 408 625 434 b 494 503 564 472 530 489 b 384 542 457 517 421 530 b 283 582 347 554 314 567 b 209 644 253 597 228 618 b 181 743 190 671 181 704 b 250 890 181 806 204 855 b 408 942 296 924 349 942 b 625 842 498 942 570 908 z m 454 1261 l 365 1261 l 217 1061 l 290 1061 l 410 1221 l 529 1061 l 603 1061 z "},"ŝ":{"ha":604,"x_min":0,"x_max":0,"o":"m 526 554 b 438 635 506 589 477 616 b 308 664 400 654 356 664 b 152 618 247 664 195 649 b 88 483 109 588 88 543 b 126 376 88 439 100 403 b 221 320 152 350 184 331 b 331 291 258 309 295 300 b 425 250 368 282 399 269 b 464 174 451 231 464 206 b 417 78 464 131 448 99 b 304 47 386 58 349 47 b 197 75 265 47 229 56 b 118 147 164 94 138 118 l 58 104 b 304 -17 113 24 195 -17 b 470 33 369 -17 424 0 b 539 179 516 66 539 114 b 485 299 539 230 521 270 b 322 365 449 327 394 350 b 197 410 264 378 222 393 b 160 489 172 428 160 454 b 203 573 160 526 174 554 b 306 601 233 592 267 601 b 468 513 379 601 433 572 z m 357 983 l 268 983 l 119 783 l 193 783 l 313 943 l 432 783 l 506 783 z "},"Ş":{"ha":786,"x_min":0,"x_max":0,"o":"m 682 893 b 413 1010 623 971 533 1010 b 194 940 329 1010 256 987 b 101 743 132 894 101 828 b 130 622 101 696 111 655 b 203 542 149 588 173 561 b 304 493 234 523 267 507 b 415 453 341 479 378 466 b 515 411 451 441 484 427 b 588 347 545 395 569 374 b 617 247 607 319 617 286 b 547 98 617 184 593 134 b 383 43 500 61 445 43 b 142 164 291 43 210 83 l 86 115 b 360 -25 154 27 245 -19 l 288 -137 l 308 -156 b 379 -142 330 -146 353 -142 b 463 -201 435 -142 463 -162 b 431 -253 463 -225 452 -242 b 363 -269 409 -264 387 -269 b 257 -247 323 -269 288 -262 l 239 -290 b 368 -318 279 -309 322 -318 b 481 -290 411 -318 448 -309 b 529 -200 513 -272 529 -242 b 494 -127 529 -169 517 -144 b 413 -101 470 -110 443 -101 b 357 -108 389 -101 371 -104 l 410 -25 b 614 54 490 -19 558 7 b 697 251 669 101 697 167 b 669 374 697 299 688 339 b 594 453 650 408 625 434 b 494 503 564 472 530 489 b 384 542 457 517 421 530 b 283 582 347 554 314 567 b 209 644 253 597 228 618 b 181 743 190 671 181 704 b 250 890 181 806 204 855 b 408 942 296 924 349 942 b 625 842 498 942 570 908 z "},"ş":{"ha":604,"x_min":0,"x_max":0,"o":"m 526 554 b 438 635 506 589 477 616 b 308 664 400 654 356 664 b 152 618 247 664 195 649 b 88 483 109 588 88 543 b 126 376 88 439 100 403 b 221 320 152 350 184 331 b 331 291 258 309 295 300 b 425 250 368 282 399 269 b 464 174 451 231 464 206 b 417 78 464 131 448 99 b 304 47 386 58 349 47 b 197 75 265 47 229 56 b 118 147 164 94 138 118 l 58 104 b 283 -15 108 29 183 -11 l 206 -137 l 226 -156 b 297 -142 248 -146 271 -142 b 381 -201 353 -142 381 -162 b 349 -253 381 -225 370 -242 b 281 -269 327 -264 305 -269 b 175 -247 241 -269 206 -262 l 157 -290 b 286 -318 197 -309 240 -318 b 399 -290 329 -318 366 -309 b 447 -200 431 -272 447 -242 b 412 -127 447 -169 435 -144 b 331 -101 388 -110 361 -101 b 275 -108 307 -101 289 -104 l 335 -15 b 481 42 393 -10 442 9 b 539 179 519 74 539 120 b 485 299 539 230 521 270 b 322 365 449 327 394 350 b 197 410 264 378 222 393 b 160 489 172 428 160 454 b 203 573 160 526 174 554 b 306 601 233 592 267 601 b 468 513 379 601 433 572 z "},"Ţ":{"ha":779,"x_min":0,"x_max":0,"o":"m 429 913 l 760 913 l 760 983 l 19 983 l 19 913 l 350 913 l 350 0 l 429 0 z m 451 -62 l 372 -62 l 292 -319 l 354 -319 z "},"ţ":{"ha":435,"x_min":0,"x_max":0,"o":"m 408 647 l 224 647 l 224 832 l 147 832 l 147 647 l 13 647 l 13 583 l 149 583 l 149 156 b 194 28 149 97 164 55 b 307 -11 224 2 262 -11 b 410 7 342 -11 376 -5 l 406 72 b 326 54 380 60 353 54 b 250 81 293 54 268 63 b 224 174 232 99 224 130 l 224 583 l 408 583 z m 332 -62 l 253 -62 l 172 -319 l 235 -319 z "},"Ť":{"ha":779,"x_min":0,"x_max":0,"o":"m 429 913 l 760 913 l 760 983 l 19 983 l 19 913 l 350 913 l 350 0 l 429 0 z m 582 1261 l 508 1261 l 389 1101 l 269 1261 l 196 1261 l 344 1061 l 433 1061 z "},"ť":{"ha":449,"x_min":0,"x_max":0,"o":"m 408 647 l 224 647 l 224 832 l 147 832 l 147 647 l 13 647 l 13 583 l 149 583 l 149 156 b 194 28 149 97 164 55 b 307 -11 224 2 262 -11 b 410 7 342 -11 376 -5 l 406 72 b 326 54 380 60 353 54 b 250 81 293 54 268 63 b 224 174 232 99 224 130 l 224 583 l 408 583 z m 474 1015 l 394 1015 l 314 758 l 376 758 z "},"Ŧ":{"ha":779,"x_min":0,"x_max":0,"o":"m 96 756 l 96 699 l 350 699 l 350 0 l 429 0 l 429 699 l 674 699 l 674 756 l 429 756 l 429 913 l 760 913 l 760 983 l 19 983 l 19 913 l 350 913 l 350 756 z "},"ŧ":{"ha":435,"x_min":0,"x_max":0,"o":"m 24 421 l 24 365 l 149 365 l 149 156 b 194 28 149 97 164 55 b 307 -11 224 2 262 -11 b 410 7 342 -11 376 -5 l 406 72 b 326 54 380 60 353 54 b 250 81 293 54 268 63 b 224 174 232 99 224 130 l 224 365 l 393 365 l 393 421 l 224 421 l 224 583 l 408 583 l 408 647 l 224 647 l 224 832 l 147 832 l 147 647 l 13 647 l 13 583 l 149 583 l 149 421 z "},"Ũ":{"ha":996,"x_min":0,"x_max":0,"o":"m 497 -26 b 677 9 567 -26 627 -15 b 792 104 728 33 766 64 b 850 229 819 144 838 186 b 868 368 862 273 868 319 l 868 983 l 789 983 l 789 378 b 775 258 789 335 784 295 b 729 152 766 220 750 185 b 638 74 708 119 678 93 b 497 44 599 54 552 44 b 379 65 453 44 413 51 b 296 117 345 78 317 95 b 243 193 275 138 257 163 b 215 283 229 223 220 253 b 207 378 209 313 207 344 l 207 983 l 128 983 l 128 368 b 146 229 128 319 134 273 b 203 104 158 186 177 144 b 319 9 230 64 268 33 b 497 -26 369 -15 429 -26 z m 340 1085 b 406 1154 350 1131 372 1154 b 494 1122 420 1154 450 1143 b 593 1089 539 1100 572 1089 b 706 1218 654 1089 692 1132 l 657 1218 b 593 1150 647 1173 625 1150 b 504 1183 579 1150 550 1161 b 406 1215 459 1204 426 1215 b 292 1085 344 1215 306 1172 z "},"ũ":{"ha":803,"x_min":0,"x_max":0,"o":"m 678 0 b 671 149 673 46 671 96 l 671 647 l 596 647 l 596 318 b 533 117 596 232 575 165 b 382 46 492 70 441 46 b 199 281 260 46 199 124 l 199 647 l 122 647 l 122 251 b 183 56 122 171 142 106 b 365 -18 223 7 284 -18 b 504 22 414 -18 461 -5 b 596 128 548 49 578 84 l 599 128 b 604 0 599 89 600 46 z m 243 807 b 308 876 253 853 275 876 b 397 844 323 876 353 866 b 496 811 442 822 475 811 b 608 940 557 811 594 854 l 560 940 b 496 872 550 895 528 872 b 407 905 482 872 452 883 b 308 938 362 927 329 938 b 194 807 246 938 208 894 z "},"Ū":{"ha":996,"x_min":0,"x_max":0,"o":"m 497 -26 b 677 9 567 -26 627 -15 b 792 104 728 33 766 64 b 850 229 819 144 838 186 b 868 368 862 273 868 319 l 868 983 l 789 983 l 789 378 b 775 258 789 335 784 295 b 729 152 766 220 750 185 b 638 74 708 119 678 93 b 497 44 599 54 552 44 b 379 65 453 44 413 51 b 296 117 345 78 317 95 b 243 193 275 138 257 163 b 215 283 229 223 220 253 b 207 378 209 313 207 344 l 207 983 l 128 983 l 128 368 b 146 229 128 319 134 273 b 203 104 158 186 177 144 b 319 9 230 64 268 33 b 497 -26 369 -15 429 -26 z m 678 1181 l 319 1181 l 319 1119 l 678 1119 z "},"ū":{"ha":803,"x_min":0,"x_max":0,"o":"m 678 0 b 671 149 673 46 671 96 l 671 647 l 596 647 l 596 318 b 533 117 596 232 575 165 b 382 46 492 70 441 46 b 199 281 260 46 199 124 l 199 647 l 122 647 l 122 251 b 183 56 122 171 142 106 b 365 -18 223 7 284 -18 b 504 22 414 -18 461 -5 b 596 128 548 49 578 84 l 599 128 b 604 0 599 89 600 46 z m 578 903 l 219 903 l 219 842 l 578 842 z "},"Ŭ":{"ha":996,"x_min":0,"x_max":0,"o":"m 497 -26 b 677 9 567 -26 627 -15 b 792 104 728 33 766 64 b 850 229 819 144 838 186 b 868 368 862 273 868 319 l 868 983 l 789 983 l 789 378 b 775 258 789 335 784 295 b 729 152 766 220 750 185 b 638 74 708 119 678 93 b 497 44 599 54 552 44 b 379 65 453 44 413 51 b 296 117 345 78 317 95 b 243 193 275 138 257 163 b 215 283 229 223 220 253 b 207 378 209 313 207 344 l 207 983 l 128 983 l 128 368 b 146 229 128 319 134 273 b 203 104 158 186 177 144 b 319 9 230 64 268 33 b 497 -26 369 -15 429 -26 z m 643 1257 b 497 1138 628 1177 580 1138 b 403 1169 461 1138 430 1148 b 354 1257 377 1190 361 1219 l 303 1257 b 363 1124 307 1200 327 1156 b 497 1076 398 1092 443 1076 b 633 1124 552 1076 597 1092 b 693 1257 668 1156 688 1200 z "},"ŭ":{"ha":803,"x_min":0,"x_max":0,"o":"m 678 0 b 671 149 673 46 671 96 l 671 647 l 596 647 l 596 318 b 533 117 596 232 575 165 b 382 46 492 70 441 46 b 199 281 260 46 199 124 l 199 647 l 122 647 l 122 251 b 183 56 122 171 142 106 b 365 -18 223 7 284 -18 b 504 22 414 -18 461 -5 b 596 128 548 49 578 84 l 599 128 b 604 0 599 89 600 46 z m 546 979 b 400 860 531 900 482 860 b 306 891 364 860 333 870 b 257 979 280 912 263 941 l 206 979 b 265 847 210 923 230 878 b 400 799 300 815 345 799 b 535 847 455 799 500 815 b 596 979 571 878 591 923 z "},"Ů":{"ha":996,"x_min":0,"x_max":0,"o":"m 497 -26 b 677 9 567 -26 627 -15 b 792 104 728 33 766 64 b 850 229 819 144 838 186 b 868 368 862 273 868 319 l 868 983 l 789 983 l 789 378 b 775 258 789 335 784 295 b 729 152 766 220 750 185 b 638 74 708 119 678 93 b 497 44 599 54 552 44 b 379 65 453 44 413 51 b 296 117 345 78 317 95 b 243 193 275 138 257 163 b 215 283 229 223 220 253 b 207 378 209 313 207 344 l 207 983 l 128 983 l 128 368 b 146 229 128 319 134 273 b 203 104 158 186 177 144 b 319 9 230 64 268 33 b 497 -26 369 -15 429 -26 z m 633 1181 b 594 1274 633 1218 620 1249 b 500 1313 567 1300 536 1313 b 406 1274 464 1313 433 1300 b 367 1181 380 1249 367 1218 b 406 1087 367 1144 380 1112 b 500 1049 433 1061 464 1049 b 594 1087 536 1049 567 1061 b 633 1181 620 1112 633 1144 z m 590 1181 b 564 1117 590 1156 581 1134 b 500 1090 546 1099 525 1090 b 436 1117 475 1090 454 1099 b 410 1181 419 1134 410 1156 b 436 1244 410 1206 419 1227 b 500 1271 454 1262 475 1271 b 564 1244 525 1271 546 1262 b 590 1181 581 1227 590 1206 z "},"ů":{"ha":803,"x_min":0,"x_max":0,"o":"m 678 0 b 671 149 673 46 671 96 l 671 647 l 596 647 l 596 318 b 533 117 596 232 575 165 b 382 46 492 70 441 46 b 199 281 260 46 199 124 l 199 647 l 122 647 l 122 251 b 183 56 122 171 142 106 b 365 -18 223 7 284 -18 b 504 22 414 -18 461 -5 b 596 128 548 49 578 84 l 599 128 b 604 0 599 89 600 46 z m 532 903 b 492 997 532 940 519 971 b 399 1035 466 1022 435 1035 b 305 997 363 1035 331 1022 b 265 903 278 971 265 940 b 305 809 265 866 278 834 b 399 771 331 784 363 771 b 492 809 435 771 466 784 b 532 903 519 834 532 866 z m 489 903 b 463 839 489 878 480 856 b 399 813 445 821 424 813 b 335 839 374 813 352 821 b 308 903 317 856 308 878 b 335 967 308 928 317 949 b 399 993 352 984 374 993 b 463 967 424 993 445 984 b 489 903 480 949 489 928 z "},"Ű":{"ha":996,"x_min":0,"x_max":0,"o":"m 497 -26 b 677 9 567 -26 627 -15 b 792 104 728 33 766 64 b 850 229 819 144 838 186 b 868 368 862 273 868 319 l 868 983 l 789 983 l 789 378 b 775 258 789 335 784 295 b 729 152 766 220 750 185 b 638 74 708 119 678 93 b 497 44 599 54 552 44 b 379 65 453 44 413 51 b 296 117 345 78 317 95 b 243 193 275 138 257 163 b 215 283 229 223 220 253 b 207 378 209 313 207 344 l 207 983 l 128 983 l 128 368 b 146 229 128 319 134 273 b 203 104 158 186 177 144 b 319 9 230 64 268 33 b 497 -26 369 -15 429 -26 z m 349 1061 l 414 1061 l 589 1261 l 489 1261 z m 563 1061 l 628 1061 l 803 1261 l 703 1261 z "},"ű":{"ha":803,"x_min":0,"x_max":0,"o":"m 678 0 b 671 149 673 46 671 96 l 671 647 l 596 647 l 596 318 b 533 117 596 232 575 165 b 382 46 492 70 441 46 b 199 281 260 46 199 124 l 199 647 l 122 647 l 122 251 b 183 56 122 171 142 106 b 365 -18 223 7 284 -18 b 504 22 414 -18 461 -5 b 596 128 548 49 578 84 l 599 128 b 604 0 599 89 600 46 z m 251 783 l 317 783 l 492 983 l 392 983 z m 465 783 l 531 783 l 706 983 l 606 983 z "},"Ų":{"ha":996,"x_min":0,"x_max":0,"o":"m 510 -25 b 414 -193 446 -85 414 -141 b 450 -277 414 -227 426 -255 b 536 -310 474 -299 503 -310 b 658 -261 585 -310 626 -294 l 636 -217 b 557 -250 616 -239 589 -250 b 503 -230 536 -250 518 -243 b 482 -176 489 -216 482 -199 b 504 -105 482 -151 489 -128 b 576 -19 519 -82 543 -54 b 716 32 630 -11 677 6 b 807 127 755 58 786 90 b 853 243 828 165 844 203 b 868 368 863 283 868 325 l 868 983 l 789 983 l 789 378 b 775 258 789 335 784 295 b 729 152 766 220 750 185 b 638 74 708 119 678 93 b 497 44 599 54 552 44 b 379 65 453 44 413 51 b 296 117 345 78 317 95 b 243 193 275 138 257 163 b 215 283 229 223 220 253 b 207 378 209 313 207 344 l 207 983 l 128 983 l 128 368 b 138 258 128 330 131 294 b 174 153 144 223 156 188 b 240 62 191 118 213 87 b 345 -1 267 36 302 16 b 493 -25 388 -17 438 -25 z "},"ų":{"ha":803,"x_min":0,"x_max":0,"o":"m 603 -310 b 725 -261 650 -310 691 -294 l 701 -217 b 624 -250 681 -239 655 -250 b 569 -230 601 -250 583 -243 b 549 -176 556 -216 549 -199 b 574 -99 549 -150 557 -124 b 660 -1 591 -74 620 -41 b 669 0 661 -1 664 -1 l 678 0 b 671 149 673 46 671 96 l 671 647 l 596 647 l 596 318 b 533 117 596 232 575 165 b 382 46 492 70 441 46 b 199 281 260 46 199 124 l 199 647 l 122 647 l 122 251 b 183 56 122 171 142 106 b 365 -18 223 7 284 -18 b 504 22 414 -18 461 -5 b 596 128 548 49 578 84 l 599 128 b 604 0 599 89 600 46 l 606 0 b 481 -193 522 -71 481 -136 b 517 -277 481 -227 493 -255 b 603 -310 541 -299 569 -310 z "},"Ŵ":{"ha":1343,"x_min":0,"x_max":0,"o":"m 108 983 l 25 983 l 317 0 l 413 0 l 669 878 l 672 878 l 931 0 l 1026 0 l 1318 983 l 1235 983 l 982 104 l 978 104 l 721 983 l 622 983 l 367 104 l 364 104 z m 715 1261 l 626 1261 l 478 1061 l 551 1061 l 671 1221 l 790 1061 l 864 1061 z "},"ŵ":{"ha":1017,"x_min":0,"x_max":0,"o":"m 39 647 l 239 0 l 324 0 l 506 550 l 508 550 l 692 0 l 776 0 l 976 647 l 897 647 l 736 94 l 733 94 l 546 647 l 469 647 l 285 94 l 282 94 l 119 647 z m 550 983 l 461 983 l 313 783 l 386 783 l 506 943 l 625 783 l 699 783 z "},"Ŷ":{"ha":810,"x_min":0,"x_max":0,"o":"m 444 425 l 803 983 l 711 983 l 407 493 l 104 983 l 6 983 l 365 425 l 365 0 l 444 0 z m 451 1261 l 363 1261 l 214 1061 l 288 1061 l 407 1221 l 526 1061 l 600 1061 z "},"ŷ":{"ha":653,"x_min":0,"x_max":0,"o":"m 117 -335 b 232 -296 165 -335 203 -322 b 306 -181 261 -270 285 -231 l 628 647 l 546 647 l 338 79 l 335 76 l 110 647 l 25 647 l 296 -4 l 240 -150 b 190 -238 225 -189 209 -218 b 114 -268 171 -258 145 -268 b 50 -257 91 -268 69 -264 l 40 -325 b 117 -335 68 -331 94 -335 z m 379 983 l 290 983 l 142 783 l 215 783 l 335 943 l 454 783 l 528 783 z "},"Ź":{"ha":804,"x_min":0,"x_max":0,"o":"m 744 983 l 68 983 l 68 913 l 649 913 l 53 69 l 53 0 l 756 0 l 756 71 l 150 71 l 744 913 z m 590 1261 l 490 1261 l 350 1061 l 415 1061 z "},"ź":{"ha":613,"x_min":0,"x_max":0,"o":"m 546 647 l 71 647 l 71 583 l 449 583 l 50 56 l 50 0 l 561 0 l 561 65 l 149 65 l 546 590 z m 499 983 l 399 983 l 258 783 l 324 783 z "},"Ż":{"ha":804,"x_min":0,"x_max":0,"o":"m 744 983 l 68 983 l 68 913 l 649 913 l 53 69 l 53 0 l 756 0 l 756 71 l 150 71 l 744 913 z m 461 1182 b 444 1222 461 1198 455 1211 b 404 1239 432 1233 419 1239 b 365 1222 389 1239 376 1233 b 347 1182 353 1211 347 1198 b 365 1142 347 1166 353 1153 b 404 1125 376 1131 389 1125 b 444 1142 419 1125 432 1131 b 461 1182 455 1153 461 1166 z "},"ż":{"ha":613,"x_min":0,"x_max":0,"o":"m 546 647 l 71 647 l 71 583 l 449 583 l 50 56 l 50 0 l 561 0 l 561 65 l 149 65 l 546 590 z m 367 904 b 349 944 367 920 361 933 b 310 961 338 956 325 961 b 270 944 295 961 282 956 b 253 904 259 933 253 920 b 270 864 253 888 259 875 b 310 847 282 853 295 847 b 349 864 325 847 338 853 b 367 904 361 875 367 888 z "},"ƒ":{"ha":797,"x_min":0,"x_max":0,"o":"m 596 578 l 442 578 l 476 774 b 608 933 495 880 539 933 b 686 910 637 933 663 925 l 724 964 b 604 1000 691 988 651 1000 b 403 789 495 1000 428 930 l 364 578 l 200 578 l 200 517 l 351 517 l 261 28 b 222 -87 252 -22 239 -61 b 135 -128 204 -114 175 -128 b 64 -111 108 -128 84 -122 l 33 -172 b 133 -194 58 -187 92 -194 b 271 -140 195 -194 241 -176 b 333 4 300 -104 321 -56 l 429 517 l 596 517 z "},"Ș":{"ha":786,"x_min":0,"x_max":0,"o":"m 682 893 b 413 1010 623 971 533 1010 b 194 940 329 1010 256 987 b 101 743 132 894 101 828 b 130 622 101 696 111 655 b 203 542 149 588 173 561 b 304 493 234 523 267 507 b 415 453 341 479 378 466 b 515 411 451 441 484 427 b 588 347 545 395 569 374 b 617 247 607 319 617 286 b 547 98 617 184 593 134 b 383 43 500 61 445 43 b 142 164 291 43 210 83 l 86 115 b 383 -26 158 21 257 -26 b 604 46 469 -26 542 -2 b 697 251 666 94 697 163 b 669 374 697 299 688 339 b 594 453 650 408 625 434 b 494 503 564 472 530 489 b 384 542 457 517 421 530 b 283 582 347 554 314 567 b 209 644 253 597 228 618 b 181 743 190 671 181 704 b 250 890 181 806 204 855 b 408 942 296 924 349 942 b 625 842 498 942 570 908 z m 458 -64 l 379 -64 l 297 -321 l 360 -321 z "},"ș":{"ha":604,"x_min":0,"x_max":0,"o":"m 526 554 b 438 635 506 589 477 616 b 308 664 400 654 356 664 b 152 618 247 664 195 649 b 88 483 109 588 88 543 b 126 376 88 439 100 403 b 221 320 152 350 184 331 b 331 291 258 309 295 300 b 425 250 368 282 399 269 b 464 174 451 231 464 206 b 417 78 464 131 448 99 b 304 47 386 58 349 47 b 197 75 265 47 229 56 b 118 147 164 94 138 118 l 58 104 b 304 -17 113 24 195 -17 b 470 33 369 -17 424 0 b 539 179 516 66 539 114 b 485 299 539 230 521 270 b 322 365 449 327 394 350 b 197 410 264 378 222 393 b 160 489 172 428 160 454 b 203 573 160 526 174 554 b 306 601 233 592 267 601 b 468 513 379 601 433 572 z m 363 -64 l 283 -64 l 201 -321 l 264 -321 z "},"Ț":{"ha":779,"x_min":0,"x_max":0,"o":"m 429 913 l 760 913 l 760 983 l 19 983 l 19 913 l 350 913 l 350 0 l 429 0 z m 451 -62 l 372 -62 l 292 -319 l 354 -319 z "},"ț":{"ha":435,"x_min":0,"x_max":0,"o":"m 408 647 l 224 647 l 224 832 l 147 832 l 147 647 l 13 647 l 13 583 l 149 583 l 149 156 b 194 28 149 97 164 55 b 307 -11 224 2 262 -11 b 410 7 342 -11 376 -5 l 406 72 b 326 54 380 60 353 54 b 250 81 293 54 268 63 b 224 174 232 99 224 130 l 224 583 l 408 583 z m 332 -62 l 253 -62 l 172 -319 l 235 -319 z "},"ȷ":{"ha":339,"x_min":0,"x_max":0,"o":"m -33 -325 b 32 -333 -18 -331 4 -333 b 168 -279 97 -333 142 -315 b 207 -131 194 -243 207 -194 l 207 647 l 132 647 l 132 -121 b 112 -231 132 -169 125 -206 b 31 -269 98 -257 71 -269 b -22 -262 14 -269 -4 -267 z "},"ˆ":{"ha":333,"x_min":0,"x_max":0,"o":"m 211 983 l 122 983 l -26 783 l 47 783 l 167 943 l 286 783 l 360 783 z "},"ˇ":{"ha":333,"x_min":0,"x_max":0,"o":"m 360 983 l 286 983 l 167 824 l 47 983 l -26 983 l 122 783 l 211 783 z "},"ˉ":{"ha":333,"x_min":0,"x_max":0,"o":"m 346 1181 l -12 1181 l -12 1119 l 346 1119 z "},"˘":{"ha":333,"x_min":0,"x_max":0,"o":"m 311 979 b 165 860 296 900 248 860 b 72 891 129 860 98 870 b 22 979 45 912 29 941 l -29 979 b 31 847 -25 923 -5 878 b 165 799 66 815 111 799 b 301 847 220 799 265 815 b 361 979 336 878 356 923 z "},"˙":{"ha":333,"x_min":0,"x_max":0,"o":"m 224 904 b 206 944 224 920 218 933 b 167 961 195 956 181 961 b 127 944 152 961 139 956 b 110 904 116 933 110 920 b 127 864 110 888 116 875 b 167 847 139 853 152 847 b 206 864 181 847 195 853 b 224 904 218 875 224 888 z "},"˚":{"ha":333,"x_min":0,"x_max":0,"o":"m 300 903 b 260 997 300 940 287 971 b 167 1035 234 1022 203 1035 b 73 997 131 1035 99 1022 b 33 903 47 971 33 940 b 73 809 33 866 47 834 b 167 771 99 784 131 771 b 260 809 203 771 234 784 b 300 903 287 834 300 866 z m 257 903 b 231 839 257 878 248 856 b 167 813 213 821 192 813 b 103 839 142 813 120 821 b 76 903 85 856 76 878 b 103 967 76 928 85 949 b 167 993 120 984 142 993 b 231 967 192 993 213 984 b 257 903 248 949 257 928 z "},"˛":{"ha":333,"x_min":0,"x_max":0,"o":"m 267 -217 b 189 -250 247 -239 221 -250 b 135 -230 168 -250 150 -243 b 114 -176 121 -216 114 -199 b 140 -100 114 -150 122 -125 b 226 0 157 -75 186 -42 l 171 0 b 46 -193 88 -71 46 -136 b 82 -277 46 -227 58 -255 b 168 -310 106 -299 135 -310 b 290 -261 215 -310 256 -294 z "},"˜":{"ha":333,"x_min":0,"x_max":0,"o":"m 8 807 b 74 876 19 853 40 876 b 163 844 88 876 118 866 b 261 811 207 822 240 811 b 374 940 322 811 360 854 l 325 940 b 261 872 315 895 294 872 b 172 905 247 872 218 883 b 74 938 127 927 94 938 b -40 807 12 938 -26 894 z "},"˝":{"ha":333,"x_min":0,"x_max":0,"o":"m -42 783 l 24 783 l 199 983 l 99 983 z m 172 783 l 238 783 l 413 983 l 313 983 z "},"Δ":{"ha":925,"x_min":0,"x_max":0,"o":"m 897 0 l 503 989 l 418 989 l 31 0 z m 792 68 l 131 68 l 460 915 z "},"Ω":{"ha":1031,"x_min":0,"x_max":0,"o":"m 942 0 l 942 65 l 671 65 l 671 196 b 870 338 756 220 822 267 b 942 581 918 408 942 489 b 815 881 942 701 899 801 b 508 1001 730 961 628 1001 b 201 881 389 1001 287 961 b 74 579 116 800 74 700 b 146 338 74 488 98 408 b 344 196 194 267 260 220 l 344 65 l 74 65 l 74 0 l 404 0 l 404 243 b 214 356 322 257 258 294 b 147 578 169 417 147 491 b 251 832 147 680 182 764 b 507 933 321 900 406 933 b 764 832 609 933 694 900 b 868 578 833 764 868 680 b 801 357 868 492 846 418 b 611 243 757 296 694 258 l 611 0 z "},"μ":{"ha":772,"x_min":0,"x_max":0,"o":"m 110 -317 l 182 -317 l 182 46 b 350 -18 222 3 278 -18 b 483 22 396 -18 441 -5 b 578 124 526 49 557 83 l 581 124 l 581 0 l 660 0 b 654 149 656 59 654 109 l 654 647 l 581 647 l 581 318 b 520 121 581 235 560 169 b 367 49 480 73 429 49 b 224 107 299 49 251 68 b 182 281 196 146 182 204 l 182 647 l 110 647 z "},"π":{"ha":779,"x_min":0,"x_max":0,"o":"m 726 13 l 726 65 b 672 54 709 58 691 54 b 625 74 648 54 632 61 b 614 136 618 88 614 108 l 614 581 l 719 581 l 719 647 l 49 647 l 49 581 l 147 581 l 147 0 l 218 0 l 218 581 l 543 581 l 543 147 b 544 97 543 125 543 108 b 550 56 544 85 546 71 b 565 21 554 40 559 28 b 594 1 572 13 581 7 b 643 -8 607 -5 624 -8 b 726 13 668 -8 696 -1 z "},"Ѐ":{"ha":821,"x_min":0,"x_max":0,"o":"m 214 476 l 701 476 l 701 546 l 214 546 l 214 913 l 735 913 l 735 983 l 136 983 l 136 0 l 753 0 l 753 71 l 214 71 z m 440 1061 l 506 1061 l 365 1261 l 265 1261 z "},"Ё":{"ha":821,"x_min":0,"x_max":0,"o":"m 254 1182 b 271 1139 254 1165 260 1151 b 313 1121 282 1127 296 1121 b 355 1139 329 1121 343 1127 b 372 1182 366 1151 372 1165 b 355 1224 372 1198 366 1212 b 313 1242 343 1236 329 1242 b 271 1224 296 1242 282 1236 b 254 1182 260 1212 254 1198 z m 504 1182 b 522 1139 504 1165 510 1151 b 564 1121 533 1127 547 1121 b 606 1139 581 1121 595 1127 b 624 1182 618 1151 624 1165 b 606 1224 624 1198 618 1212 b 564 1242 595 1236 581 1242 b 522 1224 547 1242 533 1236 b 504 1182 510 1212 504 1198 z m 136 0 l 753 0 l 753 71 l 214 71 l 214 476 l 701 476 l 701 546 l 214 546 l 214 913 l 735 913 l 735 983 l 136 983 z "},"Ђ":{"ha":1093,"x_min":0,"x_max":0,"o":"m 678 -12 b 933 63 785 -12 870 13 b 1026 281 995 112 1026 185 b 931 500 1026 377 995 450 b 667 575 868 550 780 575 b 429 544 580 575 500 565 l 429 913 l 760 913 l 760 983 l 19 983 l 19 913 l 350 913 l 350 0 l 429 0 l 429 472 b 663 507 491 495 569 507 b 874 449 755 507 826 488 b 947 279 923 410 947 353 b 875 115 947 207 923 152 b 671 58 827 77 759 58 b 579 68 638 58 607 62 l 567 -1 b 678 -12 602 -9 639 -12 z "},"Ѓ":{"ha":699,"x_min":0,"x_max":0,"o":"m 585 1261 l 485 1261 l 344 1061 l 410 1061 z m 136 0 l 215 0 l 215 913 l 679 913 l 679 983 l 136 983 z "},"Є":{"ha":1001,"x_min":0,"x_max":0,"o":"m 593 -26 b 806 22 672 -26 743 -10 b 957 147 870 53 920 95 l 896 189 b 594 44 827 93 727 44 b 292 167 471 44 371 85 b 168 471 214 249 173 350 l 168 476 l 683 476 l 683 546 l 171 546 b 303 827 183 659 227 753 b 594 939 380 902 477 939 b 756 903 652 939 706 927 b 872 813 806 879 844 849 l 936 863 b 791 970 901 908 853 944 b 593 1010 729 997 663 1010 b 229 863 447 1010 325 961 b 85 492 133 766 85 642 b 228 120 85 342 132 218 b 593 -26 323 22 445 -26 z "},"Ѕ":{"ha":786,"x_min":0,"x_max":0,"o":"m 682 893 b 413 1010 623 971 533 1010 b 194 940 329 1010 256 987 b 101 743 132 894 101 828 b 130 622 101 696 111 655 b 203 542 149 588 173 561 b 304 493 234 523 267 507 b 415 453 341 479 378 466 b 515 411 451 441 484 427 b 588 347 545 395 569 374 b 617 247 607 319 617 286 b 547 98 617 184 593 134 b 383 43 500 61 445 43 b 142 164 291 43 210 83 l 86 115 b 383 -26 158 21 257 -26 b 604 46 469 -26 542 -2 b 697 251 666 94 697 163 b 669 374 697 299 688 339 b 594 453 650 408 625 434 b 494 503 564 472 530 489 b 384 542 457 517 421 530 b 283 582 347 554 314 567 b 209 644 253 597 228 618 b 181 743 190 671 181 704 b 250 890 181 806 204 855 b 408 942 296 924 349 942 b 625 842 498 942 570 908 z "},"І":{"ha":350,"x_min":0,"x_max":0,"o":"m 136 0 l 215 0 l 215 983 l 136 983 z "},"Ї":{"ha":350,"x_min":0,"x_max":0,"o":"m -10 1182 b 8 1139 -10 1165 -4 1151 b 50 1121 19 1127 33 1121 b 92 1139 67 1121 81 1127 b 108 1182 103 1151 108 1165 b 92 1224 108 1198 103 1212 b 50 1242 81 1236 67 1242 b 8 1224 33 1242 19 1236 b -10 1182 -4 1212 -10 1198 z m 242 1182 b 258 1139 242 1165 247 1151 b 300 1121 269 1127 283 1121 b 342 1139 317 1121 331 1127 b 360 1182 354 1151 360 1165 b 342 1224 360 1198 354 1212 b 300 1242 331 1236 317 1242 b 258 1224 283 1242 269 1236 b 242 1182 247 1212 242 1198 z m 136 0 l 215 0 l 215 983 l 136 983 z "},"Ј":{"ha":678,"x_min":0,"x_max":0,"o":"m 292 -25 b 416 1 340 -25 381 -16 b 497 74 451 19 478 43 b 538 170 516 104 529 136 b 550 279 546 204 550 240 l 550 983 l 471 983 l 471 285 b 283 44 471 125 408 44 b 172 83 240 44 203 57 b 110 182 142 108 121 141 l 36 161 b 125 27 50 106 80 62 b 292 -25 170 -8 226 -25 z "},"Љ":{"ha":1497,"x_min":0,"x_max":0,"o":"m 89 -10 b 326 172 202 -10 281 51 b 394 732 372 292 394 479 l 394 914 l 814 914 l 814 0 l 1088 0 b 1336 68 1190 0 1273 23 b 1431 272 1399 113 1431 181 b 1337 479 1431 363 1399 432 b 1092 550 1274 526 1193 550 l 893 550 l 893 983 l 317 983 l 317 767 b 263 226 317 515 299 334 b 78 63 228 117 166 63 b 19 72 65 63 45 66 l 6 1 b 89 -10 29 -6 56 -10 z m 893 68 l 893 481 l 1086 481 b 1279 427 1168 481 1232 463 b 1350 271 1326 391 1350 339 b 1276 118 1350 202 1325 151 b 1079 68 1227 85 1162 68 z "},"Њ":{"ha":1471,"x_min":0,"x_max":0,"o":"m 136 0 l 215 0 l 215 481 l 789 481 l 789 0 l 1061 0 b 1310 68 1164 0 1247 23 b 1404 272 1373 113 1404 181 b 1310 479 1404 363 1373 432 b 1065 550 1248 526 1166 550 l 868 550 l 868 983 l 789 983 l 789 550 l 215 550 l 215 983 l 136 983 z m 868 68 l 868 481 l 1060 481 b 1253 427 1141 481 1206 463 b 1324 271 1300 391 1324 339 b 1251 117 1324 201 1299 150 b 1054 68 1202 84 1137 68 z "},"Ћ":{"ha":1093,"x_min":0,"x_max":0,"o":"m 350 0 l 429 0 l 429 474 b 668 506 489 495 569 506 b 841 454 747 506 804 488 b 896 314 878 420 896 373 l 896 0 l 975 0 l 975 321 b 665 575 975 490 872 575 b 429 544 581 575 502 565 l 429 913 l 760 913 l 760 983 l 19 983 l 19 913 l 350 913 z "},"Ќ":{"ha":846,"x_min":0,"x_max":0,"o":"m 631 1261 l 531 1261 l 390 1061 l 456 1061 z m 136 0 l 215 0 l 215 525 l 717 0 l 832 0 l 308 536 l 806 983 l 692 983 l 215 539 l 215 983 l 136 983 z "},"Ѝ":{"ha":1024,"x_min":0,"x_max":0,"o":"m 503 1061 l 568 1061 l 428 1261 l 328 1261 z m 136 0 l 228 0 l 806 868 l 810 868 l 810 0 l 889 0 l 889 983 l 796 983 l 218 121 l 215 121 l 215 983 l 136 983 z "},"Ў":{"ha":860,"x_min":0,"x_max":0,"o":"m 172 -10 b 296 28 222 -10 263 3 b 388 144 328 54 359 93 l 850 983 l 763 983 l 438 389 l 101 983 l 10 983 l 393 308 l 319 172 b 172 63 280 99 231 63 b 107 72 148 63 126 66 l 93 -1 b 172 -10 115 -7 142 -10 z m 436 1076 b 569 1124 490 1076 534 1092 b 631 1250 603 1156 624 1198 l 578 1260 b 529 1169 571 1221 555 1191 b 436 1138 503 1148 472 1138 b 343 1169 400 1138 369 1148 b 294 1260 317 1191 301 1221 l 242 1250 b 303 1124 248 1198 269 1156 b 436 1076 338 1092 382 1076 z "},"Џ":{"ha":999,"x_min":0,"x_max":0,"o":"m 461 -247 l 538 -247 l 538 0 l 864 0 l 864 983 l 785 983 l 785 71 l 215 71 l 215 983 l 136 983 l 136 0 l 461 0 z "},"А":{"ha":958,"x_min":0,"x_max":0,"o":"m 17 0 l 104 0 l 215 265 l 742 265 l 853 0 l 940 0 l 522 983 l 443 983 z m 244 338 l 481 900 l 713 338 z "},"Б":{"ha":864,"x_min":0,"x_max":0,"o":"m 136 0 l 429 0 b 678 68 532 0 615 23 b 772 272 741 113 772 181 b 678 479 772 363 741 432 b 433 550 616 526 534 550 l 215 550 l 215 913 l 706 913 l 706 983 l 136 983 z m 215 68 l 215 481 l 428 481 b 621 427 509 481 574 463 b 692 271 668 391 692 339 b 619 117 692 201 667 150 b 422 68 570 84 505 68 z "},"В":{"ha":874,"x_min":0,"x_max":0,"o":"m 136 0 l 431 0 b 684 70 534 0 619 23 b 782 269 749 117 782 183 b 715 443 782 342 760 400 b 553 518 671 487 617 512 l 553 521 b 684 597 606 533 650 558 b 735 738 718 635 735 682 b 708 857 735 784 726 824 b 633 933 690 890 665 916 b 534 972 602 951 569 964 b 421 983 499 979 462 983 l 136 983 z m 215 68 l 215 481 l 439 481 b 629 428 518 481 581 463 b 701 272 677 394 701 342 b 624 118 701 203 675 151 b 422 68 572 85 505 68 z m 215 547 l 215 915 l 406 915 b 585 871 479 915 538 900 b 654 732 631 841 654 795 b 587 592 654 669 632 622 b 426 547 542 562 488 547 z "},"Г":{"ha":699,"x_min":0,"x_max":0,"o":"m 136 0 l 215 0 l 215 913 l 679 913 l 679 983 l 136 983 z "},"Д":{"ha":1033,"x_min":0,"x_max":0,"o":"m 24 -247 l 99 -247 l 99 0 l 907 0 l 907 -247 l 983 -247 l 983 71 l 871 71 l 871 983 l 279 983 l 279 713 b 101 71 279 406 220 192 l 24 71 z m 201 71 b 357 713 305 198 357 412 l 357 913 l 792 913 l 792 71 z "},"Е":{"ha":821,"x_min":0,"x_max":0,"o":"m 136 0 l 753 0 l 753 71 l 214 71 l 214 476 l 701 476 l 701 546 l 214 546 l 214 913 l 735 913 l 735 983 l 136 983 z "},"Ж":{"ha":1308,"x_min":0,"x_max":0,"o":"m 14 0 l 129 0 l 614 525 l 614 0 l 693 0 l 693 525 l 1179 0 l 1294 0 l 788 536 l 1268 983 l 1154 983 l 693 539 l 693 983 l 614 983 l 614 539 l 154 983 l 40 983 l 521 536 z "},"З":{"ha":799,"x_min":0,"x_max":0,"o":"m 367 -26 b 606 55 462 -26 542 1 b 703 271 671 109 703 181 b 640 434 703 336 682 390 b 483 517 599 478 546 506 l 483 519 b 615 599 537 531 581 558 b 667 747 650 639 667 689 b 585 940 667 830 639 894 b 365 1010 530 987 457 1010 b 97 892 261 1010 171 970 l 146 843 b 368 942 212 909 286 942 b 526 888 430 942 483 924 b 592 750 570 851 592 806 b 522 599 592 682 568 632 b 340 550 475 566 414 550 l 281 550 l 281 481 l 344 481 b 542 428 423 481 489 463 b 622 271 596 393 622 340 b 547 106 622 203 597 148 b 368 43 497 64 438 43 b 111 160 267 43 181 82 l 57 113 b 367 -26 133 20 236 -26 z "},"И":{"ha":1024,"x_min":0,"x_max":0,"o":"m 136 0 l 228 0 l 806 868 l 810 868 l 810 0 l 889 0 l 889 983 l 796 983 l 218 121 l 215 121 l 215 983 l 136 983 z "},"Й":{"ha":1024,"x_min":0,"x_max":0,"o":"m 136 0 l 228 0 l 806 868 l 810 868 l 810 0 l 889 0 l 889 983 l 796 983 l 218 121 l 215 121 l 215 983 l 136 983 z m 511 1076 b 644 1124 565 1076 609 1092 b 706 1250 678 1156 699 1198 l 653 1260 b 604 1169 646 1221 630 1191 b 511 1138 578 1148 547 1138 b 418 1169 475 1138 444 1148 b 369 1260 392 1191 376 1221 l 317 1250 b 378 1124 323 1198 344 1156 b 511 1076 413 1092 457 1076 z "},"К":{"ha":846,"x_min":0,"x_max":0,"o":"m 136 0 l 215 0 l 215 525 l 717 0 l 832 0 l 308 536 l 806 983 l 692 983 l 215 539 l 215 983 l 136 983 z "},"Л":{"ha":1029,"x_min":0,"x_max":0,"o":"m 89 -10 b 326 172 202 -10 281 51 b 394 732 372 292 394 479 l 394 914 l 814 914 l 814 0 l 893 0 l 893 983 l 317 983 l 317 767 b 263 226 317 515 299 334 b 78 63 228 117 166 63 b 19 72 65 63 45 66 l 6 1 b 89 -10 29 -6 56 -10 z "},"М":{"ha":1239,"x_min":0,"x_max":0,"o":"m 136 0 l 215 0 l 215 882 l 218 882 l 597 0 l 642 0 l 1021 882 l 1024 882 l 1024 0 l 1103 0 l 1103 983 l 981 983 l 621 132 l 258 983 l 136 983 z "},"Н":{"ha":1003,"x_min":0,"x_max":0,"o":"m 136 0 l 215 0 l 215 474 l 789 474 l 789 0 l 868 0 l 868 983 l 789 983 l 789 547 l 215 547 l 215 983 l 136 983 z "},"О":{"ha":1190,"x_min":0,"x_max":0,"o":"m 594 -26 b 960 120 742 -26 864 22 b 1106 492 1057 218 1106 342 b 960 863 1106 642 1057 766 b 594 1010 864 961 742 1010 b 230 863 448 1010 327 961 b 85 492 133 766 85 642 b 230 120 85 342 133 218 b 594 -26 327 22 448 -26 z m 594 44 b 286 174 468 44 365 88 b 168 492 207 261 168 367 b 286 809 168 617 207 722 b 594 939 365 896 468 939 b 903 809 721 939 824 896 b 1022 492 983 722 1022 617 b 904 174 1022 367 983 261 b 594 44 825 88 722 44 z "},"П":{"ha":999,"x_min":0,"x_max":0,"o":"m 136 0 l 215 0 l 215 913 l 785 913 l 785 0 l 864 0 l 864 983 l 136 983 z "},"Р":{"ha":803,"x_min":0,"x_max":0,"o":"m 136 0 l 215 0 l 215 464 l 414 464 b 646 532 510 464 588 487 b 733 726 704 577 733 642 b 644 919 733 813 704 877 b 410 983 585 962 507 983 l 136 983 z m 215 532 l 215 915 l 408 915 b 588 869 483 915 543 900 b 654 726 632 838 654 790 b 588 581 654 663 632 614 b 410 532 544 548 485 532 z "},"С":{"ha":1001,"x_min":0,"x_max":0,"o":"m 896 189 b 594 44 818 93 718 44 b 285 174 467 44 364 88 b 168 492 207 261 168 367 b 285 809 168 617 207 722 b 594 939 364 896 467 939 b 756 904 653 939 707 927 b 875 814 806 881 845 851 l 932 867 b 790 972 897 912 850 947 b 593 1010 731 997 665 1010 b 229 863 447 1010 325 961 b 85 492 133 766 85 642 b 228 120 85 342 132 218 b 592 -26 323 22 444 -26 b 950 146 743 -26 862 31 z "},"Т":{"ha":779,"x_min":0,"x_max":0,"o":"m 350 0 l 429 0 l 429 913 l 760 913 l 760 983 l 19 983 l 19 913 l 350 913 z "},"У":{"ha":860,"x_min":0,"x_max":0,"o":"m 172 -10 b 296 28 222 -10 263 3 b 388 144 328 54 359 93 l 850 983 l 763 983 l 438 389 l 101 983 l 10 983 l 393 308 l 319 172 b 172 63 280 99 231 63 b 107 72 148 63 126 66 l 93 -1 b 172 -10 115 -7 142 -10 z "},"Ф":{"ha":1143,"x_min":0,"x_max":0,"o":"m 532 -26 l 611 -26 l 611 92 b 942 208 748 94 859 132 b 1068 507 1026 283 1068 383 b 942 806 1068 634 1026 734 b 611 921 859 879 748 917 l 611 1010 l 532 1010 l 532 921 b 201 806 396 917 286 879 b 75 507 117 734 75 634 b 201 208 75 383 117 283 b 532 92 286 132 396 94 z m 532 161 b 258 260 415 167 324 200 b 158 506 191 320 158 402 b 258 753 158 608 192 691 b 532 851 325 815 416 848 z m 611 161 l 611 851 b 886 753 728 848 819 815 b 986 506 953 691 986 608 b 886 260 986 402 953 320 b 611 161 819 200 728 167 z "},"Х":{"ha":876,"x_min":0,"x_max":0,"o":"m 32 0 l 131 0 l 438 457 l 746 0 l 844 0 l 488 515 l 810 983 l 717 983 l 440 572 l 163 983 l 64 983 l 389 517 z "},"Ц":{"ha":1025,"x_min":0,"x_max":0,"o":"m 900 -247 l 975 -247 l 975 71 l 864 71 l 864 983 l 785 983 l 785 71 l 215 71 l 215 983 l 136 983 l 136 0 l 900 0 z "},"Ч":{"ha":876,"x_min":0,"x_max":0,"o":"m 661 0 l 740 0 l 740 983 l 661 983 l 661 490 b 418 458 603 469 522 458 b 249 510 342 458 286 475 b 194 650 213 544 194 591 l 194 983 l 115 983 l 115 643 b 421 389 115 474 217 389 b 661 419 508 389 588 399 z "},"Ш":{"ha":1471,"x_min":0,"x_max":0,"o":"m 136 0 l 1335 0 l 1335 983 l 1256 983 l 1256 71 l 775 71 l 775 983 l 696 983 l 696 71 l 215 71 l 215 983 l 136 983 z "},"Щ":{"ha":1497,"x_min":0,"x_max":0,"o":"m 1372 -247 l 1447 -247 l 1447 71 l 1335 71 l 1335 983 l 1256 983 l 1256 71 l 775 71 l 775 983 l 696 983 l 696 71 l 215 71 l 215 983 l 136 983 l 136 0 l 1372 0 z "},"Ъ":{"ha":963,"x_min":0,"x_max":0,"o":"m 279 0 l 553 0 b 801 68 656 0 738 23 b 896 272 864 113 896 181 b 802 479 896 363 865 432 b 557 550 740 526 658 550 l 360 550 l 360 983 l 19 983 l 19 913 l 279 913 z m 360 68 l 360 481 l 551 481 b 744 427 633 481 697 463 b 815 271 792 391 815 339 b 742 117 815 201 791 150 b 546 68 694 84 628 68 z "},"Ы":{"ha":1121,"x_min":0,"x_max":0,"o":"m 136 0 l 408 0 b 657 68 511 0 594 23 b 751 272 720 113 751 181 b 658 479 751 363 720 432 b 413 550 595 526 513 550 l 215 550 l 215 983 l 136 983 z m 215 68 l 215 481 l 407 481 b 600 427 488 481 553 463 b 671 271 647 391 671 339 b 598 117 671 201 647 150 b 401 68 549 84 484 68 z m 906 0 l 985 0 l 985 983 l 906 983 z "},"Ь":{"ha":818,"x_min":0,"x_max":0,"o":"m 136 0 l 408 0 b 657 68 511 0 594 23 b 751 272 720 113 751 181 b 658 479 751 363 720 432 b 413 550 595 526 513 550 l 215 550 l 215 983 l 136 983 z m 215 68 l 215 481 l 407 481 b 600 427 488 481 553 463 b 671 271 647 391 671 339 b 598 117 671 201 647 150 b 401 68 549 84 484 68 z "},"Э":{"ha":1001,"x_min":0,"x_max":0,"o":"m 408 -26 b 774 120 556 -26 678 22 b 917 492 869 218 917 342 b 772 863 917 642 869 766 b 408 1010 676 961 555 1010 b 212 970 339 1010 273 997 b 65 863 150 944 101 908 l 129 813 b 247 903 157 849 196 879 b 407 939 297 927 350 939 b 699 827 525 939 622 902 b 831 546 775 753 819 659 l 318 546 l 318 476 l 833 476 b 713 170 833 356 793 254 b 407 44 633 86 531 44 b 106 189 275 44 174 93 l 44 147 b 196 22 81 95 132 53 b 408 -26 260 -10 331 -26 z "},"Ю":{"ha":1467,"x_min":0,"x_max":0,"o":"m 910 -25 b 1251 123 1050 -25 1163 24 b 1382 494 1338 222 1382 345 b 1250 860 1382 640 1338 762 b 910 1008 1162 959 1049 1008 b 585 877 779 1008 671 965 b 440 546 500 790 451 679 l 215 546 l 215 983 l 136 983 l 136 0 l 215 0 l 215 476 l 438 476 b 574 117 442 332 488 212 b 910 -25 661 22 773 -25 z m 910 46 b 626 178 790 46 696 90 b 521 494 556 266 521 371 b 626 807 521 615 556 719 b 910 939 697 895 791 939 b 1119 874 989 939 1059 917 b 1254 710 1180 831 1225 776 b 1299 494 1284 643 1299 571 b 1194 178 1299 371 1264 266 b 910 46 1124 90 1029 46 z "},"Я":{"ha":832,"x_min":0,"x_max":0,"o":"m 64 0 l 160 0 l 419 433 l 617 433 l 617 0 l 696 0 l 696 983 l 422 983 b 174 915 319 983 237 961 b 81 711 112 870 81 802 b 149 526 81 633 103 572 b 333 440 195 481 256 452 z m 425 503 b 231 556 344 503 279 521 b 160 713 184 592 160 644 b 233 865 160 781 184 832 b 431 915 282 899 348 915 l 617 915 l 617 503 z "},"а":{"ha":732,"x_min":0,"x_max":0,"o":"m 303 -18 b 540 119 410 -18 489 28 l 543 119 b 554 0 543 84 547 44 l 622 0 b 611 146 615 39 611 88 l 611 429 b 543 604 611 506 588 564 b 363 664 498 644 438 664 b 121 575 263 664 182 634 l 163 525 b 356 601 215 576 280 601 b 539 421 478 601 539 541 l 539 392 l 490 392 b 369 388 445 392 405 390 b 260 370 334 385 298 379 b 167 334 223 361 192 349 b 105 271 142 319 121 298 b 81 175 89 244 81 212 b 149 31 81 111 103 63 b 303 -18 194 -2 245 -18 z m 321 44 b 206 77 276 44 238 55 b 158 179 174 99 158 133 b 490 332 158 281 269 332 l 539 332 l 539 279 b 483 113 539 214 520 159 b 321 44 445 67 391 44 z "},"б":{"ha":854,"x_min":0,"x_max":0,"o":"m 432 -18 b 678 78 532 -18 614 14 b 774 322 742 143 774 224 b 685 565 774 419 744 500 b 453 663 625 630 548 663 b 163 492 317 663 220 606 l 158 492 b 217 803 160 636 180 740 b 414 915 254 866 319 903 l 613 940 b 760 1049 695 950 744 987 l 706 1065 b 590 1001 694 1031 656 1010 l 382 976 b 270 944 339 971 302 960 b 192 880 238 929 212 907 b 141 792 171 853 154 823 b 111 676 128 760 118 722 b 98 545 105 631 100 587 b 94 394 96 503 94 453 b 176 94 94 256 122 156 b 432 -18 234 19 319 -18 z m 432 47 b 244 125 354 47 291 73 b 172 321 196 177 172 242 b 247 519 172 400 197 466 b 436 599 296 572 359 599 b 624 519 514 599 576 572 b 694 321 671 467 694 400 b 622 125 694 242 670 177 b 432 47 573 73 510 47 z "},"в":{"ha":739,"x_min":0,"x_max":0,"o":"m 131 0 l 428 0 b 594 47 496 0 552 16 b 658 178 637 78 658 121 b 615 291 658 225 644 263 b 508 342 587 319 551 336 l 508 343 b 593 393 543 351 571 368 b 626 485 615 418 626 449 b 567 610 626 543 606 585 b 421 647 527 635 478 647 l 131 647 z m 207 65 l 207 306 l 426 306 b 538 275 472 306 509 295 b 581 183 566 255 581 224 b 535 94 581 144 566 114 b 417 65 505 75 466 65 z m 207 368 l 207 583 l 406 583 b 512 558 449 583 484 575 b 553 476 539 541 553 513 b 513 395 553 440 539 413 b 418 368 486 377 454 368 z "},"г":{"ha":582,"x_min":0,"x_max":0,"o":"m 131 0 l 207 0 l 207 583 l 551 583 l 551 647 l 131 647 z "},"д":{"ha":832,"x_min":0,"x_max":0,"o":"m 35 -212 l 106 -212 l 106 0 l 711 0 l 711 -212 l 782 -212 l 782 65 l 676 65 l 676 647 l 219 647 l 219 472 b 189 231 219 381 209 301 b 111 65 169 160 143 105 l 35 65 z m 197 65 b 293 453 261 171 293 300 l 293 583 l 603 583 l 603 65 z "},"е":{"ha":788,"x_min":0,"x_max":0,"o":"m 160 368 b 231 528 163 426 186 480 b 400 601 275 577 331 601 b 566 537 469 601 525 580 b 632 368 607 494 629 438 z m 408 -18 b 683 117 522 -18 614 27 l 633 157 b 411 47 571 84 497 47 b 231 124 337 47 277 73 b 158 308 184 176 160 237 l 707 308 l 707 347 b 627 573 707 437 680 512 b 401 664 574 634 499 664 b 173 567 311 664 234 632 b 81 325 111 503 81 422 b 174 79 81 226 112 144 b 408 -18 236 14 314 -18 z "},"ж":{"ha":1013,"x_min":0,"x_max":0,"o":"m 18 0 l 129 0 l 465 329 l 468 329 l 468 0 l 544 0 l 544 329 l 547 329 l 883 0 l 994 0 l 638 339 l 960 647 l 851 647 l 547 342 l 544 342 l 544 647 l 468 647 l 468 342 l 465 342 l 161 647 l 53 647 l 375 339 z "},"з":{"ha":644,"x_min":0,"x_max":0,"o":"m 313 -18 b 491 35 386 -18 445 0 b 560 179 537 70 560 118 b 517 286 560 222 545 257 b 403 339 488 315 450 332 l 403 342 b 502 395 444 350 477 368 b 540 493 528 422 540 455 b 476 619 540 548 519 590 b 308 664 434 649 378 664 b 170 635 257 664 211 654 b 76 554 129 616 98 589 l 135 513 b 208 578 152 540 177 562 b 306 601 239 594 271 601 b 422 574 354 601 392 592 b 465 493 451 556 465 529 b 415 401 465 453 449 422 b 288 368 382 379 339 368 l 239 368 l 239 307 l 293 307 b 431 275 349 307 394 296 b 485 182 467 254 485 223 b 435 81 485 137 468 103 b 311 47 401 58 360 47 b 110 146 224 47 157 80 l 54 101 b 313 -18 111 22 197 -18 z "},"и":{"ha":828,"x_min":0,"x_max":0,"o":"m 131 0 l 213 0 l 619 546 l 622 546 l 622 0 l 696 0 l 696 647 l 614 647 l 207 106 l 207 647 l 131 647 z "},"й":{"ha":828,"x_min":0,"x_max":0,"o":"m 413 799 b 545 847 466 799 510 815 b 607 972 580 878 600 920 l 554 982 b 506 892 548 943 531 913 b 413 860 480 870 449 860 b 319 892 376 860 345 870 b 271 982 294 913 277 943 l 218 972 b 280 847 225 920 245 878 b 413 799 315 815 359 799 z m 131 0 l 213 0 l 619 546 l 622 546 l 622 0 l 696 0 l 696 647 l 614 647 l 207 106 l 207 647 l 131 647 z "},"к":{"ha":689,"x_min":0,"x_max":0,"o":"m 133 0 l 208 0 l 208 329 l 213 329 l 560 0 l 671 0 l 299 339 l 636 647 l 528 647 l 213 342 l 208 342 l 208 647 l 133 647 z "},"л":{"ha":807,"x_min":0,"x_max":0,"o":"m 81 -7 b 301 399 228 -7 301 128 l 301 583 l 601 583 l 601 0 l 676 0 l 676 647 l 228 647 l 228 422 b 190 148 228 298 215 207 b 69 60 164 89 124 60 b 26 67 53 60 38 62 l 17 1 b 81 -7 35 -4 56 -7 z "},"м":{"ha":1000,"x_min":0,"x_max":0,"o":"m 131 0 l 207 0 l 207 560 l 479 0 l 519 0 l 790 560 l 793 560 l 793 0 l 868 0 l 868 647 l 758 647 l 500 111 l 243 647 l 131 647 z "},"н":{"ha":811,"x_min":0,"x_max":0,"o":"m 131 0 l 207 0 l 207 304 l 604 304 l 604 0 l 679 0 l 679 647 l 604 647 l 604 368 l 207 368 l 207 647 l 131 647 z "},"о":{"ha":846,"x_min":0,"x_max":0,"o":"m 422 -18 b 669 79 522 -18 604 14 b 765 324 733 144 765 225 b 669 568 765 423 733 504 b 422 664 604 632 522 664 b 176 568 322 664 240 632 b 81 324 113 504 81 423 b 177 79 81 225 113 144 b 422 -18 241 14 323 -18 z m 422 47 b 232 126 344 47 280 74 b 160 324 184 179 160 245 b 232 522 160 402 184 468 b 422 601 280 575 344 601 b 614 522 502 601 566 575 b 686 324 662 468 686 402 b 614 126 686 245 662 179 b 422 47 566 74 502 47 z "},"п":{"ha":801,"x_min":0,"x_max":0,"o":"m 131 0 l 207 0 l 207 583 l 594 583 l 594 0 l 669 0 l 669 647 l 131 647 z "},"р":{"ha":878,"x_min":0,"x_max":0,"o":"m 206 125 l 210 125 b 318 19 235 79 271 43 b 469 -18 365 -6 416 -18 b 708 79 568 -18 647 14 b 799 324 768 144 799 225 b 706 567 799 422 768 503 b 467 664 645 632 565 664 b 319 627 414 664 365 652 b 210 518 273 603 237 566 l 206 518 l 206 647 l 131 647 l 131 -333 l 206 -333 z m 718 324 b 648 126 718 245 695 179 b 460 47 601 74 538 47 b 273 126 385 47 322 74 b 199 324 223 179 199 245 b 273 522 199 402 223 468 b 460 601 322 575 385 601 b 648 522 538 601 601 575 b 718 324 695 468 718 402 z "},"с":{"ha":686,"x_min":0,"x_max":0,"o":"m 647 563 b 417 664 594 630 517 664 b 176 568 319 664 238 632 b 82 324 113 504 82 423 b 174 78 82 224 113 142 b 415 -18 235 14 315 -18 b 651 85 513 -18 592 16 l 604 128 b 415 50 554 76 491 50 b 231 128 339 50 278 76 b 160 324 183 180 160 245 b 231 520 160 402 184 468 b 418 599 279 572 341 599 b 519 576 453 599 487 591 b 597 517 552 562 578 542 z "},"т":{"ha":613,"x_min":0,"x_max":0,"o":"m 268 0 l 343 0 l 343 583 l 582 583 l 582 647 l 29 647 l 29 583 l 268 583 z "},"у":{"ha":653,"x_min":0,"x_max":0,"o":"m 117 -335 b 232 -296 165 -335 203 -322 b 306 -181 261 -270 285 -231 l 628 647 l 546 647 l 335 78 l 110 647 l 25 647 l 296 -4 l 240 -150 b 190 -238 225 -189 209 -218 b 114 -268 171 -258 145 -268 b 50 -257 91 -268 69 -264 l 40 -325 b 117 -335 68 -331 94 -335 z "},"ф":{"ha":974,"x_min":0,"x_max":0,"o":"m 449 -333 l 525 -333 l 525 -18 b 800 74 642 -16 733 15 b 900 322 867 134 900 217 b 800 570 900 427 867 509 b 525 663 733 631 642 662 l 525 1057 l 449 1057 l 449 663 b 174 570 332 662 240 631 b 74 322 107 509 74 427 b 174 74 74 217 107 134 b 449 -18 240 15 332 -16 z m 449 47 b 230 119 354 47 281 71 b 153 324 178 166 153 235 b 231 524 153 410 179 477 b 449 599 282 572 355 597 z m 525 47 l 525 599 b 744 525 619 598 692 573 b 821 324 795 477 821 410 b 744 119 821 235 795 166 b 525 47 692 71 619 47 z "},"х":{"ha":658,"x_min":0,"x_max":0,"o":"m 28 0 l 118 0 l 328 285 l 533 0 l 632 0 l 374 339 l 606 647 l 514 647 l 329 389 l 144 647 l 47 647 l 282 336 z "},"ц":{"ha":825,"x_min":0,"x_max":0,"o":"m 704 -212 l 775 -212 l 775 65 l 669 65 l 669 647 l 594 647 l 594 65 l 207 65 l 207 647 l 131 647 l 131 0 l 704 0 z "},"ч":{"ha":729,"x_min":0,"x_max":0,"o":"m 522 0 l 597 0 l 597 647 l 522 647 l 522 338 b 339 311 452 320 391 311 b 222 342 286 311 247 321 b 183 457 196 362 183 400 l 183 647 l 107 647 l 107 449 b 324 247 107 314 179 247 b 522 274 390 247 456 256 z "},"ш":{"ha":1171,"x_min":0,"x_max":0,"o":"m 131 0 l 1040 0 l 1040 647 l 965 647 l 965 65 l 624 65 l 624 647 l 549 647 l 549 65 l 207 65 l 207 647 l 131 647 z "},"щ":{"ha":1196,"x_min":0,"x_max":0,"o":"m 1075 -212 l 1146 -212 l 1146 65 l 1040 65 l 1040 647 l 965 647 l 965 65 l 624 65 l 624 647 l 549 647 l 549 65 l 207 65 l 207 647 l 131 647 l 131 0 l 1075 0 z "},"ъ":{"ha":786,"x_min":0,"x_max":0,"o":"m 228 0 l 478 0 b 661 50 558 0 619 17 b 724 193 703 83 724 131 b 660 340 724 256 703 305 b 478 393 618 375 557 393 l 304 393 l 304 647 l 29 647 l 29 583 l 228 583 z m 304 65 l 304 329 l 486 329 b 646 193 593 329 646 284 b 486 65 646 108 593 65 z "},"ы":{"ha":961,"x_min":0,"x_max":0,"o":"m 131 0 l 381 0 b 564 50 461 0 522 17 b 626 193 606 83 626 131 b 563 340 626 256 605 305 b 381 393 521 375 460 393 l 207 393 l 207 647 l 131 647 z m 207 65 l 207 329 l 389 329 b 549 193 495 329 549 284 b 389 65 549 108 495 65 z m 754 0 l 829 0 l 829 647 l 754 647 z "},"ь":{"ha":689,"x_min":0,"x_max":0,"o":"m 131 0 l 381 0 b 564 50 461 0 522 17 b 626 193 606 83 626 131 b 563 340 626 256 605 305 b 381 393 521 375 460 393 l 207 393 l 207 647 l 131 647 z m 207 65 l 207 329 l 389 329 b 549 193 495 329 549 284 b 389 65 549 108 495 65 z "},"э":{"ha":689,"x_min":0,"x_max":0,"o":"m 268 -18 b 514 77 369 -18 451 14 b 608 324 577 141 608 223 b 515 569 608 425 577 506 b 271 664 453 632 372 664 b 38 565 171 664 93 631 l 85 518 b 269 599 135 572 196 599 b 445 535 341 599 399 577 b 528 368 491 492 519 437 l 211 368 l 211 304 l 531 304 b 454 120 527 230 501 169 b 268 47 407 72 345 47 b 82 128 191 47 129 74 l 29 83 b 268 -18 88 16 167 -18 z "},"ю":{"ha":1101,"x_min":0,"x_max":0,"o":"m 131 0 l 207 0 l 207 304 l 363 303 b 460 72 367 210 400 133 b 692 -19 521 11 598 -19 b 928 78 788 -19 867 13 b 1021 322 990 143 1021 224 b 929 567 1021 420 990 502 b 692 664 868 631 789 664 b 469 581 603 664 528 636 b 364 368 409 525 374 454 l 207 368 l 207 647 l 131 647 z m 692 44 b 510 124 616 44 555 71 b 442 322 464 176 442 243 b 510 521 442 402 464 468 b 692 600 555 574 616 600 b 873 520 767 600 827 573 b 942 322 919 467 942 401 b 873 124 942 244 919 178 b 692 44 827 71 767 44 z "},"я":{"ha":742,"x_min":0,"x_max":0,"o":"m 88 0 l 179 0 l 346 261 l 535 261 l 535 0 l 611 0 l 611 647 l 343 647 b 165 597 268 647 209 630 b 100 454 122 563 100 515 b 264 267 100 352 155 290 z m 343 325 b 220 360 290 325 249 337 b 176 454 191 383 176 414 b 221 550 176 496 191 528 b 347 583 250 572 293 583 l 535 583 l 535 325 z "},"ѐ":{"ha":788,"x_min":0,"x_max":0,"o":"m 160 368 b 231 528 163 426 186 480 b 400 601 275 577 331 601 b 566 537 469 601 525 580 b 632 368 607 494 629 438 z m 408 -18 b 683 117 522 -18 614 27 l 633 157 b 411 47 571 84 497 47 b 231 124 337 47 277 73 b 158 308 184 176 160 237 l 707 308 l 707 347 b 627 573 707 437 680 512 b 401 664 574 634 499 664 b 173 567 311 664 234 632 b 81 325 111 503 81 422 b 174 79 81 226 112 144 b 408 -18 236 14 314 -18 z m 397 783 l 463 783 l 322 983 l 222 983 z "},"ё":{"ha":788,"x_min":0,"x_max":0,"o":"m 224 904 b 241 861 224 888 229 873 b 283 843 253 849 267 843 b 326 861 300 843 314 849 b 343 904 337 873 343 888 b 326 946 343 920 337 934 b 283 964 314 958 300 964 b 241 946 267 964 253 958 b 224 904 229 934 224 920 z m 475 904 b 492 861 475 888 481 873 b 535 843 504 849 518 843 b 576 861 551 843 565 849 b 593 904 588 873 593 888 b 576 946 593 920 588 934 b 535 964 565 958 551 964 b 492 946 518 964 504 958 b 475 904 481 934 475 920 z m 160 368 b 231 528 163 426 186 480 b 400 601 275 577 331 601 b 566 537 469 601 525 580 b 632 368 607 494 629 438 z m 408 -18 b 683 117 522 -18 614 27 l 633 157 b 411 47 571 84 497 47 b 231 124 337 47 277 73 b 158 308 184 176 160 237 l 707 308 l 707 347 b 627 573 707 437 680 512 b 401 664 574 634 499 664 b 173 567 311 664 234 632 b 81 325 111 503 81 422 b 174 79 81 226 112 144 b 408 -18 236 14 314 -18 z "},"ђ":{"ha":804,"x_min":0,"x_max":0,"o":"m 481 -335 b 627 -276 543 -335 591 -315 b 681 -107 663 -237 681 -181 l 681 394 b 620 590 681 475 660 540 b 438 664 580 639 519 664 b 300 625 388 664 343 651 b 210 521 257 599 227 564 l 207 521 l 207 796 l 432 796 l 432 853 l 207 853 l 207 1050 l 132 1050 l 132 853 l 13 853 l 13 796 l 132 796 l 132 0 l 207 0 l 207 329 b 269 530 207 415 228 482 b 421 601 311 578 362 601 b 606 367 544 601 606 523 l 606 -100 b 479 -268 606 -212 563 -268 b 415 -260 463 -268 441 -265 l 403 -325 b 481 -335 423 -331 449 -335 z "},"ѓ":{"ha":582,"x_min":0,"x_max":0,"o":"m 507 983 l 407 983 l 267 783 l 332 783 z m 131 0 l 207 0 l 207 583 l 551 583 l 551 647 l 131 647 z "},"є":{"ha":689,"x_min":0,"x_max":0,"o":"m 421 -18 b 661 83 523 -18 603 16 l 607 128 b 421 44 558 72 496 44 b 235 119 345 44 283 69 b 158 304 188 168 162 230 l 499 304 l 499 368 l 161 368 b 244 538 170 438 198 494 b 419 603 291 581 349 603 b 604 518 492 603 553 575 l 656 565 b 419 664 600 631 521 664 b 174 569 318 664 236 632 b 81 324 112 506 81 425 b 175 77 81 223 112 141 b 421 -18 238 14 320 -18 z "},"ѕ":{"ha":604,"x_min":0,"x_max":0,"o":"m 526 554 b 438 635 506 589 477 616 b 308 664 400 654 356 664 b 152 618 247 664 195 649 b 88 483 109 588 88 543 b 126 376 88 439 100 403 b 221 320 152 350 184 331 b 331 291 258 309 295 300 b 425 250 368 282 399 269 b 464 174 451 231 464 206 b 417 78 464 131 448 99 b 304 47 386 58 349 47 b 197 75 265 47 229 56 b 118 147 164 94 138 118 l 58 104 b 304 -17 113 24 195 -17 b 470 33 369 -17 424 0 b 539 179 516 66 539 114 b 485 299 539 230 521 270 b 322 365 449 327 394 350 b 197 410 264 378 222 393 b 160 489 172 428 160 454 b 203 573 160 526 174 554 b 306 601 233 592 267 601 b 468 513 379 601 433 572 z "},"і":{"ha":338,"x_min":0,"x_max":0,"o":"m 131 0 l 207 0 l 207 647 l 131 647 z m 168 847 b 208 864 183 847 196 853 b 225 904 219 875 225 888 b 208 944 225 920 219 933 b 168 961 196 956 183 961 b 129 944 153 961 140 956 b 113 904 118 933 113 920 b 129 864 113 888 118 875 b 168 847 140 853 153 847 z "},"ї":{"ha":338,"x_min":0,"x_max":0,"o":"m -17 904 b 1 861 -17 888 -11 873 b 43 843 12 849 26 843 b 85 861 60 843 74 849 b 103 904 97 873 103 888 b 85 946 103 920 97 934 b 43 964 74 958 60 964 b 1 946 26 964 12 958 b -17 904 -11 934 -17 920 z m 235 904 b 252 861 235 888 241 873 b 294 843 264 849 278 843 b 336 861 311 843 325 849 b 353 904 347 873 353 888 b 336 946 353 920 347 934 b 294 964 325 958 311 964 b 252 946 278 964 264 958 b 235 904 241 934 235 920 z m 207 647 l 131 647 l 131 0 l 207 0 z "},"ј":{"ha":339,"x_min":0,"x_max":0,"o":"m 32 -333 b 168 -279 97 -333 142 -315 b 207 -131 194 -243 207 -194 l 207 647 l 132 647 l 132 -121 b 112 -231 132 -169 125 -206 b 31 -269 98 -257 71 -269 b -22 -262 14 -269 -4 -267 l -33 -325 b 32 -333 -18 -331 4 -333 z m 169 847 b 209 864 184 847 197 853 b 226 904 221 875 226 888 b 209 944 226 920 221 933 b 169 961 197 956 184 961 b 131 944 155 961 142 956 b 114 904 119 933 114 920 b 131 864 114 888 119 875 b 169 847 142 853 155 847 z "},"љ":{"ha":1158,"x_min":0,"x_max":0,"o":"m 81 -7 b 301 399 228 -7 301 128 l 301 583 l 601 583 l 601 0 l 851 0 b 1034 50 932 0 993 17 b 1096 193 1075 83 1096 131 b 1033 340 1096 256 1075 305 b 850 393 991 375 930 393 l 676 393 l 676 647 l 228 647 l 228 422 b 190 148 228 298 215 207 b 69 60 164 89 124 60 b 26 67 53 60 38 62 l 17 1 b 81 -7 35 -4 56 -7 z m 676 65 l 676 329 l 858 329 b 1018 193 965 329 1018 284 b 858 65 1018 108 965 65 z "},"њ":{"ha":1161,"x_min":0,"x_max":0,"o":"m 131 0 l 207 0 l 207 315 l 604 315 l 604 0 l 854 0 b 1099 186 1017 0 1099 62 b 1036 330 1099 249 1078 297 b 853 379 994 363 933 379 l 679 379 l 679 647 l 604 647 l 604 379 l 207 379 l 207 647 l 131 647 z m 679 65 l 679 315 l 861 315 b 1021 186 968 315 1021 272 b 861 65 1021 106 968 65 z "},"ћ":{"ha":804,"x_min":0,"x_max":0,"o":"m 132 0 l 207 0 l 207 329 b 269 530 207 415 228 482 b 421 601 311 578 362 601 b 606 367 544 601 606 523 l 606 0 l 681 0 l 681 394 b 620 590 681 475 660 540 b 438 664 580 639 519 664 b 300 625 388 664 343 651 b 210 521 257 599 227 564 l 207 521 l 207 796 l 432 796 l 432 853 l 207 853 l 207 1050 l 132 1050 l 132 853 l 13 853 l 13 796 l 132 796 z "},"ќ":{"ha":689,"x_min":0,"x_max":0,"o":"m 556 983 l 456 983 l 315 783 l 381 783 z m 133 0 l 208 0 l 208 329 l 213 329 l 560 0 l 671 0 l 299 339 l 636 647 l 528 647 l 213 342 l 208 342 l 208 647 l 133 647 z "},"ѝ":{"ha":828,"x_min":0,"x_max":0,"o":"m 411 783 l 476 783 l 336 983 l 238 983 z m 131 0 l 213 0 l 619 546 l 622 546 l 622 0 l 696 0 l 696 647 l 614 647 l 207 106 l 207 647 l 131 647 z "},"ў":{"ha":653,"x_min":0,"x_max":0,"o":"m 336 799 b 469 847 390 799 434 815 b 531 972 503 878 524 920 l 478 982 b 429 892 471 943 455 913 b 336 860 403 870 372 860 b 243 892 300 860 269 870 b 194 982 217 913 201 943 l 142 972 b 203 847 148 920 169 878 b 336 799 238 815 282 799 z m 117 -335 b 232 -296 165 -335 203 -322 b 306 -181 261 -270 285 -231 l 628 647 l 546 647 l 335 78 l 110 647 l 25 647 l 296 -4 l 240 -150 b 190 -238 225 -189 209 -218 b 114 -268 171 -258 145 -268 b 50 -257 91 -268 69 -264 l 40 -325 b 117 -335 68 -331 94 -335 z "},"џ":{"ha":801,"x_min":0,"x_max":0,"o":"m 365 -212 l 436 -212 l 436 0 l 669 0 l 669 647 l 594 647 l 594 65 l 207 65 l 207 647 l 131 647 l 131 0 l 365 0 z "},"Ґ":{"ha":699,"x_min":0,"x_max":0,"o":"m 136 0 l 215 0 l 215 913 l 679 913 l 679 1186 l 604 1186 l 604 983 l 136 983 z "},"ґ":{"ha":582,"x_min":0,"x_max":0,"o":"m 131 0 l 207 0 l 207 583 l 551 583 l 551 819 l 482 819 l 482 647 l 131 647 z "},"Ẁ":{"ha":1343,"x_min":0,"x_max":0,"o":"m 108 983 l 25 983 l 317 0 l 413 0 l 669 878 l 672 878 l 931 0 l 1026 0 l 1318 983 l 1235 983 l 982 104 l 978 104 l 721 983 l 622 983 l 367 104 l 364 104 z m 646 1061 l 711 1061 l 571 1261 l 471 1261 z "},"ẁ":{"ha":1017,"x_min":0,"x_max":0,"o":"m 39 647 l 239 0 l 324 0 l 506 550 l 508 550 l 692 0 l 776 0 l 976 647 l 897 647 l 736 94 l 733 94 l 546 647 l 469 647 l 285 94 l 282 94 l 119 647 z m 471 783 l 536 783 l 396 983 l 296 983 z "},"Ẃ":{"ha":1343,"x_min":0,"x_max":0,"o":"m 108 983 l 25 983 l 317 0 l 413 0 l 669 878 l 672 878 l 931 0 l 1026 0 l 1318 983 l 1235 983 l 982 104 l 978 104 l 721 983 l 622 983 l 367 104 l 364 104 z m 874 1261 l 774 1261 l 633 1061 l 699 1061 z "},"ẃ":{"ha":1017,"x_min":0,"x_max":0,"o":"m 39 647 l 239 0 l 324 0 l 506 550 l 508 550 l 692 0 l 776 0 l 976 647 l 897 647 l 736 94 l 733 94 l 546 647 l 469 647 l 285 94 l 282 94 l 119 647 z m 721 983 l 621 983 l 481 783 l 546 783 z "},"Ẅ":{"ha":1343,"x_min":0,"x_max":0,"o":"m 108 983 l 25 983 l 317 0 l 413 0 l 669 878 l 672 878 l 931 0 l 1026 0 l 1318 983 l 1235 983 l 982 104 l 978 104 l 721 983 l 622 983 l 367 104 l 364 104 z m 486 1182 b 503 1139 486 1165 492 1151 b 546 1121 515 1127 529 1121 b 588 1139 563 1121 576 1127 b 604 1182 599 1151 604 1165 b 588 1224 604 1198 599 1212 b 546 1242 576 1236 563 1242 b 503 1224 529 1242 515 1236 b 486 1182 492 1212 486 1198 z m 738 1182 b 754 1139 738 1165 743 1151 b 796 1121 765 1127 779 1121 b 838 1139 813 1121 827 1127 b 856 1182 850 1151 856 1165 b 838 1224 856 1198 850 1212 b 796 1242 827 1236 813 1242 b 754 1224 779 1242 765 1236 b 738 1182 743 1212 738 1198 z "},"ẅ":{"ha":1017,"x_min":0,"x_max":0,"o":"m 39 647 l 239 0 l 324 0 l 506 550 l 508 550 l 692 0 l 776 0 l 976 647 l 897 647 l 736 94 l 733 94 l 546 647 l 469 647 l 285 94 l 282 94 l 119 647 z m 322 904 b 340 861 322 888 328 873 b 382 843 351 849 365 843 b 424 861 399 843 413 849 b 440 904 435 873 440 888 b 424 946 440 920 435 934 b 382 964 413 958 399 964 b 340 946 365 964 351 958 b 322 904 328 934 322 920 z m 574 904 b 590 861 574 888 579 873 b 632 843 601 849 615 843 b 674 861 649 843 663 849 b 692 904 686 873 692 888 b 674 946 692 920 686 934 b 632 964 663 958 649 964 b 590 946 615 964 601 958 b 574 904 579 934 574 920 z "},"Ỳ":{"ha":810,"x_min":0,"x_max":0,"o":"m 444 425 l 803 983 l 711 983 l 407 493 l 104 983 l 6 983 l 365 425 l 365 0 l 444 0 z m 390 1061 l 456 1061 l 315 1261 l 215 1261 z "},"ỳ":{"ha":653,"x_min":0,"x_max":0,"o":"m 117 -335 b 232 -296 165 -335 203 -322 b 306 -181 261 -270 285 -231 l 628 647 l 546 647 l 338 79 l 335 76 l 110 647 l 25 647 l 296 -4 l 240 -150 b 190 -238 225 -189 209 -218 b 114 -268 171 -258 145 -268 b 50 -257 91 -268 69 -264 l 40 -325 b 117 -335 68 -331 94 -335 z m 315 783 l 381 783 l 240 983 l 140 983 z "},"‐":{"ha":436,"x_min":0,"x_max":0,"o":"m 364 374 l 72 374 l 72 310 l 364 310 z "},"–":{"ha":556,"x_min":0,"x_max":0,"o":"m 514 374 l 42 374 l 42 310 l 514 310 z "},"—":{"ha":833,"x_min":0,"x_max":0,"o":"m 792 374 l 42 374 l 42 310 l 792 310 z "},"‘":{"ha":307,"x_min":0,"x_max":0,"o":"m 69 660 l 149 660 l 238 983 l 175 983 z "},"’":{"ha":307,"x_min":0,"x_max":0,"o":"m 238 983 l 158 983 l 69 660 l 132 660 z "},"‚":{"ha":307,"x_min":0,"x_max":0,"o":"m 238 131 l 158 131 l 69 -193 l 132 -193 z "},"“":{"ha":522,"x_min":0,"x_max":0,"o":"m 69 660 l 149 660 l 239 983 l 176 983 z m 285 660 l 364 660 l 453 983 l 390 983 z "},"”":{"ha":522,"x_min":0,"x_max":0,"o":"m 283 660 l 346 660 l 453 983 l 374 983 z m 69 660 l 132 660 l 238 983 l 158 983 z "},"„":{"ha":522,"x_min":0,"x_max":0,"o":"m 283 -193 l 346 -193 l 453 131 l 374 131 z m 69 -193 l 132 -193 l 238 131 l 158 131 z "},"†":{"ha":757,"x_min":0,"x_max":0,"o":"m 415 983 l 342 983 l 342 699 l 63 699 l 63 632 l 342 632 l 342 -175 l 415 -175 l 415 632 l 694 632 l 694 699 l 415 699 z "},"‡":{"ha":757,"x_min":0,"x_max":0,"o":"m 415 983 l 342 983 l 342 711 l 71 711 l 71 643 l 342 643 l 342 165 l 71 165 l 71 97 l 342 97 l 342 -175 l 415 -175 l 415 97 l 686 97 l 686 165 l 415 165 l 415 643 l 686 643 l 686 711 l 415 711 z "},"•":{"ha":694,"x_min":0,"x_max":0,"o":"m 101 492 b 173 317 101 423 125 365 b 347 246 221 270 279 246 b 522 317 416 246 474 270 b 593 492 569 365 593 423 b 522 666 593 560 569 618 b 347 738 474 714 416 738 b 173 666 279 738 221 714 b 101 492 125 618 101 560 z "},"…":{"ha":1389,"x_min":0,"x_max":0,"o":"m 293 56 b 275 99 293 72 287 87 b 231 118 263 112 248 118 b 187 99 213 118 198 112 b 169 56 175 87 169 72 b 187 10 169 38 175 23 b 231 -8 198 -2 213 -8 b 275 10 248 -8 263 -2 b 293 56 287 23 293 38 z m 757 56 b 739 99 757 72 751 87 b 694 118 727 112 712 118 b 650 99 677 118 662 112 b 632 56 638 87 632 72 b 650 10 632 38 638 23 b 694 -8 662 -2 677 -8 b 739 10 712 -8 727 -2 b 757 56 751 23 757 38 z m 1219 56 b 1202 99 1219 72 1214 87 b 1158 118 1191 112 1176 118 b 1114 99 1141 118 1126 112 b 1096 56 1102 87 1096 72 b 1114 10 1096 38 1102 23 b 1158 -8 1126 -2 1141 -8 b 1202 10 1176 -8 1191 -2 b 1219 56 1214 23 1219 38 z "},"‰":{"ha":1389,"x_min":0,"x_max":0,"o":"m 657 -14 b 806 48 715 -14 765 7 b 867 197 846 89 867 139 b 806 347 867 256 846 305 b 657 408 765 388 715 408 b 510 346 600 408 550 388 b 449 197 469 304 449 255 b 510 48 449 139 469 89 b 657 -14 550 7 600 -14 z m 657 47 b 553 90 616 47 582 62 b 511 197 525 119 511 155 b 553 303 511 239 525 274 b 657 347 582 333 616 347 b 763 303 699 347 734 333 b 806 197 791 274 806 239 b 763 90 806 155 791 119 b 657 47 734 62 699 47 z m 1140 -14 b 1289 48 1199 -14 1248 7 b 1350 197 1330 89 1350 139 b 1289 347 1350 256 1330 305 b 1140 408 1248 388 1199 408 b 992 346 1083 408 1034 388 b 931 197 951 304 931 255 b 992 48 931 139 951 89 b 1140 -14 1034 7 1083 -14 z m 1140 47 b 1036 90 1100 47 1065 62 b 993 197 1007 119 993 155 b 1036 303 993 239 1007 274 b 1140 347 1065 333 1100 347 b 1245 303 1181 347 1216 333 b 1289 197 1274 274 1289 239 b 1246 90 1289 155 1275 119 b 1140 47 1217 62 1182 47 z m 815 994 l 760 1025 l 138 -11 l 194 -42 z m 251 578 b 400 640 310 578 359 598 b 461 789 441 681 461 731 b 400 938 461 847 441 897 b 251 1000 359 979 310 1000 b 103 938 194 1000 145 979 b 42 789 62 896 42 846 b 103 640 42 731 62 681 b 251 578 145 598 194 578 z m 251 639 b 147 682 211 639 176 653 b 104 789 119 711 104 746 b 147 895 104 831 119 866 b 251 939 176 924 211 939 b 356 895 292 939 327 924 b 400 789 385 866 400 831 b 357 682 400 746 386 711 b 251 639 328 653 293 639 z "},"‹":{"ha":438,"x_min":0,"x_max":0,"o":"m 172 332 l 331 581 l 278 617 l 92 332 l 279 47 l 332 83 z "},"›":{"ha":438,"x_min":0,"x_max":0,"o":"m 265 332 l 107 83 l 160 47 l 346 332 l 158 618 l 106 581 z "},"‽":{"ha":665,"x_min":0,"x_max":0,"o":"m 392 65 b 375 96 390 77 384 88 b 342 108 366 104 355 108 b 301 92 325 108 312 103 b 286 54 291 81 286 68 b 301 16 286 39 291 27 b 339 0 312 5 324 0 b 378 17 355 0 368 6 b 393 54 388 28 393 40 b 392 59 393 55 393 57 b 392 65 392 61 392 63 z m 294 269 l 371 269 l 371 343 b 395 438 371 381 379 413 b 483 532 411 463 441 494 b 575 636 524 568 555 603 b 606 761 595 669 606 711 b 531 938 606 836 581 895 b 342 1003 481 981 418 1003 b 163 942 271 1003 212 982 b 68 774 113 901 82 845 l 143 760 b 207 886 150 812 172 854 b 339 935 242 919 286 935 b 475 888 394 935 439 919 b 529 757 511 856 529 813 b 510 671 529 724 523 695 b 449 589 498 647 477 619 b 368 500 398 534 371 505 l 367 500 l 367 754 l 294 754 z "},"⁄":{"ha":139,"x_min":0,"x_max":0,"o":"m 399 994 l 342 1025 l -281 -11 l -222 -42 z "},"⁰":{"ha":506,"x_min":0,"x_max":0,"o":"m 446 921 b 431 1066 446 975 441 1024 b 370 1177 420 1108 400 1145 b 253 1225 340 1209 301 1225 b 135 1177 205 1225 165 1209 b 74 1065 104 1145 84 1108 b 58 921 63 1023 58 975 b 67 811 58 881 61 844 b 97 715 73 778 83 746 b 158 643 111 685 131 661 b 253 617 184 625 216 617 b 347 643 289 617 320 625 b 407 715 373 661 393 685 b 437 811 421 746 431 778 b 446 921 443 844 446 881 z m 376 921 b 371 840 376 893 375 866 b 353 763 367 814 361 788 b 315 700 344 737 332 716 b 253 676 297 684 277 676 b 174 719 220 676 194 691 b 136 811 154 747 142 778 b 128 921 131 844 128 881 b 136 1029 128 960 131 996 b 174 1122 142 1063 154 1094 b 253 1165 194 1151 220 1165 b 315 1142 277 1165 297 1157 b 353 1079 332 1126 344 1105 b 371 1001 361 1053 367 1027 b 376 921 375 975 376 949 z "},"⁴":{"ha":506,"x_min":0,"x_max":0,"o":"m 371 628 l 371 768 l 457 768 l 457 828 l 371 828 l 371 1214 l 292 1214 l 46 828 l 46 768 l 310 768 l 310 628 z m 310 828 l 115 828 l 306 1125 l 310 1125 z "},"⁵":{"ha":506,"x_min":0,"x_max":0,"o":"m 435 814 b 383 948 435 869 418 913 b 247 1000 349 983 304 1000 b 172 988 217 1000 192 996 l 176 1153 l 411 1153 l 411 1214 l 111 1214 l 106 904 b 232 943 153 930 195 943 b 330 906 273 943 305 931 b 367 810 354 882 367 850 b 331 712 367 768 355 735 b 240 676 306 688 276 676 b 122 751 188 676 149 701 l 61 726 b 240 617 95 653 155 617 b 380 670 297 617 343 634 b 435 814 416 706 435 754 z "},"⁶":{"ha":506,"x_min":0,"x_max":0,"o":"m 444 804 b 392 937 444 858 427 902 b 263 989 358 972 314 989 b 199 972 239 989 218 983 l 197 974 l 350 1214 l 271 1214 l 115 960 b 63 804 80 902 63 850 b 117 669 63 750 81 705 b 253 617 153 634 198 617 b 390 669 308 617 354 634 b 444 804 426 705 444 750 z m 376 804 b 342 713 376 767 365 737 b 254 676 319 688 289 676 b 164 713 217 676 187 688 b 129 804 141 737 129 767 b 165 894 129 840 141 870 b 256 931 189 919 219 931 b 343 894 292 931 321 919 b 376 804 365 870 376 840 z "},"⁷":{"ha":506,"x_min":0,"x_max":0,"o":"m 199 628 l 432 1160 l 432 1214 l 86 1214 l 86 1153 l 358 1153 l 124 628 z "},"⁸":{"ha":506,"x_min":0,"x_max":0,"o":"m 440 789 b 414 880 440 822 431 853 b 342 939 396 907 372 927 l 342 940 b 419 1069 394 968 419 1011 b 372 1181 419 1115 403 1152 b 253 1225 340 1210 300 1225 b 134 1181 206 1225 166 1210 b 86 1069 102 1152 86 1115 b 163 940 86 1010 112 967 l 163 939 b 64 789 97 910 64 860 b 119 665 64 738 82 697 b 253 617 156 633 201 617 b 385 665 305 617 349 633 b 440 789 422 697 440 738 z m 253 1165 b 324 1138 281 1165 305 1156 b 353 1067 343 1119 353 1095 b 324 997 353 1039 343 1016 b 253 968 305 978 281 968 b 181 997 224 968 200 978 b 153 1067 162 1016 153 1039 b 181 1138 153 1095 162 1119 b 253 1165 200 1156 224 1165 z m 253 908 b 340 875 288 908 317 897 b 374 792 362 853 374 825 b 340 709 374 758 363 731 b 253 676 318 687 289 676 b 165 709 217 676 187 687 b 131 792 142 731 131 758 b 165 875 131 825 142 853 b 253 908 188 897 218 908 z "},"⁹":{"ha":506,"x_min":0,"x_max":0,"o":"m 443 1039 b 389 1172 443 1093 425 1137 b 253 1225 353 1207 307 1225 b 116 1172 198 1225 153 1207 b 61 1039 79 1137 61 1093 b 113 907 61 986 78 942 b 243 854 148 872 191 854 b 308 871 269 854 291 860 l 310 869 l 156 628 l 235 628 l 390 881 b 443 1039 425 935 442 988 z m 376 1039 b 341 949 376 1003 365 973 b 251 913 317 925 288 913 b 163 948 215 913 186 924 b 129 1039 141 972 129 1002 b 164 1129 129 1075 141 1105 b 253 1165 187 1153 217 1165 b 341 1128 288 1165 317 1153 b 376 1039 365 1104 376 1074 z "},"₀":{"ha":506,"x_min":0,"x_max":0,"o":"m 446 101 b 431 247 446 156 441 204 b 370 358 420 289 400 326 b 253 406 340 390 301 406 b 135 358 205 406 165 390 b 74 246 104 326 84 288 b 58 101 63 203 58 155 b 67 -8 58 62 61 25 b 97 -104 73 -42 83 -74 b 158 -176 111 -135 131 -159 b 253 -203 184 -194 216 -203 b 347 -176 289 -203 320 -194 b 407 -104 373 -159 393 -135 b 437 -8 421 -74 431 -42 b 446 101 443 25 446 62 z m 376 101 b 371 21 376 74 375 47 b 353 -57 367 -5 361 -31 b 315 -119 344 -83 332 -104 b 253 -143 297 -135 277 -143 b 174 -101 220 -143 194 -129 b 136 -8 154 -72 142 -42 b 128 101 131 25 128 62 b 136 210 128 140 131 176 b 174 303 142 243 154 274 b 253 346 194 331 220 346 b 315 322 277 346 297 338 b 353 260 332 306 344 286 b 371 182 361 234 367 208 b 376 101 375 156 376 129 z "},"₁":{"ha":506,"x_min":0,"x_max":0,"o":"m 239 -192 l 307 -192 l 307 394 l 250 394 l 94 275 l 138 229 l 239 311 z "},"₂":{"ha":506,"x_min":0,"x_max":0,"o":"m 435 -192 l 435 -131 l 144 -131 l 328 58 b 407 154 364 95 390 127 b 432 247 424 181 432 212 b 383 363 432 296 416 335 b 257 406 350 391 308 406 b 140 365 213 406 174 392 b 76 257 107 338 86 302 l 142 244 b 184 318 149 276 163 300 b 257 344 205 336 229 344 b 332 318 288 344 313 336 b 361 246 351 300 361 276 b 289 107 360 201 336 155 l 63 -128 l 63 -192 z "},"₃":{"ha":506,"x_min":0,"x_max":0,"o":"m 242 -203 b 376 -157 295 -203 340 -187 b 431 -29 413 -126 431 -84 b 400 63 431 7 420 38 b 318 117 380 89 352 106 b 387 168 347 128 370 145 b 413 250 404 191 413 219 b 365 364 413 298 397 336 b 243 406 333 392 292 406 b 78 310 171 406 116 374 l 132 281 b 240 347 157 325 193 347 b 315 320 270 347 295 338 b 346 250 336 302 346 279 b 312 170 346 216 334 189 b 219 142 289 151 258 142 l 186 142 l 186 85 l 219 85 b 321 56 259 85 293 75 b 363 -29 349 37 363 9 b 328 -113 363 -65 351 -93 b 242 -143 306 -133 277 -143 b 167 -121 215 -143 190 -136 b 117 -58 145 -106 128 -85 l 54 -81 b 242 -203 89 -162 152 -203 z "},"₄":{"ha":506,"x_min":0,"x_max":0,"o":"m 371 -192 l 371 -51 l 457 -51 l 457 8 l 371 8 l 371 394 l 292 394 l 46 8 l 46 -51 l 310 -51 l 310 -192 z m 310 8 l 115 8 l 306 306 l 310 306 z "},"₅":{"ha":506,"x_min":0,"x_max":0,"o":"m 435 -6 b 383 128 435 49 418 94 b 247 181 349 163 304 181 b 172 168 217 181 192 176 l 176 333 l 411 333 l 411 394 l 111 394 l 106 85 b 232 124 153 111 195 124 b 330 87 273 124 305 111 b 367 -10 354 62 367 30 b 331 -108 367 -51 355 -84 b 240 -143 306 -131 276 -143 b 122 -68 188 -143 149 -118 l 61 -93 b 240 -203 95 -166 155 -203 b 380 -149 297 -203 343 -185 b 435 -6 416 -114 435 -66 z "},"₆":{"ha":506,"x_min":0,"x_max":0,"o":"m 444 -15 b 392 117 444 38 427 83 b 263 169 358 152 314 169 b 199 153 239 169 218 164 l 197 154 l 350 394 l 271 394 l 115 140 b 63 -15 80 83 63 31 b 117 -150 63 -70 81 -115 b 253 -203 153 -185 198 -203 b 390 -150 308 -203 354 -185 b 444 -15 426 -115 444 -70 z m 376 -15 b 342 -107 376 -52 365 -83 b 254 -143 319 -131 289 -143 b 164 -107 217 -143 187 -131 b 129 -15 141 -83 129 -52 b 165 75 129 21 141 51 b 256 111 189 99 219 111 b 343 75 292 111 321 99 b 376 -15 365 51 376 21 z "},"₇":{"ha":506,"x_min":0,"x_max":0,"o":"m 199 -192 l 432 340 l 432 394 l 86 394 l 86 333 l 358 333 l 124 -192 z "},"₈":{"ha":506,"x_min":0,"x_max":0,"o":"m 440 -31 b 414 60 440 3 431 33 b 342 119 396 88 372 107 l 342 121 b 419 250 394 149 419 192 b 372 362 419 295 403 333 b 253 406 340 391 300 406 b 134 362 206 406 166 391 b 86 250 102 333 86 295 b 163 121 86 191 112 148 l 163 119 b 64 -31 97 91 64 41 b 119 -155 64 -81 82 -123 b 253 -203 156 -187 201 -203 b 385 -155 305 -203 349 -187 b 440 -31 422 -123 440 -81 z m 253 346 b 324 318 281 346 305 337 b 353 247 343 300 353 276 b 324 177 353 219 343 196 b 253 149 305 158 281 149 b 181 177 224 149 200 158 b 153 247 162 196 153 219 b 181 318 153 276 162 300 b 253 346 200 337 224 346 z m 253 89 b 340 56 288 89 317 78 b 374 -28 362 33 374 6 b 340 -110 374 -61 363 -89 b 253 -143 318 -132 289 -143 b 165 -110 217 -143 187 -132 b 131 -28 142 -89 131 -61 b 165 56 131 6 142 33 b 253 89 188 78 218 89 z "},"₉":{"ha":506,"x_min":0,"x_max":0,"o":"m 443 219 b 389 353 443 273 425 318 b 253 406 353 388 307 406 b 116 353 198 406 153 388 b 61 219 79 318 61 273 b 113 88 61 167 78 123 b 243 35 148 52 191 35 b 308 51 268 35 290 40 l 310 50 l 156 -192 l 235 -192 l 390 61 b 443 219 425 116 442 169 z m 376 219 b 341 129 376 183 365 153 b 251 93 317 105 288 93 b 163 128 215 93 186 105 b 129 219 141 152 129 182 b 164 310 129 256 141 286 b 253 346 187 334 217 346 b 341 309 288 346 317 334 b 376 219 365 284 376 255 z "},"℅":{"ha":1153,"x_min":0,"x_max":0,"o":"m 296 528 b 469 606 367 528 425 554 l 418 646 b 296 589 385 608 344 589 b 177 639 247 589 207 606 b 132 764 147 672 132 714 b 177 889 132 814 147 856 b 296 939 207 922 247 939 b 411 881 344 939 382 919 l 465 922 b 296 1000 425 974 369 1000 b 124 933 225 1000 168 978 b 58 764 80 889 58 832 b 124 594 58 695 80 639 b 296 528 168 550 225 528 z m 293 -42 l 914 994 l 857 1025 l 236 -11 z m 1094 219 b 1028 389 1094 288 1072 344 b 857 456 983 433 926 456 b 686 389 788 456 731 433 b 619 219 642 344 619 288 b 686 50 619 151 642 94 b 857 -17 731 6 788 -17 b 1028 50 926 -17 983 6 b 1094 219 1072 94 1094 151 z m 1021 219 b 976 94 1021 169 1006 128 b 857 44 946 61 906 44 b 739 94 808 44 769 61 b 694 219 709 128 694 169 b 739 344 694 269 709 311 b 857 394 769 378 808 394 b 976 344 906 394 946 378 b 1021 219 1006 311 1021 269 z "},"ℓ":{"ha":694,"x_min":0,"x_max":0,"o":"m 565 53 l 538 92 l 535 92 b 413 39 497 56 456 39 b 336 67 383 39 357 48 b 304 165 315 86 304 119 l 304 385 b 536 829 459 550 536 699 b 497 955 536 882 523 924 b 396 1001 471 986 438 1001 b 277 938 348 1001 308 980 b 231 764 246 896 231 838 l 231 399 l 117 282 l 146 242 l 149 242 l 231 332 l 231 153 b 276 24 231 95 246 52 b 396 -19 307 -5 347 -19 b 565 53 458 -19 514 5 z m 474 824 b 304 451 474 709 417 585 l 304 775 b 331 903 304 831 313 874 b 396 947 349 933 371 947 b 451 913 418 947 437 936 b 474 824 466 891 474 861 z "},"№":{"ha":1439,"x_min":0,"x_max":0,"o":"m 136 0 l 215 0 l 215 878 l 728 0 l 835 0 l 835 983 l 756 983 l 756 111 l 243 983 l 136 983 z m 994 432 l 1381 432 l 1381 496 l 994 496 z m 1188 582 b 1336 640 1248 582 1297 601 b 1394 789 1375 679 1394 729 b 1336 937 1394 849 1375 898 b 1188 994 1297 975 1248 994 b 1039 937 1127 994 1078 975 b 981 789 1000 898 981 849 b 1039 640 981 729 1000 679 b 1188 582 1078 601 1127 582 z m 1188 635 b 1084 679 1144 635 1109 650 b 1046 789 1059 709 1046 745 b 1083 897 1046 831 1058 868 b 1188 942 1108 927 1143 942 b 1292 897 1232 942 1267 927 b 1329 789 1317 868 1329 831 b 1291 679 1329 745 1316 709 b 1188 635 1266 650 1231 635 z "},"℗":{"ha":1111,"x_min":0,"x_max":0,"o":"m 28 490 b 183 122 28 346 79 223 b 557 -31 286 20 411 -31 b 929 122 702 -31 826 20 b 1083 490 1032 223 1083 346 b 929 861 1083 636 1032 759 b 557 1014 826 963 702 1014 b 183 861 411 1014 286 963 b 28 490 79 759 28 636 z m 96 490 b 231 815 96 617 141 725 b 557 950 322 905 430 950 b 881 815 684 950 792 905 b 1015 490 971 725 1015 617 b 881 167 1015 364 971 257 b 557 33 792 78 684 33 b 231 167 430 33 322 78 b 96 490 141 257 96 364 z m 393 178 l 467 178 l 467 406 l 608 406 b 766 458 674 406 727 423 b 825 597 805 492 825 539 b 766 738 825 658 805 705 b 607 788 727 771 674 788 l 393 788 z m 467 471 l 467 722 l 604 722 b 711 690 650 722 685 711 b 750 597 737 668 750 637 b 713 504 750 557 738 526 b 606 471 688 482 652 471 z "},"™":{"ha":1389,"x_min":0,"x_max":0,"o":"m 551 983 l 111 983 l 111 922 l 299 922 l 299 411 l 367 411 l 367 922 l 551 922 z m 1274 983 l 1169 983 l 978 519 l 786 983 l 679 983 l 679 411 l 747 411 l 747 910 l 750 910 l 954 411 l 997 411 l 1203 910 l 1206 910 l 1206 411 l 1274 411 z "},"Ω":{"ha":1031,"x_min":0,"x_max":0,"o":"m 942 0 l 942 65 l 671 65 l 671 196 b 870 338 756 220 822 267 b 942 581 918 408 942 489 b 815 881 942 701 899 801 b 508 1001 730 961 628 1001 b 201 881 389 1001 287 961 b 74 579 116 800 74 700 b 146 338 74 488 98 408 b 344 196 194 267 260 220 l 344 65 l 74 65 l 74 0 l 404 0 l 404 243 b 214 356 322 257 258 294 b 147 578 169 417 147 491 b 251 832 147 680 182 764 b 507 933 321 900 406 933 b 764 832 609 933 694 900 b 868 578 833 764 868 680 b 801 357 868 492 846 418 b 611 243 757 296 694 258 l 611 0 z "},"℮":{"ha":840,"x_min":0,"x_max":0,"o":"m 779 360 b 678 636 778 473 745 565 b 419 743 612 707 526 743 b 160 634 312 743 225 707 b 61 360 94 561 61 470 b 160 86 61 250 94 159 b 419 -24 227 13 313 -24 b 600 20 492 -24 552 -9 b 736 164 648 49 694 97 l 688 193 b 419 26 622 82 532 26 b 218 108 340 26 273 54 l 218 360 z m 218 410 l 218 611 b 418 694 274 667 340 694 b 622 611 496 694 564 667 l 622 410 z "},"∂":{"ha":681,"x_min":0,"x_max":0,"o":"m 314 -18 b 458 25 369 -18 418 -4 b 553 144 499 54 531 93 b 603 309 576 194 593 249 b 618 506 613 369 618 434 b 608 649 618 556 615 603 b 574 783 602 694 591 739 b 513 897 558 827 538 865 b 419 974 489 928 457 954 b 288 1003 380 993 337 1003 b 97 928 218 1003 155 978 l 138 879 b 292 942 190 921 242 942 b 439 881 350 942 399 921 b 524 732 479 840 507 790 b 549 540 540 674 549 610 b 548 499 549 531 548 517 b 547 456 547 480 547 466 b 442 550 519 495 483 527 b 308 585 400 573 356 585 b 119 502 230 585 166 557 b 47 290 71 447 47 376 b 121 72 47 205 72 132 b 314 -18 170 12 234 -18 z m 315 42 b 171 118 254 42 206 67 b 118 289 136 169 118 226 b 170 453 118 353 135 408 b 315 522 205 499 253 522 b 540 385 402 522 477 476 b 526 276 538 348 534 311 b 490 166 518 240 506 203 b 420 76 473 128 450 98 b 315 42 390 53 355 42 z "},"∆":{"ha":925,"x_min":0,"x_max":0,"o":"m 897 0 l 503 989 l 418 989 l 31 0 z m 792 68 l 131 68 l 460 915 z "},"∏":{"ha":985,"x_min":0,"x_max":0,"o":"m 878 -297 l 878 1092 l 107 1092 l 107 -297 l 181 -297 l 181 1024 l 804 1024 l 804 -297 z "},"∑":{"ha":835,"x_min":0,"x_max":0,"o":"m 790 -297 l 790 -229 l 132 -229 l 594 401 l 156 1024 l 774 1024 l 774 1092 l 63 1092 l 63 1028 l 504 401 l 43 -235 l 43 -297 z "},"−":{"ha":925,"x_min":0,"x_max":0,"o":"m 807 456 l 118 456 l 118 389 l 807 389 z "},"∕":{"ha":139,"x_min":0,"x_max":0,"o":"m 399 994 l 342 1025 l -281 -11 l -222 -42 z "},"∙":{"ha":353,"x_min":0,"x_max":0,"o":"m 239 411 b 221 456 239 428 233 443 b 176 475 209 469 194 475 b 132 456 159 475 144 469 b 114 411 120 443 114 428 b 132 367 114 394 120 380 b 176 349 144 355 159 349 b 221 367 194 349 209 355 b 239 411 233 380 239 394 z "},"√":{"ha":678,"x_min":0,"x_max":0,"o":"m 683 1092 l 614 1092 l 344 -207 l 119 271 l -11 210 l 15 153 l 86 186 l 315 -297 l 393 -297 z "},"∞":{"ha":1021,"x_min":0,"x_max":0,"o":"m 256 149 b 298 153 270 149 284 150 b 340 168 311 156 325 161 b 376 187 355 175 367 182 b 415 214 386 192 398 201 b 448 241 431 227 442 236 b 483 274 454 246 466 257 b 515 303 501 290 512 300 b 645 190 562 256 605 218 b 772 149 685 163 728 149 b 907 206 828 149 873 168 b 958 349 941 244 958 291 b 906 490 958 406 941 453 b 771 546 872 527 826 546 b 678 520 741 546 710 537 b 602 470 645 503 620 486 b 528 399 584 454 559 430 l 515 386 b 436 462 483 419 456 444 b 353 517 416 480 388 498 b 254 544 319 535 286 544 b 122 488 200 544 155 525 b 71 346 88 450 71 402 b 122 204 71 288 88 241 b 256 149 156 167 201 149 z m 257 213 b 167 250 219 213 189 225 b 135 346 146 275 135 307 b 167 442 135 384 145 416 b 253 482 188 469 217 482 b 354 446 286 482 320 470 b 472 344 388 422 428 388 b 257 213 386 256 314 213 z m 776 213 b 674 246 741 213 707 224 b 557 343 640 268 601 300 b 630 413 588 374 612 397 b 697 460 648 429 670 445 b 772 483 724 476 749 483 b 862 443 810 483 840 470 b 894 344 884 416 894 383 b 863 250 894 306 884 275 b 776 213 841 225 813 213 z "},"∫":{"ha":751,"x_min":0,"x_max":0,"o":"m 225 -292 b 288 -278 249 -292 270 -287 b 333 -238 306 -270 321 -256 b 360 -181 344 -220 353 -201 b 376 -105 367 -161 372 -136 b 382 -20 379 -74 381 -46 b 383 75 383 5 383 37 l 383 779 l 383 792 b 439 1036 382 955 401 1036 b 467 1010 446 1036 456 1028 b 507 985 479 993 492 985 b 551 1025 537 985 551 998 b 525 1071 551 1045 543 1061 b 465 1086 507 1081 488 1086 b 422 1080 450 1086 435 1084 b 389 1065 409 1076 398 1071 b 363 1039 380 1059 371 1050 b 344 1008 355 1028 349 1018 b 331 970 339 999 334 986 b 322 931 327 954 324 941 b 316 888 319 922 317 907 b 313 847 315 869 314 856 b 312 806 313 839 312 825 b 311 769 311 786 311 774 b 310 215 310 762 310 577 l 308 -17 b 254 -244 308 -169 290 -244 b 227 -219 248 -244 239 -236 b 188 -194 216 -203 202 -194 b 159 -206 176 -194 167 -198 b 147 -233 151 -213 147 -222 b 170 -277 147 -253 155 -267 b 225 -292 185 -287 204 -292 z "},"≈":{"ha":925,"x_min":0,"x_max":0,"o":"m 86 371 l 138 371 b 175 452 142 403 155 430 b 258 485 195 474 223 485 b 443 435 290 485 351 468 b 642 386 535 403 601 386 b 762 438 694 386 734 403 b 811 564 790 472 806 514 l 763 564 b 643 451 747 489 707 451 b 456 501 610 451 547 468 b 256 551 365 535 298 551 b 137 500 204 551 164 534 b 86 371 109 466 93 423 z m 86 126 l 138 126 b 175 208 142 159 155 186 b 258 240 195 229 223 240 b 443 190 291 240 352 224 b 640 140 534 157 600 140 b 760 192 692 140 732 158 b 811 321 789 227 806 270 l 761 321 b 643 208 745 246 706 208 b 454 258 609 208 546 225 b 254 308 363 292 296 308 b 86 126 159 308 103 248 z "},"≠":{"ha":925,"x_min":0,"x_max":0,"o":"m 804 204 l 804 269 l 444 269 l 543 460 l 804 460 l 804 526 l 578 526 l 668 700 l 610 731 l 504 526 l 121 526 l 121 460 l 468 460 l 371 269 l 121 269 l 121 204 l 336 204 l 242 22 l 300 -8 l 410 204 z "},"≤":{"ha":925,"x_min":0,"x_max":0,"o":"m 804 133 l 804 204 l 207 446 l 804 688 l 804 760 l 121 482 l 121 410 z m 804 6 l 804 72 l 121 72 l 121 6 z "}}}
